<?xml version="1.0" encoding="UTF-8" standalone="no"?>
<!DOCTYPE svg PUBLIC "-//W3C//DTD SVG 1.1//EN" "http://www.w3.org/Graphics/SVG/1.1/DTD/svg11.dtd">
<svg width="100%" height="100%" viewBox="0 0 789 249" version="1.1" xmlns="http://www.w3.org/2000/svg" xmlns:xlink="http://www.w3.org/1999/xlink" xml:space="preserve" xmlns:serif="http://www.serif.com/" style="fill-rule:evenodd;clip-rule:evenodd;stroke-linejoin:round;stroke-miterlimit:2;">
    <g transform="matrix(0.818802,0,0,0.818802,-284.718,-63.03)">
        <g transform="matrix(0.236922,0,0,0.213009,319.664,155.867)">
            <path d="M684.885,756.736L671.061,756.736C615.887,756.642 570.539,711.217 570.539,656.043L570.539,611.328L457.728,611.328L457.728,656.043C457.728,656.1 457.728,656.156 457.728,656.213C457.728,711.358 412.351,756.736 357.205,756.736L339.115,756.736C339.058,756.736 339.001,756.736 338.944,756.736C261.797,756.736 198.315,820.218 198.315,897.365L198.315,927.232L825.685,927.232L825.685,897.365C825.685,820.218 762.203,756.736 685.056,756.736C684.999,756.736 684.942,756.736 684.885,756.736Z" style="fill:rgb(252,254,255);fill-rule:nonzero;"/>
        </g>
        <g transform="matrix(0.236922,0,0,0.213009,319.664,155.867)">
            <path d="M604.331,927.232L580.267,845.824C593.07,845.855 604.148,836.586 606.379,823.979L620.544,743.253C599.515,730.988 583.533,711.617 575.488,688.64L452.267,688.64C443.827,713.152 426.283,733.507 403.285,745.472L417.109,823.979C419.37,836.775 430.742,846.106 443.733,845.824L419.328,927.232L604.331,927.232Z" style="fill:rgb(216,227,240);fill-rule:nonzero;"/>
        </g>
        <g transform="matrix(0.236922,0,0,0.213009,319.664,155.867)">
            <path d="M825.685,870.4C796.204,883.339 764.356,890.023 732.16,890.027L291.84,890.027C259.644,890.023 227.796,883.339 198.315,870.4L198.315,926.549L825.685,926.549L825.685,870.4Z" style="fill:rgb(216,227,240);fill-rule:nonzero;"/>
        </g>
        <g transform="matrix(0.236922,0,0,0.213009,319.664,155.867)">
            <path d="M456.021,782.165L567.979,782.165L556.203,849.067L467.797,849.067L456.021,782.165Z" style="fill:rgb(105,186,249);fill-rule:nonzero;"/>
        </g>
        <g transform="matrix(0.236922,0,0,0.213009,319.664,155.867)">
            <path d="M624.64,665.259L512,769.024L588.117,845.141L656.555,720.213L624.64,665.259ZM399.36,665.259L512,769.024L435.883,845.141L367.445,720.213L399.36,665.259Z" style="fill:rgb(252,254,255);fill-rule:nonzero;"/>
        </g>
        <g transform="matrix(0.236922,0,0,0.213009,319.664,155.867)">
            <path d="M556.203,927.232L532.821,849.067L491.179,849.067L467.797,927.232L556.203,927.232Z" style="fill:rgb(105,186,249);fill-rule:nonzero;"/>
        </g>
        <g transform="matrix(0.236922,0,0,0.213009,319.664,155.867)">
            <path d="M699.733,326.997L699.733,518.144C698.716,619.391 615.139,702.132 513.887,702.132C513.258,702.132 512.629,702.129 512,702.123C511.371,702.129 510.742,702.132 510.113,702.132C408.861,702.132 325.284,619.391 324.267,518.144L324.267,326.997" style="fill:rgb(255,222,173);fill-rule:nonzero;"/>
        </g>
        <g transform="matrix(0.236922,0,0,0.213009,319.664,155.867)">
            <path d="M643.584,326.997L643.584,518.144C642.911,609.506 574.529,687.323 484.011,699.733C493.269,701.221 502.624,702.019 512,702.123C512.629,702.129 513.258,702.132 513.887,702.132C615.139,702.132 698.716,619.391 699.733,518.144L699.733,326.997L643.584,326.997Z" style="fill:rgb(255,198,112);fill-rule:nonzero;"/>
        </g>
        <g transform="matrix(0.236922,0,0,0.213009,319.664,155.867)">
            <rect x="244.907" y="265.557" width="534.357" height="73.045" style="fill:rgb(246,113,111);fill-rule:nonzero;"/>
        </g>
        <g transform="matrix(0.236922,0,0,0.213009,319.664,155.867)">
            <path d="M742.571,265.557L670.379,265.557C689.521,266.865 704.571,282.978 704.571,302.165C704.571,321.353 689.521,337.466 670.379,338.773L742.571,338.773C761.713,337.466 776.763,321.353 776.763,302.165C776.763,282.978 761.713,266.865 742.571,265.557Z" style="fill:rgb(240,80,77);fill-rule:nonzero;"/>
        </g>
        <g transform="matrix(0.236922,0,0,0.213009,319.664,155.867)">
            <path d="M281.429,265.557L353.621,265.557C334.479,266.865 319.429,282.978 319.429,302.165C319.429,321.353 334.479,337.466 353.621,338.773L281.429,338.773C262.287,337.466 247.237,321.353 247.237,302.165C247.237,282.978 262.287,266.865 281.429,265.557Z" style="fill:rgb(246,162,162);fill-rule:nonzero;"/>
        </g>
        <g transform="matrix(0.236922,0,0,0.213009,319.664,155.867)">
            <path d="M599.04,100.181L543.744,119.467C523.192,126.632 500.808,126.632 480.256,119.467L424.96,100.181C418.319,97.876 411.339,96.699 404.309,96.699C369.762,96.699 341.333,125.128 341.333,159.675C341.333,159.698 341.333,159.721 341.333,159.744L341.333,265.557L682.667,265.557L682.667,159.744C682.667,159.721 682.667,159.698 682.667,159.675C682.667,125.128 654.238,96.699 619.691,96.699C612.661,96.699 605.681,97.876 599.04,100.181Z" style="fill:rgb(246,113,111);fill-rule:nonzero;"/>
        </g>
        <g transform="matrix(0.236922,0,0,0.213009,319.664,155.867)">
            <path d="M599.04,100.181L588.288,103.765C609.189,114.577 622.381,136.212 622.421,159.744L622.421,265.557L682.667,265.557L682.667,159.744C682.667,159.721 682.667,159.698 682.667,159.675C682.667,125.128 654.238,96.699 619.691,96.699C612.661,96.699 605.681,97.876 599.04,100.181Z" style="fill:rgb(240,80,77);fill-rule:nonzero;"/>
        </g>
        <g transform="matrix(0.236922,0,0,0.213009,319.664,155.867)">
            <path d="M424.96,100.181L435.712,103.765C414.811,114.577 401.619,136.212 401.579,159.744L401.579,265.557L341.333,265.557L341.333,159.744C341.333,159.721 341.333,159.698 341.333,159.675C341.333,125.128 369.762,96.699 404.309,96.699C411.339,96.699 418.319,97.876 424.96,100.181Z" style="fill:rgb(246,162,162);fill-rule:nonzero;"/>
        </g>
        <g transform="matrix(0.236922,0,0,0.213009,319.664,155.867)">
            <rect x="341.504" y="203.776" width="340.992" height="61.781" style="fill:rgb(252,254,255);fill-rule:nonzero;"/>
        </g>
        <g transform="matrix(0.236922,0,0,0.213009,319.664,155.867)">
            <path d="M324.267,508.587L324.267,391.509L287.232,391.509C269.782,390.84 254.857,404.611 254.123,422.059L254.123,443.733C255.953,480.6 287.37,509.647 324.267,508.587ZM699.733,508.587L699.733,391.509L736.939,391.509C754.389,390.84 769.314,404.611 770.048,422.059L770.048,443.733C768.217,480.666 736.694,509.741 699.733,508.587Z" style="fill:rgb(255,198,112);fill-rule:nonzero;"/>
        </g>
        <g transform="matrix(0.236922,0,0,0.213009,319.664,155.867)">
            <path d="M888.491,910.165L842.752,910.165L842.752,897.365C842.658,810.827 771.424,739.669 684.885,739.669L665.6,739.669L671.573,728.917C674.618,723.643 674.618,717.125 671.573,711.851L646.997,669.184C689.587,632.796 714.941,580.104 716.8,524.117C756.3,517.678 785.914,483.742 786.944,443.733L786.944,422.059C786.205,395.25 763.578,373.778 736.768,374.443L716.8,374.443L716.8,355.84L742.741,355.84C771.047,354.243 793.473,330.516 793.473,302.165C793.473,273.815 771.047,250.087 742.741,248.491L699.733,248.491L699.733,159.744C699.733,159.726 699.733,159.708 699.733,159.69C699.733,115.78 663.601,79.648 619.691,79.648C610.865,79.648 602.099,81.108 593.749,83.968L538.283,102.4C521.244,108.199 502.756,108.199 485.717,102.4L430.421,83.968C422.021,81.069 413.196,79.589 404.309,79.589C360.399,79.589 324.267,115.722 324.267,159.632C324.267,159.669 324.267,159.707 324.267,159.744L324.267,248.491L281.429,248.491C253.124,250.087 230.697,273.815 230.697,302.165C230.697,330.516 253.124,354.243 281.429,355.84L307.2,355.84L307.2,374.443L287.232,374.443C260.422,373.778 237.795,395.25 237.056,422.059L237.056,443.733C238.086,483.742 267.7,517.678 307.2,524.117C309.063,580.017 334.349,632.634 376.832,669.013L352.256,711.68C349.211,716.954 349.211,723.473 352.256,728.747L358.4,739.84L339.115,739.84C252.576,739.84 181.342,810.997 181.248,897.536L181.248,910.336L135.509,910.336C135.508,910.336 135.507,910.336 135.505,910.336C126.143,910.336 118.439,918.04 118.439,927.403C118.439,936.765 126.143,944.469 135.505,944.469C135.507,944.469 135.508,944.469 135.509,944.469L888.491,944.469C897.852,944.467 905.553,936.764 905.553,927.403C905.553,918.042 897.852,910.338 888.491,910.336L888.491,910.165ZM307.2,488.789C286.682,483.291 272.03,464.958 271.189,443.733L271.189,422.059C271.907,413.968 279.138,407.891 287.232,408.576L307.2,408.576L307.2,488.789ZM636.928,720.384L584.192,816.981L536.576,769.536L620.544,692.224L636.928,720.384ZM736.768,408.576C744.862,407.891 752.093,413.968 752.811,422.059L752.811,443.733C751.97,464.958 737.318,483.291 716.8,488.789L716.8,408.576L736.768,408.576ZM358.4,159.744C358.292,144.886 365.514,130.89 377.685,122.368C389.744,113.709 405.283,111.417 419.328,116.224L474.453,135.168C498.693,143.36 524.966,143.36 549.205,135.168L604.331,116.224C618.376,111.417 633.915,113.709 645.973,122.368C658.274,130.814 665.63,144.823 665.6,159.744L665.6,186.709L358.4,186.709L358.4,159.744ZM358.4,220.843L665.6,220.843L665.6,248.491L358.4,248.491L358.4,220.843ZM281.259,321.707C271.224,320.768 263.46,312.244 263.46,302.165C263.46,292.087 271.224,283.563 281.259,282.624L742.059,282.624C752.094,283.563 759.857,292.087 759.857,302.165C759.857,312.244 752.094,320.768 742.059,321.707L281.259,321.707ZM341.333,518.144L341.333,355.84L682.667,355.84L682.667,518.144C682.667,611.769 605.625,688.811 512,688.811C418.375,688.811 341.333,611.769 341.333,518.144ZM512,719.189C522.682,719.177 533.35,718.379 543.915,716.8L512,745.813L480.085,716.8C490.65,718.379 501.318,719.177 512,719.189ZM487.424,770.389L439.808,817.835L387.072,721.237L404.139,693.077L487.424,770.389ZM455.168,911.019L215.381,911.019L215.381,898.219C215.475,830.405 271.301,774.656 339.115,774.656L357.205,774.656C363.612,774.601 370.005,774.03 376.32,772.949L420.864,853.333C423.383,858.088 428.006,861.381 433.323,862.208L435.883,862.208C440.383,862.144 444.679,860.302 447.829,857.088L451.584,853.504C453.621,860.772 460.25,865.865 467.797,865.963L455.168,911.019ZM490.837,911.019L503.979,866.987L520.021,866.987L533.163,911.019L490.837,911.019ZM542.037,832.853L482.304,832.853L480.939,825.173L512,793.259L543.232,824.32L542.037,832.853ZM808.789,911.019L568.832,911.019L555.691,866.987C563.238,866.889 569.867,861.796 571.904,854.528L575.659,858.112C578.809,861.326 583.105,863.168 587.605,863.232L590.165,863.232C595.482,862.405 600.105,859.112 602.624,854.357L648.533,771.243C656.051,772.862 663.713,773.719 671.403,773.803L685.227,773.803C753.04,773.803 808.866,829.552 808.96,897.365L808.789,911.019Z" style="fill:rgb(61,61,99);fill-rule:nonzero;"/>
        </g>
        <g transform="matrix(0.236922,0,0,0.213009,319.664,155.867)">
            <path d="M445.099,554.667C438.853,557.359 434.787,563.538 434.787,570.34C434.787,572.699 435.276,575.034 436.224,577.195C449.299,607.325 479.155,626.916 512,626.916C544.845,626.916 574.701,607.325 587.776,577.195C588.757,574.992 589.265,572.608 589.265,570.197C589.265,560.767 581.505,553.007 572.075,553.007C565.3,553.007 559.131,557.012 556.373,563.2C548.766,580.899 531.265,592.426 512,592.426C492.735,592.426 475.234,580.899 467.627,563.2C463.775,554.694 453.62,550.847 445.099,554.667ZM436.224,453.973C445.586,453.973 453.291,446.269 453.291,436.907L453.291,417.28C453.291,407.918 445.586,400.213 436.224,400.213C426.862,400.213 419.157,407.918 419.157,417.28L419.157,436.907C419.157,446.269 426.862,453.973 436.224,453.973ZM587.776,453.973C597.138,453.973 604.843,446.269 604.843,436.907L604.843,417.28C604.843,407.918 597.138,400.213 587.776,400.213C578.414,400.213 570.709,407.918 570.709,417.28L570.709,436.907C570.709,446.269 578.414,453.973 587.776,453.973Z" style="fill:rgb(61,61,99);fill-rule:nonzero;"/>
        </g>
    </g>
    <g transform="matrix(-0.687637,-0.00154051,0.00111621,-0.498242,621.194,374.295)">
        <path d="M277.405,527.946L618.352,527.946C621.692,527.946 624.4,524.209 624.4,519.599L624.4,498.156C624.4,493.546 621.692,489.809 618.352,489.809L277.405,489.809C277.405,489.809 277.405,465.991 277.405,465.991C277.405,462.48 275.812,459.344 273.421,458.145C271.03,456.947 268.35,457.942 266.718,460.636L240.725,503.522C238.846,506.622 238.846,511.134 240.725,514.233L266.718,557.12C268.35,559.813 271.03,560.809 273.421,559.61C275.812,558.412 277.405,555.276 277.405,551.764L277.405,527.946Z" style="fill:rgb(73,80,96);"/>
    </g>
    <g transform="matrix(1,0,0,1,-187.073,-768.442)">
        <text x="473.979px" y="819.742px" style="font-family:'Helvetica-Oblique', 'Helvetica';font-style:italic;font-size:36px;fill:rgb(73,80,96);">what</text>
        <text x="444.975px" y="855.742px" style="font-family:'Helvetica';font-size:36px;fill:rgb(73,80,96);">Problem</text>
    </g>
    <g transform="matrix(0.883711,0,0,1.05042,386.006,-829.888)">
        <g transform="matrix(0.195093,0,0,0.166253,92.384,843.752)">
            <path d="M891.228,500C891.228,526.508 869.736,548 843.228,548L180.776,548C154.268,548 132.776,526.508 132.776,500L132.776,441.332C132.776,414.824 154.268,393.332 180.776,393.332L843.228,393.332C869.736,393.332 891.228,414.824 891.228,441.332L891.228,500Z" style="fill:rgb(153,217,232);fill-rule:nonzero;"/>
        </g>
        <g transform="matrix(0.195093,0,0,0.166253,92.384,843.752)">
            <rect x="150.776" y="474" width="722.452" height="63.456" style="fill:rgb(110,110,150);fill-opacity:0.2;fill-rule:nonzero;"/>
        </g>
        <g transform="matrix(0.195093,0,0,0.166253,92.384,843.752)">
            <path d="M843.228,566L180.776,566C144.384,566 114.776,536.392 114.776,500L114.776,441.332C114.776,404.94 144.384,375.332 180.776,375.332L843.228,375.332C879.62,375.332 909.228,404.94 909.228,441.332L909.228,500C909.228,536.392 879.608,566 843.228,566ZM180.776,411.332C164.232,411.332 150.776,424.788 150.776,441.332L150.776,500C150.776,516.544 164.232,530 180.776,530L843.228,530C859.768,530 873.228,516.544 873.228,500L873.228,441.332C873.228,424.788 859.768,411.332 843.228,411.332L180.776,411.332Z" style="fill:rgb(110,110,150);fill-rule:nonzero;"/>
        </g>
        <g transform="matrix(0.195093,0,0,0.166253,92.384,843.752)">
            <path d="M816,640C816,662 798,680 776,680L247.996,680C225.996,680 207.996,662 207.996,640L207.996,300C207.996,278 225.996,260 247.996,260L776,260C798,260 816,278 816,300L816,640Z" style="fill:rgb(180,183,201);fill-rule:nonzero;"/>
        </g>
        <g transform="matrix(0.195093,0,0,0.166253,92.384,843.752)">
            <rect x="215.368" y="260.332" width="554.228" height="53" style="fill:white;fill-opacity:0.2;fill-rule:nonzero;"/>
        </g>
        <g transform="matrix(0.195093,0,0,0.166253,92.384,843.752)">
            <path d="M776,698L248,698C216.02,698 190,671.98 190,640L190,300C190,268.02 216.02,242 248,242L776,242C807.98,242 834,268.02 834,300L834,640C834,671.98 807.98,698 776,698ZM248,278C235.936,278.013 226.013,287.936 226,300L226,640C226,652.128 235.868,662 248,662L776,662C788.128,662 798,652.128 798,640L798,300C798,287.868 788.128,278 776,278L248,278Z" style="fill:rgb(110,110,150);fill-rule:nonzero;"/>
        </g>
        <g transform="matrix(0.195093,0,0,0.166253,92.384,843.752)">
            <path d="M132.776,1012L132.776,860C132.776,838 150.776,820 172.776,820L851.228,820C873.228,820 891.228,838 891.228,860L891.228,1012" style="fill:rgb(248,164,167);fill-rule:nonzero;"/>
        </g>
        <g transform="matrix(0.195093,0,0,0.166253,92.384,843.752)">
            <rect x="494" y="140" width="36" height="120" style="fill:rgb(110,110,150);fill-rule:nonzero;"/>
        </g>
        <g transform="matrix(0.195093,0,0,0.166253,92.384,843.752)">
            <path d="M444.704,105.524L444.704,105.524C444.704,141.992 474.712,172 511.18,172C547.648,172 577.656,141.992 577.656,105.524L577.656,105.524C577.656,69.056 547.648,39.048 511.18,39.048C474.712,39.048 444.704,69.056 444.704,105.524Z" style="fill:rgb(180,183,201);fill-rule:nonzero;"/>
        </g>
        <g transform="matrix(0.195093,0,0,0.166253,92.384,843.752)">
            <path d="M511.18,190C464.6,190 426.704,152.104 426.704,105.524C426.704,58.94 464.6,21.044 511.18,21.044C557.764,21.044 595.656,58.94 595.656,105.524C595.656,152.104 557.756,190 511.18,190ZM511.18,57.044C484.448,57.044 462.704,78.796 462.704,105.524C462.704,132.256 484.448,154 511.18,154C537.916,154 559.656,132.252 559.656,105.524C559.656,78.796 537.916,57.044 511.18,57.044Z" style="fill:rgb(110,110,150);fill-rule:nonzero;"/>
        </g>
        <g transform="matrix(0.195093,0,0,0.166253,92.384,843.752)">
            <rect x="226" y="313.332" width="178" height="304.252" style="fill:white;fill-opacity:0.2;fill-rule:nonzero;"/>
        </g>
        <g transform="matrix(0.195093,0,0,0.166253,92.384,843.752)">
            <rect x="456" y="680" width="128" height="140" style="fill:rgb(253,208,137);fill-rule:nonzero;"/>
        </g>
        <g transform="matrix(0.195093,0,0,0.166253,92.384,843.752)">
            <path d="M602,838L438,838L438,662L602,662L602,838ZM474,802L566,802L566,698L474,698L474,802Z" style="fill:rgb(110,110,150);fill-rule:nonzero;"/>
        </g>
        <g transform="matrix(0.195093,0,0,0.166253,92.384,843.752)">
            <rect x="456" y="732" width="132" height="36" style="fill:rgb(110,110,150);fill-rule:nonzero;"/>
        </g>
        <g transform="matrix(0.195093,0,0,0.166253,92.384,843.752)">
            <path d="M320.928,395.412C320.928,431.858 350.918,461.848 387.364,461.848C423.81,461.848 453.8,431.858 453.8,395.412C453.8,358.966 423.81,328.976 387.364,328.976C350.918,328.976 320.928,358.966 320.928,395.412Z" style="fill:rgb(169,221,243);fill-rule:nonzero;"/>
        </g>
        <g transform="matrix(0.195093,0,0,0.166253,92.384,843.752)">
            <path d="M387.364,479.844C340.804,479.844 302.928,441.968 302.928,395.408C302.928,348.848 340.804,310.972 387.364,310.972C433.924,310.972 471.8,348.848 471.8,395.408C471.8,441.968 433.924,479.844 387.364,479.844ZM387.364,346.976C360.656,346.976 338.928,368.704 338.928,395.412C338.928,422.12 360.656,443.848 387.364,443.848C414.072,443.848 435.8,422.12 435.8,395.412C435.8,368.704 414.072,346.976 387.364,346.976Z" style="fill:rgb(110,110,150);fill-rule:nonzero;"/>
        </g>
        <g transform="matrix(0.195093,0,0,0.166253,92.384,843.752)">
            <path d="M576.664,395.412C576.664,431.858 606.654,461.848 643.1,461.848C679.546,461.848 709.536,431.858 709.536,395.412C709.536,358.966 679.546,328.976 643.1,328.976C606.654,328.976 576.664,358.966 576.664,395.412Z" style="fill:rgb(169,221,243);fill-rule:nonzero;"/>
        </g>
        <g transform="matrix(0.195093,0,0,0.166253,92.384,843.752)">
            <path d="M643.1,479.844C596.536,479.844 558.668,441.968 558.668,395.408C558.668,348.848 596.544,310.972 643.1,310.972C689.656,310.972 727.532,348.848 727.532,395.408C727.532,441.968 689.66,479.844 643.1,479.844ZM643.1,346.976C616.388,346.976 594.668,368.704 594.668,395.412C594.668,422.12 616.4,443.848 643.1,443.848C669.8,443.848 691.532,422.12 691.532,395.412C691.536,368.704 669.808,346.976 643.1,346.976ZM499.332,525.332L535.332,525.332L535.332,602.668L499.332,602.668L499.332,525.332ZM424.668,525.332L460.668,525.332L460.668,602.668L424.668,602.668L424.668,525.332Z" style="fill:rgb(110,110,150);fill-rule:nonzero;"/>
        </g>
        <g transform="matrix(0.195093,0,0,0.166253,92.384,843.752)">
            <rect x="230.036" y="838" width="189.332" height="174" style="fill:rgb(251,210,211);fill-opacity:0.5;fill-rule:nonzero;"/>
        </g>
        <g transform="matrix(0.195093,0,0,0.166253,92.384,843.752)">
            <rect x="699.964" y="838" width="173.26" height="174" style="fill:rgb(217,154,157);fill-rule:nonzero;"/>
        </g>
        <g transform="matrix(0.195093,0,0,0.166253,92.384,843.752)">
            <path d="M909.228,1012L873.228,1012L873.228,860C873.228,847.868 863.352,838 851.228,838L172.776,838C160.712,838.013 150.789,847.936 150.776,860L150.776,1012L114.776,1012L114.776,860C114.776,828.02 140.796,802 172.776,802L851.228,802C883.204,802 909.228,828.02 909.228,860L909.228,1012Z" style="fill:rgb(110,110,150);fill-rule:nonzero;"/>
        </g>
        <g transform="matrix(0.195093,0,0,0.166253,92.384,843.752)">
            <path d="M522,698L566,698L566,802L522,802L522,698ZM784,252L769.592,252L769.592,577.592C769.592,599.592 751.592,617.592 729.592,617.592L216,617.592L216,632C216,654 234,672 256,672L784,672C806,672 824,654 824,632L824,292C824,270 806,252 784,252Z" style="fill:rgb(110,110,150);fill-opacity:0.2;fill-rule:nonzero;"/>
        </g>
        <g transform="matrix(0.195093,0,0,0.166253,92.384,843.752)">
            <rect x="419.368" y="838" width="280.596" height="38" style="fill:rgb(251,210,211);fill-opacity:0.5;fill-rule:nonzero;"/>
        </g>
        <g transform="matrix(0.195093,0,0,0.166253,92.384,843.752)">
            <rect x="575.332" y="525.332" width="36" height="77.336" style="fill:rgb(110,110,150);fill-rule:nonzero;"/>
        </g>
        <g transform="matrix(0.195093,0,0,0.166253,92.384,843.752)">
            <path d="M670.668,916L699.964,916L699.964,950.668L670.668,950.668L670.668,916ZM645.98,950.668L699.964,950.668L699.964,985.336L645.98,985.336L645.98,950.668ZM588.668,936L615.336,936L615.336,965.332L588.668,965.332L588.668,936Z" style="fill:rgb(217,154,157);fill-rule:nonzero;"/>
        </g>
    </g>
</svg>
