<?xml version="1.0" encoding="UTF-8" standalone="no"?>
<!DOCTYPE svg PUBLIC "-//W3C//DTD SVG 1.1//EN" "http://www.w3.org/Graphics/SVG/1.1/DTD/svg11.dtd">
<!-- Generated by graphviz version 2.40.1 (20161225.0304)
 -->
<!-- Title: GP Pages: 1 -->
<svg width="406pt" height="404pt" viewBox="0.00 0.00 405.84 404.00" xmlns="http://www.w3.org/2000/svg" xmlns:xlink="http://www.w3.org/1999/xlink">
<g id="graph0" class="graph" transform="scale(1 1) rotate(0) translate(4 400)">
<title>GP</title>
<polygon fill="none" stroke="transparent" points="-4,4 -4,-400 401.8409,-400 401.8409,4 -4,4"/>
<!-- 3 -->
<g id="node1" class="node">
<title>3</title>
<ellipse fill="none" stroke="#000000" cx="45.3612" cy="-90" rx="45.2227" ry="18"/>
<text text-anchor="middle" x="45.3612" y="-85.8" font-family="Times,serif" font-size="14.00" fill="#000000">umbrella</text>
</g>
<!-- 6 -->
<g id="node2" class="node">
<title>6</title>
<ellipse fill="none" stroke="#000000" cx="135.3612" cy="-18" rx="53.8693" ry="18"/>
<text text-anchor="middle" x="135.3612" y="-13.8" font-family="Times,serif" font-size="14.00" fill="#000000">remembers</text>
</g>
<!-- 7 -->
<g id="node3" class="node">
<title>7</title>
<polygon fill="none" stroke="#000000" points="285.3612,-108 256.3294,-90 285.3612,-72 314.3929,-90 285.3612,-108"/>
<text text-anchor="middle" x="285.3612" y="-85.8" font-family="Times,serif" font-size="14.00" fill="#000000">∨</text>
</g>
<!-- 7&#45;&gt;6 -->
<g id="edge1" class="edge">
<title>7-&gt;6</title>
<path fill="none" stroke="#000000" d="M268.7354,-82.0196C246.4074,-71.3022 206.0153,-51.914 175.5123,-37.2726"/>
<polygon fill="#000000" stroke="#000000" points="176.9241,-34.068 166.3943,-32.8959 173.895,-40.3786 176.9241,-34.068"/>
</g>
<!-- &#45;6 -->
<g id="node4" class="node">
<title>-6</title>
<ellipse fill="none" stroke="#000000" cx="276.3612" cy="-18" rx="60.2287" ry="18"/>
<text text-anchor="middle" x="276.3612" y="-13.8" font-family="Times,serif" font-size="14.00" fill="#000000">¬remembers</text>
</g>
<!-- 7&#45;&gt;&#45;6 -->
<g id="edge2" class="edge">
<title>7-&gt;-6</title>
<path fill="none" stroke="#000000" d="M283.2283,-72.937C282.2345,-64.9865 281.0253,-55.3134 279.9002,-46.3127"/>
<polygon fill="#000000" stroke="#000000" points="283.3495,-45.6878 278.636,-36.1992 276.4035,-46.5561 283.3495,-45.6878"/>
</g>
<!-- 8 -->
<g id="node5" class="node">
<title>8</title>
<ellipse fill="none" stroke="#000000" cx="173.3612" cy="-90" rx="27" ry="18"/>
<text text-anchor="middle" x="173.3612" y="-85.8" font-family="Times,serif" font-size="14.00" fill="#000000">rain</text>
</g>
<!-- 9 -->
<g id="node6" class="node">
<title>9</title>
<polygon fill="none" stroke="#000000" points="325.3612,-180 271.3612,-180 271.3612,-144 325.3612,-144 325.3612,-180"/>
<text text-anchor="middle" x="298.3612" y="-157.8" font-family="Times,serif" font-size="14.00" fill="#000000">∧</text>
</g>
<!-- 9&#45;&gt;7 -->
<g id="edge3" class="edge">
<title>9-&gt;7</title>
<path fill="none" stroke="#000000" d="M295.0807,-143.8314C293.5886,-135.5673 291.7936,-125.6259 290.1545,-116.5477"/>
<polygon fill="#000000" stroke="#000000" points="293.5506,-115.6582 288.3294,-106.4393 286.662,-116.9021 293.5506,-115.6582"/>
</g>
<!-- &#45;8 -->
<g id="node7" class="node">
<title>-8</title>
<ellipse fill="none" stroke="#000000" cx="365.3612" cy="-90" rx="32.4595" ry="18"/>
<text text-anchor="middle" x="365.3612" y="-85.8" font-family="Times,serif" font-size="14.00" fill="#000000">¬rain</text>
</g>
<!-- 9&#45;&gt;&#45;8 -->
<g id="edge4" class="edge">
<title>9-&gt;-8</title>
<path fill="none" stroke="#000000" d="M315.2681,-143.8314C323.7106,-134.7588 334.0341,-123.6649 343.111,-113.9106"/>
<polygon fill="#000000" stroke="#000000" points="345.8134,-116.1443 350.0635,-106.4393 340.6889,-111.3757 345.8134,-116.1443"/>
</g>
<!-- 10 -->
<g id="node8" class="node">
<title>10</title>
<polygon fill="none" stroke="#000000" points="253.3612,-180 199.3612,-180 199.3612,-144 253.3612,-144 253.3612,-180"/>
<text text-anchor="middle" x="226.3612" y="-157.8" font-family="Times,serif" font-size="14.00" fill="#000000">∧</text>
</g>
<!-- 10&#45;&gt;&#45;6 -->
<g id="edge6" class="edge">
<title>10-&gt;-6</title>
<path fill="none" stroke="#000000" d="M229.18,-143.6554C232.3568,-125.1687 238.2929,-96.0165 247.3612,-72 250.8394,-62.7882 255.5919,-53.1807 260.2432,-44.6671"/>
<polygon fill="#000000" stroke="#000000" points="263.3089,-46.356 265.1854,-35.9287 257.2159,-42.9099 263.3089,-46.356"/>
</g>
<!-- 10&#45;&gt;8 -->
<g id="edge5" class="edge">
<title>10-&gt;8</title>
<path fill="none" stroke="#000000" d="M212.987,-143.8314C206.507,-135.0283 198.626,-124.3221 191.6044,-114.7832"/>
<polygon fill="#000000" stroke="#000000" points="194.2092,-112.4178 185.4623,-106.4393 188.5718,-116.5675 194.2092,-112.4178"/>
</g>
<!-- 11 -->
<g id="node9" class="node">
<title>11</title>
<polygon fill="none" stroke="#000000" points="297.3612,-252 268.3294,-234 297.3612,-216 326.3929,-234 297.3612,-252"/>
<text text-anchor="middle" x="297.3612" y="-229.8" font-family="Times,serif" font-size="14.00" fill="#000000">∨</text>
</g>
<!-- 11&#45;&gt;9 -->
<g id="edge7" class="edge">
<title>11-&gt;9</title>
<path fill="none" stroke="#000000" d="M297.6135,-215.8314C297.7204,-208.131 297.8476,-198.9743 297.9665,-190.4166"/>
<polygon fill="#000000" stroke="#000000" points="301.4661,-190.4609 298.1054,-180.4133 294.4668,-190.3637 301.4661,-190.4609"/>
</g>
<!-- 11&#45;&gt;10 -->
<g id="edge8" class="edge">
<title>11-&gt;10</title>
<path fill="none" stroke="#000000" d="M286.2674,-222.75C276.9656,-213.3171 263.3307,-199.4903 251.4181,-187.4098"/>
<polygon fill="#000000" stroke="#000000" points="253.7911,-184.8315 244.2774,-180.1686 248.8068,-189.7465 253.7911,-184.8315"/>
</g>
<!-- 12 -->
<g id="node10" class="node">
<title>12</title>
<polygon fill="none" stroke="#000000" points="225.3612,-324 171.3612,-324 171.3612,-288 225.3612,-288 225.3612,-324"/>
<text text-anchor="middle" x="198.3612" y="-301.8" font-family="Times,serif" font-size="14.00" fill="#000000">∧</text>
</g>
<!-- 12&#45;&gt;11 -->
<g id="edge10" class="edge">
<title>12-&gt;11</title>
<path fill="none" stroke="#000000" d="M223.343,-287.8314C239.4319,-276.1304 260.1439,-261.0671 275.5648,-249.8519"/>
<polygon fill="#000000" stroke="#000000" points="277.9293,-252.46 283.9581,-243.7477 273.8121,-246.7989 277.9293,-252.46"/>
</g>
<!-- &#45;3 -->
<g id="node11" class="node">
<title>-3</title>
<ellipse fill="none" stroke="#000000" cx="198.3612" cy="-234" rx="51.5823" ry="18"/>
<text text-anchor="middle" x="198.3612" y="-229.8" font-family="Times,serif" font-size="14.00" fill="#000000">¬umbrella</text>
</g>
<!-- 12&#45;&gt;&#45;3 -->
<g id="edge9" class="edge">
<title>12-&gt;-3</title>
<path fill="none" stroke="#000000" d="M198.3612,-287.8314C198.3612,-280.131 198.3612,-270.9743 198.3612,-262.4166"/>
<polygon fill="#000000" stroke="#000000" points="201.8613,-262.4132 198.3612,-252.4133 194.8613,-262.4133 201.8613,-262.4132"/>
</g>
<!-- 13 -->
<g id="node12" class="node">
<title>13</title>
<polygon fill="none" stroke="#000000" points="145.3612,-180 91.3612,-180 91.3612,-144 145.3612,-144 145.3612,-180"/>
<text text-anchor="middle" x="118.3612" y="-157.8" font-family="Times,serif" font-size="14.00" fill="#000000">∧</text>
</g>
<!-- 13&#45;&gt;3 -->
<g id="edge11" class="edge">
<title>13-&gt;3</title>
<path fill="none" stroke="#000000" d="M99.9402,-143.8314C90.7852,-134.8018 79.6001,-123.7699 69.7444,-114.0492"/>
<polygon fill="#000000" stroke="#000000" points="72.1,-111.4566 62.5225,-106.9263 67.1845,-116.4403 72.1,-111.4566"/>
</g>
<!-- 13&#45;&gt;6 -->
<g id="edge13" class="edge">
<title>13-&gt;6</title>
<path fill="none" stroke="#000000" d="M120.5142,-143.7623C123.4138,-119.201 128.6028,-75.2474 132.0138,-46.3541"/>
<polygon fill="#000000" stroke="#000000" points="135.5289,-46.431 133.2256,-36.0896 128.5772,-45.6103 135.5289,-46.431"/>
</g>
<!-- 13&#45;&gt;8 -->
<g id="edge12" class="edge">
<title>13-&gt;8</title>
<path fill="none" stroke="#000000" d="M132.24,-143.8314C139.0332,-134.9385 147.3099,-124.1034 154.6523,-114.4916"/>
<polygon fill="#000000" stroke="#000000" points="157.5143,-116.5107 160.8034,-106.4393 151.9516,-112.2614 157.5143,-116.5107"/>
</g>
<!-- 14 -->
<g id="node13" class="node">
<title>14</title>
<polygon fill="none" stroke="#000000" points="158.3612,-396 129.3294,-378 158.3612,-360 187.3929,-378 158.3612,-396"/>
<text text-anchor="middle" x="158.3612" y="-373.8" font-family="Times,serif" font-size="14.00" fill="#000000">∨</text>
</g>
<!-- 14&#45;&gt;12 -->
<g id="edge14" class="edge">
<title>14-&gt;12</title>
<path fill="none" stroke="#000000" d="M165.8848,-364.4574C170.7859,-355.6355 177.3511,-343.8181 183.2959,-333.1175"/>
<polygon fill="#000000" stroke="#000000" points="186.506,-334.5461 188.303,-324.1047 180.3869,-331.1465 186.506,-334.5461"/>
</g>
<!-- 14&#45;&gt;13 -->
<g id="edge15" class="edge">
<title>14-&gt;13</title>
<path fill="none" stroke="#000000" d="M155.3547,-361.7649C148.5786,-325.1741 132.0457,-235.8966 123.5654,-190.1029"/>
<polygon fill="#000000" stroke="#000000" points="127.0011,-189.4341 121.7387,-180.2386 120.1182,-190.7088 127.0011,-189.4341"/>
</g>
</g>
</svg>