<?xml version="1.0" encoding="UTF-8" standalone="no"?>
<!DOCTYPE svg PUBLIC "-//W3C//DTD SVG 1.1//EN" "http://www.w3.org/Graphics/SVG/1.1/DTD/svg11.dtd">
<svg width="100%" height="100%" viewBox="0 0 448 216" version="1.1" xmlns="http://www.w3.org/2000/svg" xmlns:xlink="http://www.w3.org/1999/xlink" xml:space="preserve" xmlns:serif="http://www.serif.com/" style="fill-rule:evenodd;clip-rule:evenodd;stroke-linejoin:round;stroke-miterlimit:2;">
    <g transform="matrix(0.922296,0,0,0.858134,-416.342,-678.833)">
        <g transform="matrix(0.114708,0,0,0.111678,632.246,800.275)">
            <path d="M915.752,634.971C915.752,679.752 879.447,716.049 834.666,716.049C789.888,716.049 753.569,679.752 753.569,634.971L272.178,634.971C272.178,679.752 235.875,716.049 191.08,716.049C146.3,716.049 109.994,679.752 109.994,634.971C109.994,611.72 119.789,590.777 135.453,576.008C119.789,561.217 109.994,540.274 109.994,517.037C109.994,472.243 146.3,435.939 191.08,435.939C198.426,435.939 205.504,436.929 212.265,438.754L212.265,315.782C212.265,232.756 245.909,157.606 300.303,103.213C354.697,48.827 429.848,15.174 512.872,15.174C678.9,15.174 813.482,149.754 813.482,315.782L813.482,438.754C820.388,436.887 827.512,435.94 834.666,435.939C879.447,435.939 915.752,472.243 915.752,517.037C915.752,540.274 905.973,561.217 890.316,576.008C905.973,590.777 915.752,611.72 915.752,634.973L915.752,634.971Z" style="fill:rgb(255,245,215);fill-rule:nonzero;"/>
        </g>
        <g transform="matrix(0.114708,0,0,0.111678,632.246,800.275)">
            <path d="M380.537,406.433C419.734,445.631 407.344,536.912 376.997,634.971L272.178,634.971C272.178,679.752 235.875,716.049 191.08,716.049C146.3,716.049 109.994,679.752 109.994,634.971C109.994,611.72 119.789,590.777 135.453,576.008C119.789,561.217 109.994,540.274 109.994,517.037C109.994,472.243 146.3,435.939 191.08,435.939C198.426,435.939 205.504,436.929 212.265,438.754L212.265,315.782C212.265,232.756 245.909,157.606 300.303,103.213C354.697,48.827 429.848,15.174 512.874,15.174C407.368,15.174 277.583,303.478 380.539,406.433L380.537,406.433Z" style="fill:rgb(224,207,175);fill-rule:nonzero;"/>
        </g>
        <g transform="matrix(0.114708,0,0,0.111678,632.246,800.275)">
            <path d="M587.064,871.799L694.979,871.799C750.301,871.799 795.144,916.641 795.144,971.964L795.144,1006.83L230.589,1006.83L230.589,971.964C230.589,916.641 275.43,871.799 330.754,871.799L438.667,871.799" style="fill:rgb(62,76,86);fill-rule:nonzero;"/>
        </g>
        <g transform="matrix(0.114708,0,0,0.111678,632.246,800.275)">
            <path d="M753.569,419.386L753.569,594.684C753.569,727.604 645.819,835.378 512.872,835.378C512.102,835.378 511.315,835.378 510.549,835.354C445.005,834.747 385.738,807.94 342.674,764.876C299.133,721.311 272.178,661.132 272.178,594.684L272.178,419.386C315.665,419.386 351.314,414.449 380.539,406.433C506.698,371.775 512.872,279.626 512.872,279.626C512.872,279.626 522.222,419.386 753.569,419.386Z" style="fill:rgb(255,220,182);fill-rule:nonzero;"/>
        </g>
        <g transform="matrix(0.114708,0,0,0.111678,632.246,800.275)">
            <path d="M636.204,871.799L602.581,1006.83L512.866,928.462L423.157,1006.83L389.535,871.799" style="fill:rgb(255,245,215);fill-rule:nonzero;"/>
        </g>
        <g transform="matrix(0.114708,0,0,0.111678,632.246,800.275)">
            <path d="M442.042,871.799C386.72,871.799 341.878,916.641 341.878,971.964L341.878,1006.83L230.589,1006.83L230.589,971.964C230.589,916.641 275.43,871.799 330.754,871.799L442.042,871.799Z" style="fill:rgb(33,44,51);fill-rule:nonzero;"/>
        </g>
        <g transform="matrix(0.114708,0,0,0.111678,632.246,800.275)">
            <path d="M510.549,835.354C445.007,834.745 385.738,807.94 342.674,764.876C299.133,721.311 272.178,661.132 272.178,594.684L272.178,419.386C315.665,419.386 351.314,414.449 380.539,406.433L380.539,594.684C380.539,661.154 395.346,721.311 419.307,764.876C442.737,807.51 474.908,834.224 510.549,835.354Z" style="fill:rgb(237,197,157);fill-rule:nonzero;"/>
        </g>
        <g transform="matrix(0.114708,0,0,0.111678,632.246,800.275)">
            <path d="M589.762,822.833L589.762,851.564C589.762,883.191 570.676,910.35 543.399,922.169C533.759,926.334 523.367,928.476 512.866,928.462C470.417,928.462 435.976,894.038 435.976,851.564L435.976,822.835L589.762,822.833Z" style="fill:rgb(237,197,157);fill-rule:nonzero;"/>
        </g>
        <g transform="matrix(0.114708,0,0,0.111678,632.246,800.275)">
            <path d="M589.762,822.833L589.762,851.564C589.762,883.191 570.676,910.35 543.399,922.169C516.124,910.35 497.021,883.191 497.021,851.566L497.021,822.833L589.762,822.833Z" style="fill:rgb(255,220,182);fill-rule:nonzero;"/>
        </g>
        <g transform="matrix(0.114708,0,0,0.111678,632.246,800.275)">
            <path d="M512.874,688.844C532.827,688.849 552.631,685.401 571.408,678.652C579.241,675.83 583.365,667.064 580.546,659.23C577.719,651.401 568.958,647.279 561.124,650.092C529.94,661.294 495.808,661.294 464.624,650.092C456.792,647.274 448.029,651.398 445.208,659.23C444.614,660.88 444.31,662.62 444.31,664.374C444.31,670.758 448.339,676.49 454.346,678.652C473.12,685.404 492.922,688.853 512.872,688.844L512.874,688.844Z" style="fill-rule:nonzero;"/>
        </g>
        <g transform="matrix(0.114708,0,0,0.111678,632.246,800.275)">
            <path d="M930.941,517.037C930.941,463.955 887.751,420.765 834.668,420.765C832.664,420.765 830.66,420.827 828.664,420.953L828.664,384.244C828.664,384.243 828.664,384.242 828.664,384.24C828.664,375.918 821.816,369.07 813.494,369.07C813.492,369.07 813.491,369.07 813.49,369.07C805.165,369.069 798.313,375.917 798.309,384.242L798.309,438.754C798.31,443.475 800.511,447.936 804.258,450.808C808.006,453.678 812.888,454.639 817.444,453.403C823.06,451.89 828.85,451.122 834.666,451.12C871.01,451.12 900.586,480.694 900.586,517.037C900.586,535.345 893.232,552.368 879.892,564.96C876.855,567.825 875.131,571.821 875.131,575.997C875.131,580.173 876.855,584.169 879.892,587.035C893.232,599.634 900.586,616.657 900.586,634.965C900.586,671.308 871.018,700.882 834.666,700.882C798.323,700.882 768.749,671.308 768.749,634.965L768.741,594.684L768.741,419.386C768.741,419.384 768.741,419.383 768.741,419.382C768.741,411.059 761.893,404.211 753.571,404.211C753.57,404.211 753.569,404.211 753.569,404.211C664.514,404.211 597.272,382.3 559.112,340.859C530.839,310.145 528.033,278.83 528.015,278.612C527.486,270.676 520.921,264.546 512.966,264.5C505.099,264.476 498.371,270.588 497.738,278.513C497.716,278.824 494.909,310.145 466.635,340.859C428.475,382.3 361.232,404.211 272.178,404.211C272.177,404.211 272.177,404.211 272.176,404.211C263.854,404.211 257.006,411.059 257.006,419.382C257.006,419.383 257.006,419.384 257.006,419.386L257.006,594.684L256.998,634.965C256.998,671.308 227.431,700.882 191.08,700.882C154.737,700.882 125.169,671.308 125.169,634.965C125.169,616.657 132.514,599.634 145.862,587.035C148.895,584.168 150.616,580.175 150.619,576.002C150.619,571.826 148.897,567.829 145.862,564.96C132.514,552.368 125.169,535.345 125.169,517.037C125.169,480.688 154.737,451.12 191.08,451.12C196.889,451.12 202.682,451.884 208.303,453.405C212.859,454.637 217.739,453.676 221.489,450.808C225.236,447.936 227.438,443.474 227.437,438.752L227.437,315.792C227.437,158.395 355.485,30.355 512.874,30.355C670.263,30.355 798.309,158.395 798.309,315.79L798.309,323.541C798.309,331.924 805.108,338.713 813.49,338.713C813.491,338.713 813.492,338.713 813.494,338.713C821.816,338.713 828.664,331.865 828.664,323.543L828.664,315.79C828.662,141.664 686.999,0 512.872,0C338.752,0 197.082,141.662 197.082,315.79L197.082,420.953C195.086,420.827 193.082,420.765 191.08,420.765C138.004,420.765 94.814,463.955 94.814,517.037C94.814,538.409 102.05,559.229 115.025,576.002C102.05,592.771 94.814,613.591 94.814,634.963C94.814,688.046 137.996,731.227 191.08,731.227C225.886,731.227 256.429,712.669 273.34,684.928C282.262,708.561 294.728,730.916 310.635,751.398C313.507,755.097 317.935,757.266 322.619,757.266C325.99,757.266 329.267,756.142 331.929,754.073C335.629,751.201 337.799,746.772 337.799,742.088C337.799,738.72 336.677,735.447 334.612,732.786C303.696,692.966 287.352,645.207 287.352,594.682L287.352,434.36C380.047,431.921 448.382,406.806 490.588,359.626C500.319,348.748 507.533,337.823 512.874,327.719C518.214,337.823 525.428,348.748 535.151,359.624C577.356,406.806 645.693,431.921 738.386,434.36L738.386,594.682C738.386,719.033 637.224,820.202 512.866,820.202C462.325,820.202 414.566,803.86 374.744,772.944C368.168,767.841 358.559,769.048 353.449,775.619C348.347,782.195 349.558,791.806 356.132,796.911C376.093,812.413 397.817,824.677 420.796,833.544L420.796,851.562C420.796,853.263 420.85,854.948 420.944,856.623L330.752,856.623C267.15,856.623 215.407,908.366 215.407,971.962L215.407,1006.82C215.407,1015.21 222.205,1022 230.589,1022L795.144,1022C803.525,1022 810.316,1015.21 810.316,1006.82L810.316,971.964C810.316,908.368 758.573,856.625 694.979,856.625L604.787,856.625C604.873,854.948 604.927,853.265 604.927,851.564L604.927,833.414C672.726,807.175 726.635,752.867 752.327,684.812C769.234,712.618 799.814,731.229 834.66,731.229C887.743,731.229 930.933,688.048 930.933,634.965C930.933,613.593 923.689,592.773 910.722,576C923.697,559.229 930.941,538.409 930.941,517.037ZM479.579,937.381L431.874,979.06L408.951,886.973L427.89,886.973C437.519,910.014 456.265,928.307 479.579,937.381ZM512.866,948.609L562.136,991.651L463.594,991.651L512.866,948.609ZM245.769,971.964C245.769,925.101 283.891,886.979 330.752,886.979L377.676,886.979L403.735,991.651L245.769,991.651L245.769,971.964ZM779.969,971.964L779.969,991.651L621.997,991.651L648.063,886.979L694.979,886.979C741.842,886.979 779.969,925.101 779.969,971.964ZM616.78,886.979L593.856,979.06L546.151,937.381C569.466,928.307 588.209,910.014 597.841,886.979L616.78,886.979ZM574.582,851.564C574.582,885.6 546.9,913.28 512.866,913.28C478.839,913.28 451.151,885.6 451.151,851.564L451.151,843.097C471.104,848.025 491.773,850.55 512.872,850.55C533.672,850.558 554.396,848.026 574.582,843.011L574.582,851.564Z" style="fill-rule:nonzero;"/>
        </g>
        <g transform="matrix(0.114708,0,0,0.111678,632.246,800.275)">
            <path d="M634.629,540.625L634.629,486.255C634.629,477.872 627.828,471.081 619.446,471.081C611.065,471.081 604.274,477.872 604.274,486.255L604.274,540.625C604.274,549.009 611.065,555.798 619.446,555.798C627.828,555.798 634.629,549.007 634.629,540.625ZM421.473,540.625L421.473,486.255C421.473,477.872 414.682,471.081 406.3,471.081C397.919,471.081 391.126,477.872 391.126,486.255L391.126,540.625C391.126,549.009 397.919,555.798 406.3,555.798C414.682,555.798 421.473,549.007 421.473,540.625Z" style="fill-rule:nonzero;"/>
        </g>
    </g>
    <g transform="matrix(0.0634248,0,0,0.0580529,103.079,156.333)">
        <path d="M709.448,275.968C622.817,258.15 534.897,249.119 448.164,249.119C361.431,249.119 273.531,258.15 186.88,275.968C175.677,278.262 166.523,286.392 162.918,297.308C116.777,437.494 116.777,579.645 162.918,719.831C166.502,730.706 175.657,738.836 186.88,741.151C273.531,758.948 361.431,768 448.164,768C534.856,768 622.817,758.948 709.448,741.11C720.712,738.816 729.825,730.685 733.45,719.79C779.571,579.604 779.571,437.453 733.45,297.267C729.825,286.392 720.691,278.262 709.448,275.948L709.448,275.968ZM703.017,709.816C533.135,744.694 363.213,744.694 193.352,709.816C149.156,575.631 149.156,441.487 193.352,307.282C363.233,272.364 533.156,272.364 703.017,307.282C747.213,441.467 747.213,575.611 703.017,709.816ZM987.32,202.24C981.135,176.189 959.324,156.733 932.762,153.539C793.231,136.581 651.735,128 512.164,128C372.613,128 231.117,136.581 91.587,153.498C65.024,156.733 43.233,176.148 37.069,202.24C-11.858,407.777 -11.858,616.182 37.069,821.76C43.254,847.811 65.044,867.267 91.587,870.441C158.822,878.633 226.509,884.613 294.175,888.873C290.529,891.208 288.154,893.583 288.154,896C288.154,913.695 388.444,928.01 512.164,928.01C635.884,928.01 736.174,913.715 736.174,896C736.174,893.563 733.798,891.208 730.153,888.873C797.839,884.613 865.505,878.633 932.721,870.441C959.283,867.246 981.094,847.811 987.279,821.76C1036.27,616.182 1036.27,407.777 987.341,202.24L987.32,202.24ZM925.061,806.953C649.789,840.335 374.538,840.335 99.308,806.953C52.49,610.304 52.49,413.676 99.308,217.068C374.579,183.665 649.83,183.665 925.061,217.068C971.878,413.676 971.878,610.324 925.061,806.953ZM848.2,384C874.701,384 896.205,362.496 896.205,335.995C896.205,309.494 874.701,287.99 848.2,287.99C821.699,287.99 800.195,309.494 800.195,335.995C800.195,362.496 821.699,384 848.2,384ZM848.2,320C857.006,320 864.195,327.209 864.195,335.995C864.195,344.781 856.986,351.99 848.2,351.99C839.414,351.99 832.205,344.781 832.205,335.995C832.205,327.209 839.373,320 848.2,320ZM880.189,704C888.996,704 896.184,711.127 896.184,719.995C896.184,728.801 888.975,735.99 880.189,735.99L784.179,735.99C775.311,735.99 768.184,728.781 768.184,719.995C768.184,711.127 775.311,704 784.179,704L880.189,704ZM912.2,608.01C921.006,608.01 928.195,615.137 928.195,624.005C928.195,632.812 920.986,640 912.2,640L816.189,640C807.322,640 800.195,632.791 800.195,624.005C800.195,615.137 807.322,608.01 816.189,608.01L912.2,608.01ZM912.2,512C921.006,512 928.195,519.168 928.195,527.995C928.195,536.822 920.986,543.99 912.2,543.99L816.189,543.99C807.322,543.99 800.195,536.822 800.195,527.995C800.195,519.168 807.322,512 816.189,512L912.2,512ZM432.169,377.733C440.996,377.385 448.164,384.266 448.164,393.093C448.164,401.92 440.955,409.354 432.169,409.661L312.197,417.894C303.452,418.796 295.342,426.66 294.154,435.364L288.809,496.005C288.461,504.812 280.965,512 272.241,512C263.475,512 256.655,504.791 257.106,496.005L266.875,406.856C268.349,398.152 276.705,390.205 285.43,389.222L432.189,377.733L432.169,377.733Z" style="fill-rule:nonzero;"/>
    </g>
    <g transform="matrix(0.42333,0,0,0.333799,-121.107,30.1385)">
        <path d="M608.215,451.411C608.304,450.834 608.144,450.214 607.757,449.821C607.169,449.223 606.659,449.403 606.311,449.635C606.067,449.797 605.605,450.233 605.596,451.181C605.592,451.634 605.837,452.98 605.87,453.154L608.766,466.378C609.835,471.126 610.658,473.661 609.916,475.77C609.253,477.657 607.396,479.035 603.824,481.417C602.967,481.988 601.012,484.019 599.362,485.337C598.791,485.793 598.311,486.225 597.974,486.225C597.261,486.225 596.683,486.959 596.683,487.862C596.683,488.765 597.261,489.499 597.974,489.499C598.484,489.499 599.212,489.21 600.016,488.649C601.731,487.452 604.071,484.95 605.025,484.314C609.386,481.407 611.464,479.407 612.274,477.103C613.186,474.508 612.563,471.322 611.249,465.48L608.38,452.391L608.215,451.411ZM607.736,452.393C607.277,452.845 606.616,452.856 606.142,452.374C606.844,453.089 607.359,452.899 607.736,452.393Z"/>
    </g>
    <g transform="matrix(0.42333,0,0,0.333799,-121.107,30.1385)">
        <path d="M612.046,470.17C618.554,468.768 620.378,472.489 622.197,476.263C623.319,478.592 624.466,480.914 626.302,482.512C628.261,484.216 631.007,485.173 635.402,484.294C636.106,484.154 636.587,483.315 636.476,482.423C636.365,481.53 635.704,480.92 635,481.061C628.643,482.332 626.59,479.04 624.837,475.461C623.106,471.926 621.517,468.302 617.76,467.037C616.178,466.504 614.192,466.387 611.614,466.942C610.912,467.094 610.439,467.939 610.558,468.83C610.677,469.721 611.344,470.321 612.046,470.17Z"/>
    </g>
    <g transform="matrix(0.42333,0,0,0.333799,-120.118,30.4654)">
        <path d="M583.204,469.701C583.486,469.377 583.652,468.898 583.624,468.38C583.575,467.479 582.958,466.797 582.248,466.859C581.834,466.895 581.573,467.064 581.378,467.247C581.094,467.513 580.889,467.881 580.768,468.52C580.2,471.509 580.271,474.54 580.661,477.588C581.477,483.96 583.781,490.408 583.781,496.659C583.781,497.562 584.359,498.295 585.072,498.295C585.784,498.295 586.362,497.562 586.362,496.659C586.362,490.24 584.047,483.607 583.209,477.063C582.892,474.59 582.8,472.129 583.204,469.701Z"/>
    </g>
    <g transform="matrix(0.42333,0,0,0.333799,-120.551,30.6826)">
        <path d="M582.088,485.489C582.315,485.477 582.541,485.387 582.743,485.215C583.098,484.912 583.249,484.678 583.294,484.599C583.759,483.784 583.524,483.122 583.347,482.762C583.199,482.46 582.835,481.848 582.034,482.007C581.957,482.022 581.779,482.076 581.533,482.208C580.835,482.583 578.521,484.091 577.439,484.354C576.54,484.574 575.675,484.621 574.829,484.583C572.52,484.478 570.331,483.786 568.018,483.786C567.306,483.786 566.727,484.519 566.727,485.422C566.727,486.326 567.306,487.059 568.018,487.059C570.3,487.059 572.458,487.751 574.736,487.854C575.771,487.901 576.828,487.837 577.926,487.569C578.867,487.34 581.122,486.055 582.088,485.489ZM581.856,485.477C580.009,486.132 575.452,487.485 581.303,482.498C580.712,483.002 580.554,484.019 580.952,484.769C581.167,485.175 581.501,485.42 581.856,485.477Z"/>
    </g>
    <g transform="matrix(0.922296,0,0,0.858134,-414.808,-679.846)">
        <g transform="matrix(0.105747,0,0,0.112032,733.551,800.87)">
            <path d="M258.829,570.139L256.939,570.139C221.993,570.139 193.665,541.811 193.665,506.867C193.665,471.923 221.993,443.593 256.939,443.593L757.532,443.593C792.475,443.593 820.803,471.921 820.803,506.867C820.803,541.803 792.475,570.139 757.532,570.139L755.64,570.139" style="fill:rgb(237,197,157);fill-rule:nonzero;"/>
        </g>
        <g transform="matrix(0.105747,0,0,0.112032,733.551,800.87)">
            <path d="M583.804,868.99L695.172,868.99C752.266,868.99 798.539,915.264 798.539,972.358L798.539,1008.34L215.915,1008.34L215.915,972.358C215.915,915.264 262.189,868.99 319.282,868.99L430.648,868.99" style="fill:rgb(186,126,86);fill-rule:nonzero;"/>
        </g>
        <g transform="matrix(0.105747,0,0,0.112032,733.551,800.87)">
            <path d="M755.632,334.599L755.632,582.999C755.632,720.179 644.43,831.398 507.234,831.398C438.634,831.398 376.546,803.598 331.586,758.646C286.648,713.687 258.837,651.577 258.837,582.999L258.837,334.599L755.632,334.599Z" style="fill:rgb(255,220,182);fill-rule:nonzero;"/>
        </g>
        <g transform="matrix(0.105747,0,0,0.112032,733.551,800.87)">
            <path d="M755.632,334.599L755.632,546.351C695.43,554.413 616.304,558.733 512.64,558.733C462.71,558.733 418.484,557.733 379.304,555.789C332.172,553.453 292.39,549.757 258.837,544.803L258.837,334.601L755.632,334.599Z" style="fill:rgb(237,197,157);fill-rule:nonzero;"/>
        </g>
        <g transform="matrix(0.105747,0,0,0.112032,733.551,800.87)">
            <path d="M434.132,868.99C377.046,868.99 330.766,915.264 330.766,972.358L330.766,1008.34L215.915,1008.34L215.915,972.358C215.915,915.264 262.189,868.99 319.282,868.99L434.132,868.99Z" style="fill:rgb(153,100,65);fill-rule:nonzero;"/>
        </g>
        <g transform="matrix(0.105747,0,0,0.112032,733.551,800.87)">
            <path d="M634.508,868.99L599.812,1008.34L507.226,927.458L414.64,1008.34L379.946,868.99" style="fill:rgb(132,75,42);fill-rule:nonzero;"/>
        </g>
        <g transform="matrix(0.105747,0,0,0.112032,733.551,800.87)">
            <path d="M505.468,831.388C437.57,830.936 376.172,803.216 331.586,758.654C286.632,713.687 258.837,651.601 258.837,582.999L258.837,334.585L370.672,334.585L370.672,582.999C370.672,651.599 385.946,713.687 410.664,758.654C434.992,802.904 468.454,830.53 505.468,831.388Z" style="fill:rgb(237,197,157);fill-rule:nonzero;"/>
        </g>
        <g transform="matrix(0.105747,0,0,0.112032,733.551,800.87)">
            <path d="M586.58,818.452L586.58,848.108C586.58,880.748 566.89,908.772 538.734,920.968C528.786,925.263 518.062,927.472 507.226,927.458C463.414,927.458 427.876,891.936 427.876,848.108L427.876,818.452L586.58,818.452Z" style="fill:rgb(237,197,157);fill-rule:nonzero;"/>
        </g>
        <g transform="matrix(0.105747,0,0,0.112032,733.551,800.87)">
            <path d="M586.58,818.452L586.58,848.108C586.58,880.748 566.89,908.772 538.734,920.968C510.586,908.772 490.874,880.748 490.874,848.108L490.874,818.452L586.58,818.452Z" style="fill:rgb(255,220,182);fill-rule:nonzero;"/>
        </g>
        <g transform="matrix(0.105747,0,0,0.112032,733.551,800.87)">
            <path d="M512.64,506.875C462.71,506.875 418.476,505.867 379.296,503.929C124.711,491.303 84.033,439.077 85.711,365.669C87.119,303.881 173.095,240.454 278.758,229.79L746.5,229.79C852.171,240.454 938.139,303.881 939.553,365.669C941.493,450.373 887.007,506.873 512.64,506.873L512.64,506.875Z" style="fill:rgb(186,126,86);fill-rule:nonzero;"/>
        </g>
        <g transform="matrix(0.105747,0,0,0.112032,733.551,800.87)">
            <path d="M379.296,503.919C124.721,491.305 84.017,439.079 85.711,365.673C87.111,303.883 173.079,240.448 278.75,229.792L296.102,229.792C277.304,260.119 266.219,293.797 265.735,327.189C264.571,404.627 283.61,466.627 379.296,503.923L379.296,503.919Z" style="fill:rgb(153,100,65);fill-rule:nonzero;"/>
        </g>
        <g transform="matrix(0.105747,0,0,0.112032,733.551,800.87)">
            <path d="M789.053,334.789C655.014,394.577 492.494,407.257 346.314,372.725C308.148,363.741 271.094,351.515 235.969,336.061L233.055,334.789C233.055,334.789 255.767,183.32 274.594,118.234C285.054,82.086 298.742,56.36 314.672,39.694L314.672,39.68C330.382,23.25 348.226,15.664 367.272,15.664C378.946,15.664 388.828,20.102 399.392,26.264L399.406,26.264C423.5,40.368 451.046,63.524 511.054,63.524C560.554,63.524 587.984,47.758 609.602,34.328L609.602,34.312L609.626,34.312C625.672,24.344 638.524,15.664 654.852,15.664C693.204,15.664 726.734,46.438 747.516,118.234C766.335,183.32 789.055,334.789 789.055,334.789L789.053,334.789Z" style="fill:rgb(153,100,65);fill-rule:nonzero;"/>
        </g>
        <g transform="matrix(0.105747,0,0,0.112032,733.551,800.87)">
            <path d="M511.054,63.524C560.554,63.524 587.984,47.758 609.602,34.328C608.782,36.382 550.296,178.852 484.898,154.554C419.032,130.078 399.39,26.266 399.39,26.266L399.406,26.266C423.5,40.366 451.046,63.524 511.054,63.524ZM346.312,372.725C308.14,363.741 271.092,351.515 235.961,336.061L233.047,334.789C233.047,334.789 255.767,183.32 274.586,118.234C285.046,82.086 298.742,56.36 314.672,39.694C314.016,43.968 273.828,301.813 346.312,372.725Z" style="fill:rgb(132,75,42);fill-rule:nonzero;"/>
        </g>
        <g transform="matrix(0.105747,0,0,0.112032,733.551,800.87)">
            <path d="M609.618,34.312L609.602,34.328L609.602,34.312L609.618,34.312Z" style="fill:rgb(214,200,176);fill-rule:nonzero;"/>
        </g>
        <g transform="matrix(0.105747,0,0,0.112032,733.551,800.87)">
            <path d="M955.203,365.327C953.795,302.553 881.709,241.46 785.789,220.282C778.625,181.304 770.319,140.71 762.553,113.874C735.314,19.76 688.954,0 654.852,0C635.032,0 620.072,9.336 604.226,19.22L601.796,20.734C601.47,20.921 601.152,21.122 600.844,21.336C582.656,32.632 557.71,47.86 511.054,47.86C463.766,47.86 439.39,32.64 417.882,19.21C414.25,16.946 410.822,14.796 407.322,12.75C407.148,12.656 406.976,12.554 406.796,12.46C395.594,5.954 383.032,0 367.274,0C343.164,0 321.656,9.71 303.352,28.86C303.212,29.008 303.072,29.164 302.93,29.32C284.85,48.43 270.258,76.874 259.547,113.882C251.735,140.882 243.377,181.828 236.181,221.022C142.141,242.844 71.461,303.633 70.061,365.313C69.295,398.633 75.257,440.783 128.647,471.205C142.631,479.165 159.459,486.119 179.397,492.119C178.483,496.939 177.999,501.859 177.999,506.869C177.999,545.705 206.203,578.055 243.195,584.579C243.601,654.501 271.014,720.197 320.514,769.718C347.044,796.25 378.224,816.438 412.208,829.524L412.208,848.11C412.208,849.86 412.272,851.602 412.366,853.33L345.208,853.33C345.208,853.33 345.207,853.33 345.206,853.33C336.614,853.33 329.544,860.4 329.544,868.992C329.544,868.993 329.544,868.994 329.544,868.994C329.544,877.586 336.614,884.656 345.206,884.656C345.207,884.656 345.208,884.656 345.208,884.656L367.702,884.656L394.6,992.678L231.587,992.678L231.587,972.358C231.587,935.794 254.611,902.718 288.882,890.044C296.94,887.066 301.121,877.987 298.148,869.928C295.884,863.792 290.003,859.693 283.462,859.693C281.606,859.693 279.765,860.023 278.024,860.668C231.509,877.866 200.259,922.748 200.259,972.358L200.259,1008.34C200.261,1016.93 207.331,1024 215.921,1024L798.543,1024C798.545,1024 798.546,1024 798.547,1024C807.137,1024 814.205,1016.93 814.207,1008.34L814.207,972.358C814.207,906.724 760.809,853.326 695.178,853.326L602.092,853.326C602.186,851.6 602.24,849.858 602.24,848.106L602.24,829.374C700.568,791.318 770.615,696.023 771.271,584.577C808.263,578.053 836.465,545.703 836.465,506.867C836.465,502.867 836.161,498.913 835.575,495.023C846.395,492.093 856.387,488.929 865.529,485.507C873.629,482.475 877.739,473.453 874.709,465.351C871.679,457.249 862.653,453.139 854.551,456.171C791.551,479.741 679.716,491.203 512.638,491.203C463.834,491.203 419.232,490.217 380.078,488.273C263.499,482.499 186.327,468.013 144.155,443.983C112.905,426.179 100.507,403.593 101.375,366.031C101.889,343.561 116.859,319.359 143.539,297.891C166.851,279.131 197.023,264.233 230.155,254.891C223.015,296.271 217.999,329.571 217.561,332.467C216.515,339.448 220.312,346.314 226.781,349.139L229.655,350.399C265.195,366.031 303.234,378.671 342.708,387.967C397.888,401.007 454.772,407.427 511.38,407.427C610.608,407.427 708.952,387.671 795.427,349.093C801.837,346.239 805.581,339.406 804.537,332.467C800.554,306.277 796.306,280.128 791.793,254.023C865.451,274.045 922.879,321.531 923.879,366.039C924.537,394.061 918.239,412.545 902.793,427.899C898.322,432.375 896.975,439.135 899.387,444.983C901.812,450.827 907.546,454.656 913.873,454.655C918.443,454.655 922.553,452.695 925.419,449.577C953.207,421.585 955.731,388.109 955.199,365.327L955.203,365.327ZM209.321,506.859C209.321,504.545 209.493,502.257 209.821,500.007C220.876,502.449 231.998,504.579 243.173,506.397L243.173,552.437C223.611,546.523 209.321,528.335 209.321,506.857L209.321,506.859ZM419.532,884.646C429.468,908.42 448.812,927.302 472.876,936.67L423.648,979.678L399.984,884.646L419.532,884.646ZM507.226,948.256L558.078,992.676L456.382,992.676L507.226,948.256ZM782.881,972.356L782.881,992.676L619.852,992.676L646.75,884.646L695.17,884.646C743.54,884.646 782.881,923.99 782.881,972.358L782.881,972.356ZM614.468,884.646L590.804,979.678L541.578,936.67C565.64,927.302 584.984,908.42 594.93,884.646L614.468,884.646ZM570.922,848.106C570.922,883.226 542.342,911.794 507.226,911.794C472.11,911.794 443.54,883.224 443.54,848.108L443.54,839.358C464.382,844.488 485.77,847.075 507.234,847.06C528.701,847.068 550.088,844.455 570.922,839.28L570.922,848.106ZM805.147,506.859C805.147,528.335 790.859,546.523 771.287,552.437L771.287,508.099C782.543,506.418 793.756,504.456 804.913,502.215C805.061,503.747 805.147,505.295 805.147,506.855L805.147,506.859ZM381.586,519.701L381.586,537.663C381.586,546.254 388.655,553.323 397.246,553.323C405.837,553.323 412.906,546.254 412.906,537.663L412.906,520.975C443.656,521.999 477.046,522.523 512.64,522.523C544.296,522.523 573.89,522.123 601.562,521.335L601.562,537.663C601.562,546.254 608.631,553.323 617.222,553.323C625.813,553.323 632.882,546.254 632.882,537.663L632.882,520.225C672.89,518.531 708.476,515.881 739.968,512.249L739.968,582.999C739.968,711.335 635.562,815.732 507.234,815.732C445.07,815.732 386.626,791.53 342.664,747.568C298.704,703.585 274.492,645.139 274.492,582.999L274.492,510.929C305.046,514.773 339.592,517.631 378.532,519.561L381.586,519.701ZM349.898,357.483C315.274,349.327 281.844,338.491 250.375,325.217C256.125,288.357 274.352,175.438 289.634,122.586C299.008,90.196 311.242,65.954 325.994,50.516C326.118,50.39 326.242,50.256 326.36,50.124C338.6,37.476 351.984,31.32 367.274,31.32C375.336,31.32 382.79,34.704 391.494,39.79C391.64,39.882 391.796,39.97 391.954,40.046C394.922,41.796 398.024,43.734 401.296,45.774C423.876,59.874 454.79,79.18 511.056,79.18C562.756,79.18 592.172,63.594 617.868,47.632C617.96,47.572 618.054,47.516 618.148,47.452L620.812,45.79C634.282,37.39 644.008,31.32 654.86,31.32C697.18,31.32 720.42,80.954 732.468,122.58C747.758,175.43 765.983,288.381 771.741,325.225C644.18,379.045 491.188,390.859 349.898,357.485L349.898,357.483Z" style="fill-rule:nonzero;"/>
        </g>
        <g transform="matrix(0.105747,0,0,0.112032,733.551,800.87)">
            <path d="M446.828,684.171C466.204,691.14 486.642,694.701 507.234,694.695C527.826,694.701 548.264,691.14 567.64,684.171C573.925,681.988 578.164,676.028 578.164,669.375C578.164,660.784 571.094,653.713 562.502,653.713C560.631,653.713 558.776,654.048 557.024,654.703C524.845,666.263 489.623,666.263 457.444,654.703C455.783,654.122 454.035,653.825 452.275,653.825C443.683,653.825 436.613,660.895 436.613,669.487C436.613,676.02 440.701,681.898 446.826,684.171L446.828,684.171Z" style="fill-rule:nonzero;"/>
        </g>
    </g>
    <g transform="matrix(0.922296,0,0,0.858134,-413.51,-680.566)">
        <g transform="matrix(0.135543,0,0,0.120463,523.64,793.076)">
            <path d="M271.594,583.36L269.758,583.36C235.828,583.36 208.328,555.852 208.328,521.93C208.328,488 235.828,460.5 269.758,460.5L755.774,460.5C789.694,460.5 817.204,488 817.204,521.93C817.204,555.85 789.704,583.36 755.774,583.36L753.93,583.36" style="fill:rgb(237,197,157);fill-rule:nonzero;"/>
        </g>
        <g transform="matrix(0.135543,0,0,0.120463,523.64,793.076)">
            <path d="M587.1,873.508L695.226,873.508C750.656,873.508 795.586,918.428 795.586,973.868L795.586,1008.8L229.93,1008.8L229.93,973.868C229.93,918.428 274.86,873.508 330.29,873.508L438.414,873.508" style="fill:rgb(249,200,78);fill-rule:nonzero;"/>
        </g>
        <g transform="matrix(0.135543,0,0,0.120463,523.64,793.076)">
            <path d="M753.93,354.672L753.93,595.844C753.93,729.04 645.96,837.008 512.766,837.008C379.57,837.008 271.594,729.04 271.594,595.844L271.594,354.672" style="fill:rgb(255,220,182);fill-rule:nonzero;"/>
        </g>
        <g transform="matrix(0.135543,0,0,0.120463,523.64,793.076)">
            <path d="M441.796,873.508C386.368,873.508 341.436,918.428 341.436,973.868L341.436,1008.8L229.93,1008.8L229.93,973.868C229.93,918.428 274.86,873.508 330.29,873.508L441.796,873.508Z" style="fill:rgb(247,163,79);fill-rule:nonzero;"/>
        </g>
        <g transform="matrix(0.135543,0,0,0.120463,523.64,793.076)">
            <path d="M511.054,837C445.134,836.554 385.514,809.648 342.234,766.382C298.586,722.718 271.594,662.446 271.594,595.842L271.594,354.674L380.18,354.674L380.18,595.846C380.18,662.446 395.008,722.72 419.008,766.386C442.632,809.346 475.118,836.166 511.054,837.002L511.054,837Z" style="fill:rgb(237,197,157);fill-rule:nonzero;"/>
        </g>
        <g transform="matrix(0.135543,0,0,0.120463,523.64,793.076)">
            <path d="M589.796,824.438L589.796,853.234C589.796,884.922 570.68,912.124 543.352,923.968C533.693,928.141 523.28,930.288 512.758,930.274C470.218,930.274 435.71,895.79 435.71,853.234L435.71,824.44L589.796,824.438Z" style="fill:rgb(237,197,157);fill-rule:nonzero;"/>
        </g>
        <g transform="matrix(0.135543,0,0,0.120463,523.64,793.076)">
            <path d="M589.796,824.438L589.796,853.234C589.796,884.922 570.68,912.124 543.352,923.968C516.024,912.126 496.882,884.922 496.882,853.234L496.882,824.44L589.796,824.438Z" style="fill:rgb(255,220,182);fill-rule:nonzero;"/>
        </g>
        <g transform="matrix(0.135543,0,0,0.120463,523.64,793.076)">
            <path d="M741.376,179.43L512.766,263.812L284.148,179.43C288.158,167.519 293.093,155.939 298.908,144.796C339.172,67.782 419.828,15.204 512.766,15.204C605.704,15.204 686.352,67.782 726.618,144.796C732.435,155.937 737.368,167.517 741.374,179.43L741.376,179.43Z" style="fill:rgb(252,68,95);fill-rule:nonzero;"/>
        </g>
        <g transform="matrix(0.135543,0,0,0.120463,523.64,793.076)">
            <path d="M405.086,179.43L512.766,263.812L284.148,179.43C316.242,83.976 406.484,15.204 512.766,15.204C462.704,15.204 420.186,83.976 405.086,179.43Z" style="fill:rgb(219,14,53);fill-rule:nonzero;"/>
        </g>
        <g transform="matrix(0.135543,0,0,0.120463,523.64,793.076)">
            <path d="M741.376,179.43L512.766,263.812L284.148,179.43C288.158,167.519 293.093,155.939 298.908,144.796L726.618,144.796C732.435,155.937 737.368,167.517 741.374,179.43L741.376,179.43Z" style="fill:rgb(219,14,53);fill-rule:nonzero;"/>
        </g>
        <g transform="matrix(0.135543,0,0,0.120463,523.64,793.076)">
            <path d="M727.148,177.132L298.382,177.132C273.336,177.132 253.032,197.438 253.032,222.484L253.032,305.132C253.032,330.188 273.336,350.492 298.382,350.492L727.148,350.492C752.196,350.492 772.5,330.18 772.5,305.132L772.5,222.484C772.5,197.438 752.196,177.132 727.148,177.132Z" style="fill:rgb(252,68,95);fill-rule:nonzero;"/>
        </g>
        <g transform="matrix(0.135543,0,0,0.120463,523.64,793.076)">
            <path d="M417.274,350.492L298.38,350.492C273.32,350.492 253.03,330.196 253.03,305.14L253.03,222.5C253.03,197.438 273.318,177.148 298.38,177.148L417.272,177.148C392.232,177.148 371.92,197.438 371.92,222.5L371.92,305.14C371.92,330.196 392.232,350.492 417.272,350.492L417.274,350.492Z" style="fill:rgb(219,14,53);fill-rule:nonzero;"/>
        </g>
        <g transform="matrix(0.135543,0,0,0.120463,523.64,793.076)">
            <path d="M605.008,835.04C700.476,798.1 768.484,705.58 769.118,597.374C805.032,591.04 832.406,559.624 832.406,521.93C832.406,484.226 805.046,452.83 769.14,446.484L769.14,348.71C780.58,337.688 787.71,322.234 787.71,305.14L787.71,222.492C787.71,198.5 773.688,177.718 753.406,167.922C716.44,67.2 620.648,0 512.766,0C404.882,0 309.086,67.204 272.126,167.92C251.844,177.72 237.82,198.5 237.82,222.484L237.82,305.132C237.82,322.234 244.954,337.688 256.39,348.712L256.39,446.484C220.484,452.828 193.118,484.234 193.118,521.93C193.118,559.626 220.492,591.04 256.406,597.374C257.046,705.57 325.046,798.094 420.506,835.032L420.506,853.226C420.506,854.93 420.562,856.618 420.656,858.296L330.296,858.296C266.57,858.296 214.726,910.14 214.726,973.86L214.726,1008.8C214.726,1017.2 221.54,1024 229.938,1024L340.938,1024C340.939,1024 340.939,1024 340.94,1024C349.278,1024 356.14,1017.14 356.14,1008.8C356.14,1008.8 356.14,1008.8 356.14,1008.8C356.14,1000.4 349.336,993.586 340.938,993.586L245.14,993.586L245.14,973.86C245.14,926.906 283.336,888.71 330.296,888.71L427.616,888.71C441.546,922.016 474.46,945.476 512.756,945.476C551.056,945.476 583.968,922.016 597.898,888.71L695.234,888.71C742.188,888.71 780.382,926.906 780.382,973.86L780.382,993.586L401.76,993.586C393.418,993.588 386.555,1000.45 386.556,1008.8C386.556,1008.8 386.556,1008.8 386.556,1008.8C386.556,1017.14 393.418,1024 401.756,1024C401.757,1024 401.759,1024 401.76,1024L795.588,1024C795.591,1024 795.593,1024 795.596,1024C803.936,1024 810.798,1017.14 810.798,1008.8C810.798,1008.8 810.798,1008.8 810.798,1008.8L810.798,973.86C810.798,910.14 758.956,858.296 695.238,858.296L604.86,858.296C604.954,856.616 605.008,854.93 605.008,853.226L605.008,835.04ZM801.992,521.93C801.992,542.766 788.124,560.422 769.14,566.17L769.14,477.68C788.132,483.43 801.992,501.086 801.992,521.93ZM268.234,222.492C268.234,205.868 281.758,192.344 298.382,192.344L623.016,192.344C623.074,192.345 623.132,192.345 623.19,192.345C631.533,192.345 638.398,185.48 638.398,177.137C638.398,168.794 631.533,161.929 623.19,161.929C623.132,161.929 623.074,161.929 623.016,161.93L307.46,161.93C343.968,82.39 423.688,30.414 512.766,30.414C601.836,30.414 681.554,82.39 718.07,161.93L683.844,161.93C683.843,161.93 683.841,161.93 683.84,161.93C675.502,161.93 668.64,168.792 668.64,177.13L668.64,177.136C668.64,185.474 675.502,192.336 683.84,192.336C683.841,192.336 683.843,192.336 683.844,192.336L727.14,192.336C743.766,192.336 757.296,205.868 757.296,222.484L757.296,305.132C757.296,321.758 743.766,335.29 727.14,335.29L298.382,335.29C281.758,335.29 268.234,321.758 268.234,305.132L268.234,222.492ZM223.532,521.93C223.532,501.086 237.398,483.43 256.392,477.68L256.392,566.172C237.398,560.422 223.532,542.766 223.532,521.93ZM286.804,595.844L286.804,364.578C290.554,365.304 294.422,365.696 298.384,365.696L727.14,365.696C731.11,365.696 734.976,365.304 738.726,364.578L738.726,595.844C738.726,720.438 637.36,821.804 512.766,821.804C388.172,821.804 286.806,720.438 286.806,595.844L286.804,595.844ZM512.76,915.07C478.66,915.07 450.924,887.33 450.924,853.234L450.924,844.656C471.154,849.687 491.922,852.226 512.768,852.218C534.08,852.218 554.784,849.586 574.596,844.664L574.596,853.234C574.596,887.328 546.854,915.07 512.76,915.07Z" style="fill-rule:nonzero;"/>
        </g>
        <g transform="matrix(0.135543,0,0,-0.120463,523.64,965.304)">
            <path d="M561.1,733.82C562.804,734.43 564.546,734.72 566.258,734.72C572.484,734.72 578.336,730.868 580.562,724.664C581.157,723.012 581.461,721.269 581.461,719.513C581.461,713.117 577.424,707.375 571.406,705.21C533.594,691.594 491.938,691.594 454.118,705.21C448.102,707.374 444.066,713.114 444.066,719.507C444.066,721.265 444.371,723.01 444.968,724.664C447.133,730.682 452.875,734.719 459.271,734.719C461.027,734.719 462.77,734.415 464.422,733.82C495.664,722.596 529.86,722.596 561.102,733.82L561.1,733.82Z" style="fill-rule:nonzero;"/>
        </g>
        <g transform="matrix(0.135543,0,0,0.120463,523.64,793.076)">
            <path d="M619.546,556.89C627.946,556.89 634.75,550.078 634.75,541.68L634.75,487.204C634.75,487.203 634.75,487.201 634.75,487.2C634.75,478.862 627.888,472 619.55,472L619.544,472C611.206,472 604.344,478.862 604.344,487.2C604.344,487.201 604.344,487.203 604.344,487.204L604.344,541.68C604.344,550.08 611.148,556.89 619.546,556.89Z" style="fill-rule:nonzero;"/>
        </g>
        <g transform="matrix(0.135543,0,0,0.120463,523.64,793.076)">
            <path d="M405.984,472C397.642,471.999 390.776,478.862 390.774,487.204L390.774,541.68C390.869,549.956 397.704,556.714 405.981,556.714C414.258,556.714 421.093,549.956 421.188,541.68L421.188,487.204C421.188,487.203 421.188,487.201 421.188,487.2C421.188,478.862 414.326,472 405.988,472C405.987,472 405.985,472 405.984,472Z" style="fill-rule:nonzero;"/>
        </g>
    </g>
    <g transform="matrix(0.988734,0,0,0.919951,-469.367,-735.217)">
        <g transform="matrix(0.103431,0,0,0.105576,829.136,806.147)">
            <path d="M695.234,873.5L330.296,873.5C99.656,873.5 91.36,701.54 91.36,676.796C91.36,674.876 91.4,673.844 91.4,673.844C153.804,673.844 204.39,623.258 204.39,560.852L204.39,323.578C204.39,153.274 342.46,15.204 512.766,15.204C683.07,15.204 821.14,153.274 821.14,323.578L821.14,560.852C821.14,592.054 833.79,620.296 854.226,640.75C874.68,661.188 902.946,673.844 934.148,673.844C934.148,673.844 943.758,873.5 695.234,873.5Z" style="fill:rgb(62,76,86);fill-rule:nonzero;"/>
        </g>
        <g transform="matrix(0.103431,0,0,0.105576,829.136,806.147)">
            <path d="M347.672,488.9C414.984,627.96 455.368,777.054 476.836,873.5L330.296,873.5C99.656,873.5 91.36,701.54 91.36,676.796C91.36,674.876 91.4,673.844 91.4,673.844C153.804,673.844 204.39,623.258 204.39,560.852L204.39,323.578C204.39,153.274 342.46,15.204 512.766,15.204C403.164,15.204 236.078,258.296 347.672,488.898L347.672,488.9Z" style="fill:rgb(33,44,51);fill-rule:nonzero;"/>
        </g>
        <g transform="matrix(0.103431,0,0,0.105576,829.136,806.147)">
            <path d="M753.93,420.21L753.93,595.844C753.93,729.032 645.97,837.008 512.766,837.008C511.992,837.008 511.204,837.008 510.43,836.992C444.766,836.382 385.382,809.516 342.234,766.376C298.61,722.718 271.602,662.43 271.602,595.844L271.602,428.132C312.132,428.132 348.218,423.976 380.172,417.024C538.632,382.64 596.032,280.172 596.032,280.172C596.032,280.172 630.64,403.804 753.93,420.212L753.93,420.21Z" style="fill:rgb(255,220,182);fill-rule:nonzero;"/>
        </g>
        <g transform="matrix(0.103431,0,0,0.105576,829.136,806.147)">
            <path d="M587.1,873.508L695.226,873.508C750.656,873.508 795.586,918.428 795.586,973.868L795.586,1008.8L229.93,1008.8L229.93,973.868C229.93,918.428 274.86,873.508 330.29,873.508L438.414,873.508" style="fill:rgb(252,68,95);fill-rule:nonzero;"/>
        </g>
        <g transform="matrix(0.103431,0,0,0.105576,829.136,806.147)">
            <path d="M441.796,873.508C386.368,873.508 341.436,918.428 341.436,973.868L341.436,1008.8L229.93,1008.8L229.93,973.868C229.93,918.428 274.86,873.508 330.29,873.508L441.796,873.508Z" style="fill:rgb(219,14,53);fill-rule:nonzero;"/>
        </g>
        <g transform="matrix(0.103431,0,0,0.105576,829.136,806.147)">
            <path d="M510.43,836.992C444.766,836.382 385.382,809.516 342.234,766.376C298.61,722.718 271.602,662.43 271.602,595.844L271.602,428.132C312.132,428.132 348.218,423.976 380.172,417.024L380.172,595.844C380.172,662.444 395.008,722.718 419.016,766.374C442.492,809.094 474.726,835.852 510.43,836.994L510.43,836.992Z" style="fill:rgb(237,197,157);fill-rule:nonzero;"/>
        </g>
        <g transform="matrix(0.103431,0,0,0.105576,829.136,806.147)">
            <path d="M589.804,824.438L589.804,853.234C589.804,884.922 570.68,912.124 543.352,923.968C533.693,928.141 523.28,930.288 512.758,930.274C470.226,930.274 435.718,895.79 435.718,853.234L435.718,824.44L589.804,824.438Z" style="fill:rgb(237,197,157);fill-rule:nonzero;"/>
        </g>
        <g transform="matrix(0.103431,0,0,0.105576,829.136,806.147)">
            <path d="M589.804,824.438L589.804,853.234C589.804,884.922 570.68,912.124 543.352,923.968C516.024,912.126 496.882,884.922 496.882,853.234L496.882,824.44L589.804,824.438Z" style="fill:rgb(255,220,182);fill-rule:nonzero;"/>
        </g>
        <g transform="matrix(0.103431,0,0,0.105576,829.136,806.147)">
            <path d="M766.11,882.68C819.226,872.96 861.868,851.484 893.33,818.468C952.618,756.258 949.492,676.476 949.336,673.108C948.949,665.051 942.214,658.632 934.148,658.632C908.024,658.632 883.46,648.46 864.984,630C846.516,611.516 836.344,586.96 836.344,560.852L836.344,323.578C836.344,145.16 691.188,0 512.764,0C429.82,0 350.944,31.352 290.664,88.266C287.741,91.126 286.092,95.047 286.092,99.136C286.092,107.479 292.957,114.344 301.3,114.344C305.087,114.344 308.74,112.93 311.54,110.38C366.156,58.81 437.618,30.412 512.766,30.412C674.422,30.412 805.938,161.92 805.938,323.576L805.938,560.85C805.938,595.076 819.266,627.27 843.484,651.506C863.968,671.974 890.156,684.67 918.454,688.1C916.554,711.14 908.032,759.154 871.04,797.78C832.57,837.936 773.42,858.294 695.234,858.294L604.86,858.294C604.954,856.614 605.008,854.928 605.008,853.224L605.008,835.038C700.922,797.918 769.132,704.702 769.132,595.842L769.132,420.64C769.14,420.414 769.14,420.18 769.14,419.954C769.016,412.46 763.368,406.12 755.938,405.134C709.422,398.938 670.968,375.648 641.64,335.89C619.196,305.476 610.75,276.336 610.68,276.07C609.018,270.173 603.95,265.831 597.868,265.094C591.782,264.363 585.821,267.367 582.788,272.694C582.586,273.046 562.288,308.21 514.078,342.844C469.578,374.812 391.382,412.922 271.602,412.922C271.599,412.922 271.595,412.922 271.592,412.922C263.252,412.922 256.39,419.784 256.39,428.124L256.39,595.836C256.39,664.296 283.062,728.672 331.484,777.116C357.234,802.876 387.508,822.468 420.508,835.18L420.508,853.22C420.508,854.92 420.562,856.61 420.656,858.29L330.296,858.29C238.648,858.29 173.602,830.586 136.968,775.954C114.516,742.468 108.602,706.656 107.078,688.086C170.398,680.336 219.594,626.226 219.594,560.844L219.594,323.578C219.594,262.148 238.382,203.344 273.922,153.532C278.766,146.741 277.166,137.167 270.376,132.32C263.546,127.446 254.046,129.032 249.164,135.868C209.93,190.868 189.188,255.782 189.188,323.578L189.188,560.852C189.188,614.766 145.32,658.632 91.398,658.632C83.25,658.632 76.538,665.11 76.21,673.258C76.21,673.258 76.156,674.492 76.156,676.798C76.156,691.594 78.718,743.704 111.71,792.898C130.796,821.358 156.766,843.89 188.89,859.858C209.804,870.258 233.422,877.852 259.476,882.632C232.282,903.796 214.736,936.804 214.736,973.86L214.736,1008.8C214.736,1008.8 214.736,1008.8 214.736,1008.8C214.736,1017.14 221.598,1024 229.936,1024L658.094,1024C658.095,1024 658.095,1024 658.096,1024C666.434,1024 673.296,1017.14 673.296,1008.8C673.296,1008.8 673.296,1008.8 673.296,1008.8C673.296,1000.4 666.492,993.586 658.094,993.586L245.14,993.586L245.14,973.86C245.14,926.906 283.344,888.71 330.296,888.71L427.616,888.71C441.546,922.016 474.46,945.476 512.756,945.476C551.056,945.476 583.968,922.016 597.898,888.71L695.234,888.71C742.188,888.71 780.382,926.906 780.382,973.86L780.382,993.586L718.914,993.586C710.572,993.588 703.709,1000.45 703.71,1008.8C703.71,1008.8 703.71,1008.8 703.71,1008.8C703.71,1017.14 710.572,1024 718.91,1024C718.911,1024 718.913,1024 718.914,1024L795.594,1024C795.595,1024 795.595,1024 795.596,1024C803.934,1024 810.796,1017.14 810.796,1008.8C810.796,1008.8 810.796,1008.8 810.796,1008.8L810.796,973.86C810.796,936.836 793.274,903.844 766.11,882.68ZM286.804,595.844L286.804,443.14C407.156,440.016 486.984,400.132 533.336,366.454C560.742,346.546 579.876,326.578 592.086,311.71C597.626,323.54 605.562,338.07 616.468,353.008C647.688,395.766 689.75,423.25 738.728,433.078L738.728,595.844C738.728,720.438 637.36,821.804 512.766,821.804C452.406,821.804 395.664,798.304 352.992,755.624C310.312,712.922 286.804,656.18 286.804,595.844ZM512.76,915.07C478.666,915.07 450.924,887.33 450.924,853.234L450.924,844.742C471.161,849.722 491.927,852.232 512.768,852.218C533.608,852.225 554.371,849.688 574.596,844.664L574.596,853.234C574.596,887.328 546.854,915.07 512.76,915.07Z" style="fill-rule:nonzero;"/>
        </g>
        <g transform="matrix(0.103431,0,0,-0.105576,829.136,957.099)">
            <path d="M561.11,733.82C562.703,734.368 564.375,734.648 566.06,734.648C574.401,734.648 581.266,727.784 581.266,719.442C581.266,713.124 577.328,707.435 571.414,705.21C533.51,691.596 492.022,691.596 454.118,705.21C447.996,707.317 443.862,713.114 443.862,719.588C443.862,727.93 450.726,734.794 459.068,734.794C460.896,734.794 462.71,734.464 464.422,733.82C495.667,722.596 529.865,722.596 561.11,733.82Z" style="fill-rule:nonzero;"/>
        </g>
        <g transform="matrix(0.103431,0,0,0.105576,829.136,806.147)">
            <path d="M619.546,556.89C627.946,556.89 634.75,550.078 634.75,541.68L634.75,487.204C634.75,487.203 634.75,487.201 634.75,487.2C634.75,478.862 627.888,472 619.55,472L619.544,472C611.206,472 604.344,478.862 604.344,487.2C604.344,487.201 604.344,487.203 604.344,487.204L604.344,541.68C604.344,550.08 611.148,556.89 619.546,556.89Z" style="fill-rule:nonzero;"/>
        </g>
        <g transform="matrix(0.103431,0,0,0.105576,829.136,806.147)">
            <path d="M405.988,472L405.982,472C397.644,472 390.782,478.862 390.782,487.2C390.782,487.201 390.782,487.203 390.782,487.204L390.782,541.68C390.782,550.08 397.586,556.89 405.984,556.89C414.384,556.89 421.188,550.078 421.188,541.68L421.188,487.204C421.188,487.203 421.188,487.201 421.188,487.2C421.188,478.862 414.326,472 405.988,472Z" style="fill-rule:nonzero;"/>
        </g>
    </g>
    <g transform="matrix(0.922296,0,0,0.858134,-413.757,-679.432)">
        <g transform="matrix(0.123373,0,0,-0.119949,441.326,959.748)">
            <path d="M561.11,733.82C562.703,734.368 564.375,734.648 566.06,734.648C574.401,734.648 581.266,727.784 581.266,719.442C581.266,713.124 577.328,707.435 571.414,705.21C533.51,691.596 492.022,691.596 454.118,705.21C447.996,707.317 443.862,713.114 443.862,719.588C443.862,727.93 450.726,734.794 459.068,734.794C460.896,734.794 462.71,734.464 464.422,733.82C495.667,722.596 529.865,722.596 561.11,733.82Z" style="fill-rule:nonzero;"/>
        </g>
        <g transform="matrix(0.13772,0,0,0.129441,448.616,795.221)">
            <path d="M161.413,476.412L159.569,476.412C125.639,476.412 98.131,448.904 98.131,414.974C98.131,381.044 125.639,353.539 159.571,353.539L645.652,353.539C679.581,353.539 707.089,381.044 707.089,414.974C707.089,448.904 679.581,476.412 645.652,476.412L643.808,476.412" style="fill:rgb(237,197,157);fill-rule:nonzero;"/>
        </g>
        <g transform="matrix(0.13772,0,0,0.129441,448.616,795.221)">
            <path d="M476.957,766.596L585.096,766.596C640.536,766.596 685.463,811.535 685.463,866.971L691.544,906.509L116.976,912.902L119.741,866.971C119.741,811.535 164.671,766.598 220.108,766.598L328.248,766.598" style="fill:rgb(252,68,95);fill-rule:nonzero;"/>
        </g>
        <g transform="matrix(0.13772,0,0,0.129441,448.616,795.221)">
            <path d="M643.808,247.703L643.808,488.904C643.808,622.115 535.816,730.106 402.607,730.106C269.396,730.106 161.413,622.115 161.413,488.904L161.413,247.703" style="fill:rgb(255,220,182);fill-rule:nonzero;"/>
        </g>
        <g transform="matrix(0.13772,0,0,0.129441,448.616,795.221)">
            <path d="M331.63,766.596C276.194,766.596 231.264,811.535 231.264,866.971L232.896,910.334L120.217,912.455L119.739,866.971C119.739,811.535 164.669,766.598 220.106,766.598L331.63,766.596Z" style="fill:rgb(219,14,53);fill-rule:nonzero;"/>
        </g>
        <g transform="matrix(0.13772,0,0,0.129441,448.616,795.221)">
            <path d="M400.897,730.09C334.966,729.644 275.35,702.738 232.052,659.464C188.405,615.801 161.413,555.513 161.413,488.906L161.413,247.693L270.006,247.693L270.006,488.902C270.006,555.511 284.834,615.801 308.842,659.462C332.466,702.432 364.952,729.252 400.895,730.088L400.897,730.09Z" style="fill:rgb(237,197,157);fill-rule:nonzero;"/>
        </g>
        <g transform="matrix(0.13772,0,0,0.129441,448.616,795.221)">
            <path d="M479.653,717.528L479.653,746.324C479.653,778.012 460.537,805.229 433.201,817.065C423.543,821.241 413.129,823.389 402.607,823.377C360.06,823.377 325.552,788.886 325.552,746.324L325.552,717.528L479.653,717.528Z" style="fill:rgb(237,197,157);fill-rule:nonzero;"/>
        </g>
        <g transform="matrix(0.13772,0,0,0.129441,448.616,795.221)">
            <path d="M479.653,717.528L479.653,746.324C479.653,778.012 460.537,805.229 433.201,817.065C405.865,805.229 386.723,778.012 386.723,746.326L386.723,717.526L479.653,717.528Z" style="fill:rgb(255,220,182);fill-rule:nonzero;"/>
        </g>
        <g transform="matrix(0.13772,0,0,0.129441,448.616,795.221)">
            <path d="M15.21,15.211L566.864,15.211C625.832,15.211 625.238,63.009 625.238,121.976L625.238,247.703L235.146,247.703C113.679,247.703 15.21,149.234 15.21,27.775L15.21,15.211Z" style="fill:rgb(62,76,86);fill-rule:nonzero;"/>
        </g>
        <g transform="matrix(0.13772,0,0,0.129441,448.616,795.221)">
            <path d="M424.185,247.703L235.146,247.703C113.663,247.703 15.204,149.244 15.204,27.783L15.204,15.211L204.263,15.211L204.263,27.783C204.263,149.242 302.732,247.701 424.185,247.701L424.185,247.703Z" style="fill:rgb(33,44,51);fill-rule:nonzero;"/>
        </g>
        <g transform="matrix(0.13772,0,0,0.129441,448.616,795.221)">
            <path d="M509.403,365.039C501.061,365.042 494.2,371.907 494.201,380.248L494.201,434.732C494.2,434.79 494.2,434.848 494.2,434.906C494.2,443.249 501.065,450.114 509.408,450.114C517.75,450.114 524.615,443.249 524.615,434.906C524.615,434.848 524.615,434.79 524.614,434.732L524.614,380.248C524.614,371.848 517.8,365.039 509.403,365.039Z" style="fill:rgb(33,44,51);fill-rule:nonzero;"/>
        </g>
        <g transform="matrix(0.13772,0,0,0.129441,448.616,795.221)">
            <path d="M295.81,365.039C287.469,365.042 280.607,371.907 280.608,380.248L280.608,434.732C280.607,434.79 280.607,434.848 280.607,434.906C280.607,443.249 287.472,450.114 295.815,450.114C304.158,450.114 311.023,443.249 311.023,434.906C311.023,434.848 311.023,434.79 311.022,434.732L311.022,380.248C311.022,371.848 304.208,365.039 295.81,365.039Z" style="fill:rgb(33,44,51);fill-rule:nonzero;"/>
        </g>
        <g transform="matrix(0.13772,0,0,0.129441,448.616,795.221)">
            <path d="M649.323,492.36C649.323,492.36 647.246,13.969 630.122,35.665C619.096,11.993 597.846,0.001 566.872,0.001L160.819,0.001C152.543,0.096 145.785,6.931 145.785,15.208C145.785,23.485 152.543,30.32 160.819,30.415L566.87,30.415C592.214,30.415 599.574,40.485 603.754,51.361C610.042,67.711 610.034,232.499 610.034,232.499L235.158,232.499C123.141,232.499 31.854,142.086 30.432,30.415L99.985,30.415C100.043,30.415 100.102,30.416 100.16,30.416C108.503,30.416 115.368,23.551 115.368,15.208C115.368,6.865 108.503,0 100.16,0C100.102,0 100.043,0 99.985,0.001L15.21,0.001C6.867,0.003 0.002,6.868 -0,15.211L0,27.783C0,126.04 60.594,210.398 146.375,245.499C146.273,246.219 146.195,246.953 146.195,247.703L146.195,339.523C110.295,345.873 82.921,377.28 82.921,414.974C82.921,452.686 110.303,484.092 146.217,490.434C146.609,558.349 173.233,622.137 221.296,670.206C247.06,695.966 277.334,715.566 310.342,728.278L310.342,746.324C310.342,748.028 310.396,749.706 310.49,751.386L220.118,751.386C156.383,751.386 104.539,803.238 104.539,866.971L104.539,903.847C104.688,892.983 104.557,915.34 104.554,923.684L700.088,926.19C700.088,917.792 700.646,910.371 700.675,903.845L700.675,866.961C700.675,848.969 696.659,831.751 688.745,815.781C685.041,808.309 675.845,805.207 668.371,808.907C660.899,812.616 657.797,821.812 661.495,829.289C667.307,841.025 670.253,853.697 670.253,866.961L670.253,903.845L134.953,903.845L134.953,866.961C134.953,820.001 173.155,781.798 220.116,781.798L317.452,781.798C331.38,815.111 364.294,838.579 402.607,838.579C440.911,838.579 473.827,815.111 487.755,781.8L585.098,781.8C599.286,781.8 613.324,785.354 625.692,792.064C633.025,796.044 642.335,793.286 646.318,785.954C650.318,778.574 647.582,769.338 640.198,765.338C623.394,756.212 604.332,751.384 585.09,751.384L494.715,751.384C494.809,749.712 494.865,748.024 494.865,746.324L494.865,728.118C590.34,691.174 648.683,600.569 649.323,492.36C639.22,551.6 653.06,493.2 649.323,492.36ZM113.341,414.974C113.341,394.13 127.209,376.474 146.195,370.724L146.195,459.224C127.209,453.474 113.343,435.818 113.343,414.974L113.341,414.974ZM464.451,746.324C464.451,780.424 436.707,808.167 402.607,808.167C368.497,808.167 340.756,780.426 340.756,746.324L340.756,737.832C360.993,742.811 381.759,745.322 402.599,745.308C423.919,745.308 444.629,742.676 464.451,737.746L464.451,746.324ZM402.597,714.886C342.238,714.886 285.488,691.378 242.8,648.701C200.121,606.013 176.615,549.261 176.615,488.896L176.615,255.539C195.74,260.449 215.409,262.927 235.154,262.915L610.032,262.915L610.032,320.525C610.011,340.646 616.525,360.24 628.588,376.344L628.588,488.906C628.588,613.515 527.204,714.888 402.597,714.888L402.597,714.886Z" style="fill:rgb(33,44,51);fill-rule:nonzero;"/>
        </g>
        <g transform="matrix(0.13772,0,0,0.129441,448.616,795.221)">
            <path d="M649.323,492.36C649.323,492.36 647.246,13.969 630.122,35.665C619.096,11.993 597.846,0.001 566.872,0.001L160.819,0.001C152.543,0.096 145.785,6.931 145.785,15.208C145.785,23.485 152.543,30.32 160.819,30.415L566.87,30.415C592.214,30.415 599.574,40.485 603.754,51.361C610.042,67.711 610.034,232.499 610.034,232.499L235.158,232.499C123.141,232.499 31.854,142.086 30.432,30.415L99.985,30.415C100.043,30.415 100.102,30.416 100.16,30.416C108.503,30.416 115.368,23.551 115.368,15.208C115.368,6.865 108.503,0 100.16,0C100.102,0 100.043,0 99.985,0.001L15.21,0.001C6.867,0.003 0.002,6.868 -0,15.211L0,27.783C0,126.04 60.594,210.398 146.375,245.499C146.273,246.219 146.195,246.953 146.195,247.703L146.195,339.523C110.295,345.873 82.921,377.28 82.921,414.974C82.921,452.686 110.303,484.092 146.217,490.434C146.609,558.349 173.233,622.137 221.296,670.206C247.06,695.966 277.334,715.566 310.342,728.278L310.342,746.324C310.342,748.028 310.396,749.706 310.49,751.386L220.118,751.386C156.383,751.386 104.539,803.238 104.539,866.971L104.539,903.847C104.688,892.983 104.557,915.34 104.554,923.684L700.088,926.19C700.088,917.792 700.646,910.371 700.675,903.845L700.675,866.961C700.675,848.969 696.659,831.751 688.745,815.781C685.041,808.309 675.845,805.207 668.371,808.907C660.899,812.616 657.797,821.812 661.495,829.289C667.307,841.025 670.253,853.697 670.253,866.961L670.253,903.845L134.953,903.845L134.953,866.961C134.953,820.001 173.155,781.798 220.116,781.798L317.452,781.798C331.38,815.111 364.294,838.579 402.607,838.579C440.911,838.579 473.827,815.111 487.755,781.8L585.098,781.8C599.286,781.8 613.324,785.354 625.692,792.064C633.025,796.044 642.335,793.286 646.318,785.954C650.318,778.574 647.582,769.338 640.198,765.338C623.394,756.212 604.332,751.384 585.09,751.384L494.715,751.384C494.809,749.712 494.865,748.024 494.865,746.324L494.865,728.118C590.34,691.174 648.683,600.569 649.323,492.36C639.22,551.6 653.06,493.2 649.323,492.36ZM113.341,414.974C113.341,394.13 127.209,376.474 146.195,370.724L146.195,459.224C127.209,453.474 113.343,435.818 113.343,414.974L113.341,414.974ZM464.451,746.324C464.451,780.424 436.707,808.167 402.607,808.167C368.497,808.167 340.756,780.426 340.756,746.324L340.756,737.832C360.993,742.811 381.759,745.322 402.599,745.308C423.919,745.308 444.629,742.676 464.451,737.746L464.451,746.324ZM402.597,714.886C342.238,714.886 285.488,691.378 242.8,648.701C200.121,606.013 176.615,549.261 176.615,488.896L176.615,255.539C195.74,260.449 215.409,262.927 235.154,262.915L610.032,262.915L610.032,320.525C610.011,340.646 616.525,360.24 628.588,376.344L628.588,488.906C628.588,613.515 527.204,714.888 402.597,714.888L402.597,714.886Z" style="fill:rgb(33,44,51);fill-rule:nonzero;"/>
        </g>
        <g transform="matrix(-0.13772,0,0,0.129441,557.918,795.616)">
            <path d="M146.217,490.434C146.609,558.349 146.195,339.523 146.195,339.523C110.295,345.873 82.921,377.28 82.921,414.974C82.921,452.686 110.303,484.092 146.217,490.434ZM113.341,414.974C113.341,394.13 127.209,376.474 146.195,370.724L146.195,459.224C127.209,453.474 113.343,435.818 113.343,414.974L113.341,414.974Z" style="fill:rgb(33,44,51);fill-rule:nonzero;"/>
        </g>
        <g transform="matrix(0.111465,0,0,0.115985,447.376,795.31)">
            <path d="M446.828,684.171C466.204,691.14 486.642,694.701 507.234,694.695C527.826,694.701 548.264,691.14 567.64,684.171C573.925,681.988 578.164,676.028 578.164,669.375C578.164,660.784 571.094,653.713 562.502,653.713C560.631,653.713 558.776,654.048 557.024,654.703C524.845,666.263 489.623,666.263 457.444,654.703C455.783,654.122 454.035,653.825 452.275,653.825C443.683,653.825 436.613,660.895 436.613,669.487C436.613,676.02 440.701,681.898 446.826,684.171L446.828,684.171Z" style="fill-rule:nonzero;"/>
        </g>
    </g>
    <g transform="matrix(-0.000560001,0.212808,-0.417336,-0.000977476,424.698,10.5006)">
        <path d="M475.392,900.421L475.392,893.474L648.63,893.474L648.63,883.053L675.879,896.948L648.63,910.842L648.63,900.421L475.392,900.421Z"/>
    </g>
    <g transform="matrix(-0.000560001,0.212808,-0.417336,-0.000977476,600.215,10.9826)">
        <path d="M475.392,900.421L475.392,893.474L648.63,893.474L648.63,883.053L675.879,896.948L648.63,910.842L648.63,900.421L475.392,900.421Z"/>
    </g>
    <g transform="matrix(-0.000560001,0.212808,-0.417336,-0.000977476,509.63,11.3832)">
        <path d="M475.392,900.421L475.392,893.474L648.63,893.474L648.63,883.053L675.879,896.948L648.63,910.842L648.63,900.421L475.392,900.421Z"/>
    </g>
    <g transform="matrix(-0.000560001,0.212808,-0.417336,-0.000977476,685.146,11.8652)">
        <path d="M475.392,900.421L475.392,893.474L648.63,893.474L648.63,883.053L675.879,896.948L648.63,910.842L648.63,900.421L475.392,900.421Z"/>
    </g>
    <g transform="matrix(-0.000560001,0.212808,-0.417336,-0.000977476,777.704,10.9101)">
        <path d="M475.392,900.421L475.392,893.474L648.63,893.474L648.63,883.053L675.879,896.948L648.63,910.842L648.63,900.421L475.392,900.421Z"/>
    </g>
    <g transform="matrix(0.909591,0,0,0.858134,-458.167,-497.068)">
        <text x="568.816px" y="741.505px" style="font-family:'ArialMT', 'Arial', sans-serif;font-size:28.486px;">1</text>
    </g>
    <g transform="matrix(0.909591,0,0,0.858134,-461.228,-502.998)">
        <text x="663.37px" y="747.01px" style="font-family:'ArialMT', 'Arial', sans-serif;font-size:28.486px;">2</text>
    </g>
    <g transform="matrix(0.909591,0,0,0.858134,-463.696,-504.107)">
        <text x="767.025px" y="746.593px" style="font-family:'ArialMT', 'Arial', sans-serif;font-size:28.486px;">3</text>
    </g>
    <g transform="matrix(0.909591,0,0,0.858134,-462.351,-497.482)">
        <text x="861.692px" y="739.671px" style="font-family:'ArialMT', 'Arial', sans-serif;font-size:28.486px;">4</text>
    </g>
    <g transform="matrix(0.909591,0,0,0.858134,-464.504,-498.728)">
        <text x="962.346px" y="739.739px" style="font-family:'ArialMT', 'Arial', sans-serif;font-size:28.486px;">5</text>
    </g>
</svg>
