<?xml version="1.0" encoding="UTF-8" standalone="no"?>
<!DOCTYPE svg PUBLIC "-//W3C//DTD SVG 1.1//EN" "http://www.w3.org/Graphics/SVG/1.1/DTD/svg11.dtd">
<svg width="100%" height="100%" viewBox="0 0 987 619" version="1.1" xmlns="http://www.w3.org/2000/svg" xmlns:xlink="http://www.w3.org/1999/xlink" xml:space="preserve" xmlns:serif="http://www.serif.com/" style="fill-rule:evenodd;clip-rule:evenodd;stroke-linecap:round;stroke-linejoin:round;stroke-miterlimit:1.5;">
    <g transform="matrix(0.442561,0,0,0.417749,-12.3007,123.064)">
        <rect x="324.754" y="731.429" width="163.84" height="70.217" style="fill:rgb(126,132,149);fill-rule:nonzero;"/>
    </g>
    <g transform="matrix(0.442561,0,0,0.417749,-12.3007,123.064)">
        <path d="M488.594,811.886L324.754,811.886C318.903,811.886 314.514,807.497 314.514,801.646L314.514,731.429C314.514,725.577 318.903,721.189 324.754,721.189L488.594,721.189C494.446,721.189 498.834,725.577 498.834,731.429L498.834,801.646C498.834,807.497 492.983,811.886 488.594,811.886ZM334.994,791.406L478.354,791.406L478.354,741.669L334.994,741.669L334.994,791.406Z" style="fill:rgb(20,21,21);fill-rule:nonzero;"/>
    </g>
    <g transform="matrix(0.442561,0,0,0.417749,-12.3007,123.064)">
        <path d="M406.674,797.257C400.823,797.257 396.434,792.869 396.434,787.017L396.434,732.891C396.434,727.04 400.823,722.651 406.674,722.651C412.526,722.651 416.914,727.04 416.914,732.891L416.914,787.017C416.914,792.869 412.526,797.257 406.674,797.257Z" style="fill:rgb(20,21,21);fill-rule:nonzero;"/>
    </g>
    <g transform="matrix(0.442561,0,0,0.417749,-12.3007,123.064)">
        <path d="M182.857,498.834L267.703,498.834L285.257,409.6C292.571,375.954 323.291,346.697 358.4,345.234L427.154,345.234L427.154,672.914L95.086,672.914L95.086,585.143C95.086,538.331 134.583,498.834 182.857,498.834Z" style="fill:rgb(113,164,74);fill-rule:nonzero;"/>
    </g>
    <g transform="matrix(0.442561,0,0,0.417749,-12.3007,123.064)">
        <path d="M438.857,683.154L84.846,683.154L84.846,585.143C84.846,531.017 128.731,487.131 182.857,487.131L258.926,487.131L275.017,406.674C282.331,368.64 318.903,336.457 356.937,333.531L438.857,333.531L438.857,683.154ZM105.326,662.674L415.451,662.674L415.451,355.474L356.937,355.474C327.68,358.4 299.886,381.806 294.034,412.526L275.017,509.074L181.394,509.074C138.971,509.074 105.326,544.183 105.326,585.143L105.326,662.674Z" style="fill:rgb(20,21,21);fill-rule:nonzero;"/>
    </g>
    <g transform="matrix(0.442561,0,0,0.417749,-12.3007,123.064)">
        <rect x="454.949" y="178.469" width="531.017" height="494.446" style="fill:rgb(236,116,139);fill-rule:nonzero;"/>
    </g>
    <g transform="matrix(0.442561,0,0,0.417749,-12.3007,123.064)">
        <path d="M985.966,683.154L454.949,683.154C449.097,683.154 444.709,678.766 444.709,672.914L444.709,178.469C444.709,172.617 449.097,168.229 454.949,168.229L985.966,168.229C991.817,168.229 996.206,172.617 996.206,178.469L996.206,672.914C996.206,678.766 991.817,683.154 985.966,683.154ZM465.189,662.674L975.726,662.674L975.726,188.709L465.189,188.709L465.189,662.674Z" style="fill:rgb(20,21,21);fill-rule:nonzero;"/>
    </g>
    <g transform="matrix(0.442561,0,0,0.417749,-12.3007,123.064)">
        <rect x="454.949" y="178.469" width="531.017" height="40.96" style="fill:rgb(252,221,16);fill-rule:nonzero;"/>
    </g>
    <g transform="matrix(0.442561,0,0,0.417749,-12.3007,123.064)">
        <path d="M985.966,229.669L454.949,229.669C449.097,229.669 444.709,225.28 444.709,219.429L444.709,178.469C444.709,172.617 449.097,168.229 454.949,168.229L985.966,168.229C991.817,168.229 996.206,172.617 996.206,178.469L996.206,219.429C996.206,225.28 991.817,229.669 985.966,229.669ZM465.189,209.189L975.726,209.189L975.726,188.709L465.189,188.709L465.189,209.189Z" style="fill:rgb(20,21,21);fill-rule:nonzero;"/>
    </g>
    <g transform="matrix(0.442561,0,0,0.417749,-12.3007,123.064)">
        <rect x="64.366" y="672.914" width="920.137" height="59.977" style="fill:rgb(110,115,119);fill-rule:nonzero;"/>
    </g>
    <g transform="matrix(0.442561,0,0,0.417749,-12.3007,123.064)">
        <path d="M985.966,744.594L64.366,744.594C58.514,744.594 54.126,740.206 54.126,734.354L54.126,672.914C54.126,667.063 58.514,662.674 64.366,662.674L984.503,662.674C990.354,662.674 994.743,667.063 994.743,672.914L994.743,732.891C996.206,738.743 991.817,744.594 985.966,744.594ZM74.606,722.651L974.263,722.651L974.263,683.154L74.606,683.154L74.606,722.651Z" style="fill:rgb(20,21,21);fill-rule:nonzero;"/>
    </g>
    <g transform="matrix(0.442561,0,0,0.417749,-12.3007,123.064)">
        <path d="M296.96,503.223L305.737,452.023C310.126,428.617 329.143,409.6 351.086,408.137L394.971,408.137L394.971,503.223L296.96,503.223Z" style="fill:rgb(144,206,217);fill-rule:nonzero;"/>
    </g>
    <g transform="matrix(0.442561,0,0,0.417749,-12.3007,123.064)">
        <path d="M403.749,513.463L283.794,513.463L295.497,450.56C299.886,422.766 323.291,399.36 349.623,397.897L403.749,397.897L403.749,513.463ZM308.663,492.983L383.269,492.983L383.269,418.377L354.011,418.377L351.086,408.137L351.086,418.377C333.531,419.84 317.44,435.931 314.514,453.486L308.663,492.983Z" style="fill:rgb(20,21,21);fill-rule:nonzero;"/>
    </g>
    <g transform="matrix(0.442561,0,0,0.417749,-12.3007,123.064)">
        <path d="M330.606,352.549C342.309,267.703 374.491,203.337 425.691,201.874L425.691,345.234L356.937,345.234C348.16,345.234 339.383,348.16 330.606,352.549Z" style="fill:rgb(191,215,171);fill-rule:nonzero;"/>
    </g>
    <g transform="matrix(0.442561,0,0,0.417749,-12.3007,123.064)">
        <path d="M318.903,370.103L321.829,351.086C336.457,250.149 374.491,193.097 427.154,191.634L437.394,191.634L437.394,355.474L356.937,355.474C349.623,355.474 342.309,358.4 334.994,361.326L318.903,370.103ZM416.914,213.577C383.269,222.354 356.937,266.24 345.234,336.457C349.623,334.994 352.549,334.994 356.937,334.994L415.451,334.994L415.451,213.577L416.914,213.577ZM561.737,634.88C555.886,634.88 551.497,630.491 551.497,624.64L551.497,272.091C551.497,266.24 555.886,261.851 561.737,261.851C567.589,261.851 571.977,266.24 571.977,272.091L571.977,624.64C571.977,630.491 567.589,634.88 561.737,634.88ZM722.651,634.88C716.8,634.88 712.411,630.491 712.411,624.64L712.411,272.091C712.411,266.24 716.8,261.851 722.651,261.851C728.503,261.851 732.891,266.24 732.891,272.091L732.891,624.64C732.891,630.491 728.503,634.88 722.651,634.88Z" style="fill:rgb(20,21,21);fill-rule:nonzero;"/>
    </g>
    <g transform="matrix(0.442561,0,0,0.417749,-12.3007,123.064)">
        <path d="M883.566,634.88C877.714,634.88 873.326,630.491 873.326,624.64L873.326,272.091C873.326,266.24 877.714,261.851 883.566,261.851C889.417,261.851 893.806,266.24 893.806,272.091L893.806,624.64C893.806,630.491 889.417,634.88 883.566,634.88Z" style="fill:rgb(20,21,21);fill-rule:nonzero;"/>
    </g>
    <g transform="matrix(0.442561,0,0,0.417749,-12.3007,123.064)">
        <path d="M296.96,665.6C291.109,665.6 286.72,661.211 286.72,655.36L286.72,552.96C286.72,547.109 291.109,542.72 296.96,542.72C302.811,542.72 307.2,547.109 307.2,552.96L307.2,655.36C307.2,661.211 302.811,665.6 296.96,665.6Z" style="fill:rgb(20,21,21);fill-rule:nonzero;"/>
    </g>
    <g transform="matrix(0.442561,0,0,0.417749,-12.3007,123.064)">
        <path d="M102.4,586.606L49.737,586.606C43.886,586.606 39.497,582.217 39.497,576.366C39.497,570.514 43.886,566.126 49.737,566.126L102.4,566.126C108.251,566.126 112.64,570.514 112.64,576.366C112.64,582.217 108.251,586.606 102.4,586.606Z" style="fill:rgb(20,21,21);fill-rule:nonzero;"/>
    </g>
    <g transform="matrix(0.442561,0,0,0.417749,-12.3007,123.064)">
        <path d="M102.4,618.789L49.737,618.789C43.886,618.789 39.497,614.4 39.497,608.549C39.497,602.697 43.886,598.309 49.737,598.309L102.4,598.309C108.251,598.309 112.64,602.697 112.64,608.549C112.64,614.4 108.251,618.789 102.4,618.789Z" style="fill:rgb(20,21,21);fill-rule:nonzero;"/>
    </g>
    <g transform="matrix(0.442561,0,0,0.417749,-12.3007,123.064)">
        <path d="M57.051,634.88L121.417,634.88C131.657,634.88 140.434,643.657 140.434,653.897L140.434,664.137C140.434,674.377 131.657,683.154 121.417,683.154L57.051,683.154C46.811,683.154 38.034,674.377 38.034,664.137L38.034,653.897C38.034,643.657 46.811,634.88 57.051,634.88Z" style="fill:rgb(255,230,56);fill-rule:nonzero;"/>
    </g>
    <g transform="matrix(0.442561,0,0,0.417749,-12.3007,123.064)">
        <path d="M121.417,693.394L57.051,693.394C40.96,693.394 27.794,680.229 27.794,664.137L27.794,653.897C27.794,637.806 40.96,624.64 57.051,624.64L121.417,624.64C137.509,624.64 150.674,637.806 150.674,653.897L150.674,664.137C150.674,680.229 137.509,693.394 121.417,693.394ZM57.051,645.12C52.663,645.12 48.274,649.509 48.274,653.897L48.274,664.137C48.274,668.526 52.663,672.914 57.051,672.914L121.417,672.914C125.806,672.914 130.194,668.526 130.194,664.137L130.194,653.897C130.194,649.509 125.806,645.12 121.417,645.12L57.051,645.12Z" style="fill:rgb(20,21,21);fill-rule:nonzero;"/>
    </g>
    <g transform="matrix(0.442561,0,0,0.417749,-12.3007,123.064)">
        <path d="M200.411,845.531C244.297,845.531 279.406,810.423 279.406,766.537C279.406,722.651 244.297,687.543 200.411,687.543C156.526,687.543 121.417,722.651 121.417,766.537C121.417,810.423 157.989,845.531 200.411,845.531Z" style="fill:rgb(161,166,156);fill-rule:nonzero;"/>
    </g>
    <g transform="matrix(0.442561,0,0,0.417749,-12.3007,123.064)">
        <path d="M200.411,855.771C150.674,855.771 111.177,814.811 111.177,766.537C111.177,716.8 152.137,677.303 200.411,677.303C250.149,677.303 289.646,718.263 289.646,766.537C291.109,816.274 250.149,855.771 200.411,855.771ZM200.411,697.783C162.377,697.783 131.657,728.503 131.657,766.537C131.657,804.571 162.377,835.291 200.411,835.291C238.446,835.291 269.166,804.571 269.166,766.537C270.629,728.503 238.446,697.783 200.411,697.783Z" style="fill:rgb(20,21,21);fill-rule:nonzero;"/>
    </g>
    <g transform="matrix(0.442561,0,0,0.417749,-12.3007,123.064)">
        <path d="M162.377,766.531L162.377,766.543C162.377,787.408 179.546,804.578 200.411,804.578C221.276,804.578 238.446,787.408 238.446,766.543L238.446,766.531C238.446,745.666 221.276,728.497 200.411,728.497C179.546,728.497 162.377,745.666 162.377,766.531Z" style="fill:rgb(218,217,180);fill-rule:nonzero;"/>
    </g>
    <g transform="matrix(0.442561,0,0,0.417749,-12.3007,123.064)">
        <path d="M200.411,814.811C174.08,814.811 152.137,792.869 152.137,766.537C152.137,740.206 174.08,718.263 200.411,718.263C226.743,718.263 248.686,740.206 248.686,766.537C248.686,792.869 226.743,814.811 200.411,814.811ZM200.411,738.743C185.783,738.743 172.617,750.446 172.617,766.537C172.617,781.166 184.32,792.869 200.411,792.869C216.503,792.869 226.743,781.166 226.743,766.537C228.206,751.909 216.503,738.743 200.411,738.743Z" style="fill:rgb(20,21,21);fill-rule:nonzero;"/>
    </g>
    <g transform="matrix(0.442561,0,0,0.417749,-12.3007,123.064)">
        <path d="M669.989,845.531C713.874,845.531 748.983,810.423 748.983,766.537C748.983,722.651 713.874,687.543 669.989,687.543C626.103,687.543 590.994,722.651 590.994,766.537C590.994,810.423 626.103,845.531 669.989,845.531Z" style="fill:rgb(161,166,156);fill-rule:nonzero;"/>
    </g>
    <g transform="matrix(0.442561,0,0,0.417749,-12.3007,123.064)">
        <path d="M669.989,855.771C620.251,855.771 580.754,814.811 580.754,766.537C580.754,716.8 621.714,677.303 669.989,677.303C719.726,677.303 759.223,718.263 759.223,766.537C759.223,816.274 719.726,855.771 669.989,855.771ZM669.989,697.783C631.954,697.783 601.234,728.503 601.234,766.537C601.234,804.571 631.954,835.291 669.989,835.291C708.023,835.291 738.743,804.571 738.743,766.537C738.743,728.503 708.023,697.783 669.989,697.783Z" style="fill:rgb(20,21,21);fill-rule:nonzero;"/>
    </g>
    <g transform="matrix(0.442561,0,0,0.417749,-12.3007,123.064)">
        <path d="M867.474,845.531C911.36,845.531 946.469,810.423 946.469,766.537C946.469,722.651 911.36,687.543 867.474,687.543C823.589,687.543 788.48,722.651 788.48,766.537C788.48,810.423 823.589,845.531 867.474,845.531Z" style="fill:rgb(161,166,156);fill-rule:nonzero;"/>
    </g>
    <g transform="matrix(0.442561,0,0,0.417749,-12.3007,123.064)">
        <path d="M867.474,855.771C817.737,855.771 778.24,814.811 778.24,766.537C778.24,716.8 819.2,677.303 867.474,677.303C917.211,677.303 956.709,718.263 956.709,766.537C956.709,816.274 917.211,855.771 867.474,855.771ZM867.474,697.783C829.44,697.783 798.72,728.503 798.72,766.537C798.72,804.571 829.44,835.291 867.474,835.291C905.509,835.291 936.229,804.571 936.229,766.537C936.229,728.503 905.509,697.783 867.474,697.783Z" style="fill:rgb(20,21,21);fill-rule:nonzero;"/>
    </g>
    <g transform="matrix(0.442561,0,0,0.417749,-12.3007,123.064)">
        <path d="M631.954,766.531L631.954,766.543C631.954,787.408 649.124,804.578 669.989,804.578C690.854,804.578 708.023,787.408 708.023,766.543L708.023,766.531C708.023,745.666 690.854,728.497 669.989,728.497C649.124,728.497 631.954,745.666 631.954,766.531Z" style="fill:rgb(218,217,180);fill-rule:nonzero;"/>
    </g>
    <g transform="matrix(0.442561,0,0,0.417749,-12.3007,123.064)">
        <path d="M669.989,814.811C643.657,814.811 621.714,792.869 621.714,766.537C621.714,740.206 643.657,718.263 669.989,718.263C696.32,718.263 718.263,740.206 718.263,766.537C718.263,792.869 696.32,814.811 669.989,814.811ZM669.989,738.743C655.36,738.743 643.657,750.446 643.657,766.537C643.657,781.166 655.36,792.869 669.989,792.869C684.617,792.869 696.32,781.166 696.32,766.537C696.32,751.909 684.617,738.743 669.989,738.743Z" style="fill:rgb(20,21,21);fill-rule:nonzero;"/>
    </g>
    <g transform="matrix(0.442561,0,0,0.417749,-12.3007,123.064)">
        <path d="M829.44,766.531L829.44,766.543C829.44,787.408 846.609,804.578 867.474,804.578C888.339,804.578 905.509,787.408 905.509,766.543L905.509,766.531C905.509,745.666 888.339,728.497 867.474,728.497C846.609,728.497 829.44,745.666 829.44,766.531Z" style="fill:rgb(218,217,180);fill-rule:nonzero;"/>
    </g>
    <g transform="matrix(0.442561,0,0,0.417749,-12.3007,123.064)">
        <path d="M867.474,814.811C841.143,814.811 819.2,792.869 819.2,766.537C819.2,740.206 841.143,718.263 867.474,718.263C893.806,718.263 915.749,740.206 915.749,766.537C915.749,792.869 893.806,814.811 867.474,814.811ZM867.474,738.743C852.846,738.743 841.143,750.446 841.143,766.537C841.143,781.166 852.846,792.869 867.474,792.869C882.103,792.869 893.806,781.166 893.806,766.537C895.269,751.909 882.103,738.743 867.474,738.743Z" style="fill:rgb(20,21,21);fill-rule:nonzero;"/>
    </g>
    <g transform="matrix(0.149823,0,0,0.173916,593.488,52.9405)">
        <path d="M709.448,275.968C622.817,258.15 534.897,249.119 448.164,249.119C361.431,249.119 273.531,258.15 186.88,275.968C175.677,278.262 166.523,286.392 162.918,297.308C116.777,437.494 116.777,579.645 162.918,719.831C166.502,730.706 175.657,738.836 186.88,741.151C273.531,758.948 361.431,768 448.164,768C534.856,768 622.817,758.948 709.448,741.11C720.712,738.816 729.825,730.685 733.45,719.79C779.571,579.604 779.571,437.453 733.45,297.267C729.825,286.392 720.691,278.262 709.448,275.948L709.448,275.968ZM703.017,709.816C533.135,744.694 363.213,744.694 193.352,709.816C149.156,575.631 149.156,441.487 193.352,307.282C363.233,272.364 533.156,272.364 703.017,307.282C747.213,441.467 747.213,575.611 703.017,709.816ZM987.32,202.24C981.135,176.189 959.324,156.733 932.762,153.539C793.231,136.581 651.735,128 512.164,128C372.613,128 231.117,136.581 91.587,153.498C65.024,156.733 43.233,176.148 37.069,202.24C-11.858,407.777 -11.858,616.182 37.069,821.76C43.254,847.811 65.044,867.267 91.587,870.441C158.822,878.633 226.509,884.613 294.175,888.873C290.529,891.208 288.154,893.583 288.154,896C288.154,913.695 388.444,928.01 512.164,928.01C635.884,928.01 736.174,913.715 736.174,896C736.174,893.563 733.798,891.208 730.153,888.873C797.839,884.613 865.505,878.633 932.721,870.441C959.283,867.246 981.094,847.811 987.279,821.76C1036.27,616.182 1036.27,407.777 987.341,202.24L987.32,202.24ZM925.061,806.953C649.789,840.335 374.538,840.335 99.308,806.953C52.49,610.304 52.49,413.676 99.308,217.068C374.579,183.665 649.83,183.665 925.061,217.068C971.878,413.676 971.878,610.324 925.061,806.953ZM848.2,384C874.701,384 896.205,362.496 896.205,335.995C896.205,309.494 874.701,287.99 848.2,287.99C821.699,287.99 800.195,309.494 800.195,335.995C800.195,362.496 821.699,384 848.2,384ZM848.2,320C857.006,320 864.195,327.209 864.195,335.995C864.195,344.781 856.986,351.99 848.2,351.99C839.414,351.99 832.205,344.781 832.205,335.995C832.205,327.209 839.373,320 848.2,320ZM880.189,704C888.996,704 896.184,711.127 896.184,719.995C896.184,728.801 888.975,735.99 880.189,735.99L784.179,735.99C775.311,735.99 768.184,728.781 768.184,719.995C768.184,711.127 775.311,704 784.179,704L880.189,704ZM912.2,608.01C921.006,608.01 928.195,615.137 928.195,624.005C928.195,632.812 920.986,640 912.2,640L816.189,640C807.322,640 800.195,632.791 800.195,624.005C800.195,615.137 807.322,608.01 816.189,608.01L912.2,608.01ZM912.2,512C921.006,512 928.195,519.168 928.195,527.995C928.195,536.822 920.986,543.99 912.2,543.99L816.189,543.99C807.322,543.99 800.195,536.822 800.195,527.995C800.195,519.168 807.322,512 816.189,512L912.2,512ZM432.169,377.733C440.996,377.385 448.164,384.266 448.164,393.093C448.164,401.92 440.955,409.354 432.169,409.661L312.197,417.894C303.452,418.796 295.342,426.66 294.154,435.364L288.809,496.005C288.461,504.812 280.965,512 272.241,512C263.475,512 256.655,504.791 257.106,496.005L266.875,406.856C268.349,398.152 276.705,390.205 285.43,389.222L432.189,377.733L432.169,377.733Z" style="fill-rule:nonzero;"/>
    </g>
    <g transform="matrix(0.149823,0,0,0.173916,766.444,137.297)">
        <path d="M709.448,275.968C622.817,258.15 534.897,249.119 448.164,249.119C361.431,249.119 273.531,258.15 186.88,275.968C175.677,278.262 166.523,286.392 162.918,297.308C116.777,437.494 116.777,579.645 162.918,719.831C166.502,730.706 175.657,738.836 186.88,741.151C273.531,758.948 361.431,768 448.164,768C534.856,768 622.817,758.948 709.448,741.11C720.712,738.816 729.825,730.685 733.45,719.79C779.571,579.604 779.571,437.453 733.45,297.267C729.825,286.392 720.691,278.262 709.448,275.948L709.448,275.968ZM703.017,709.816C533.135,744.694 363.213,744.694 193.352,709.816C149.156,575.631 149.156,441.487 193.352,307.282C363.233,272.364 533.156,272.364 703.017,307.282C747.213,441.467 747.213,575.611 703.017,709.816ZM987.32,202.24C981.135,176.189 959.324,156.733 932.762,153.539C793.231,136.581 651.735,128 512.164,128C372.613,128 231.117,136.581 91.587,153.498C65.024,156.733 43.233,176.148 37.069,202.24C-11.858,407.777 -11.858,616.182 37.069,821.76C43.254,847.811 65.044,867.267 91.587,870.441C158.822,878.633 226.509,884.613 294.175,888.873C290.529,891.208 288.154,893.583 288.154,896C288.154,913.695 388.444,928.01 512.164,928.01C635.884,928.01 736.174,913.715 736.174,896C736.174,893.563 733.798,891.208 730.153,888.873C797.839,884.613 865.505,878.633 932.721,870.441C959.283,867.246 981.094,847.811 987.279,821.76C1036.27,616.182 1036.27,407.777 987.341,202.24L987.32,202.24ZM925.061,806.953C649.789,840.335 374.538,840.335 99.308,806.953C52.49,610.304 52.49,413.676 99.308,217.068C374.579,183.665 649.83,183.665 925.061,217.068C971.878,413.676 971.878,610.324 925.061,806.953ZM848.2,384C874.701,384 896.205,362.496 896.205,335.995C896.205,309.494 874.701,287.99 848.2,287.99C821.699,287.99 800.195,309.494 800.195,335.995C800.195,362.496 821.699,384 848.2,384ZM848.2,320C857.006,320 864.195,327.209 864.195,335.995C864.195,344.781 856.986,351.99 848.2,351.99C839.414,351.99 832.205,344.781 832.205,335.995C832.205,327.209 839.373,320 848.2,320ZM880.189,704C888.996,704 896.184,711.127 896.184,719.995C896.184,728.801 888.975,735.99 880.189,735.99L784.179,735.99C775.311,735.99 768.184,728.781 768.184,719.995C768.184,711.127 775.311,704 784.179,704L880.189,704ZM912.2,608.01C921.006,608.01 928.195,615.137 928.195,624.005C928.195,632.812 920.986,640 912.2,640L816.189,640C807.322,640 800.195,632.791 800.195,624.005C800.195,615.137 807.322,608.01 816.189,608.01L912.2,608.01ZM912.2,512C921.006,512 928.195,519.168 928.195,527.995C928.195,536.822 920.986,543.99 912.2,543.99L816.189,543.99C807.322,543.99 800.195,536.822 800.195,527.995C800.195,519.168 807.322,512 816.189,512L912.2,512ZM432.169,377.733C440.996,377.385 448.164,384.266 448.164,393.093C448.164,401.92 440.955,409.354 432.169,409.661L312.197,417.894C303.452,418.796 295.342,426.66 294.154,435.364L288.809,496.005C288.461,504.812 280.965,512 272.241,512C263.475,512 256.655,504.791 257.106,496.005L266.875,406.856C268.349,398.152 276.705,390.205 285.43,389.222L432.189,377.733L432.169,377.733Z" style="fill-rule:nonzero;"/>
    </g>
    <g transform="matrix(0.149823,0,0,0.173916,766.444,299.409)">
        <path d="M709.448,275.968C622.817,258.15 534.897,249.119 448.164,249.119C361.431,249.119 273.531,258.15 186.88,275.968C175.677,278.262 166.523,286.392 162.918,297.308C116.777,437.494 116.777,579.645 162.918,719.831C166.502,730.706 175.657,738.836 186.88,741.151C273.531,758.948 361.431,768 448.164,768C534.856,768 622.817,758.948 709.448,741.11C720.712,738.816 729.825,730.685 733.45,719.79C779.571,579.604 779.571,437.453 733.45,297.267C729.825,286.392 720.691,278.262 709.448,275.948L709.448,275.968ZM703.017,709.816C533.135,744.694 363.213,744.694 193.352,709.816C149.156,575.631 149.156,441.487 193.352,307.282C363.233,272.364 533.156,272.364 703.017,307.282C747.213,441.467 747.213,575.611 703.017,709.816ZM987.32,202.24C981.135,176.189 959.324,156.733 932.762,153.539C793.231,136.581 651.735,128 512.164,128C372.613,128 231.117,136.581 91.587,153.498C65.024,156.733 43.233,176.148 37.069,202.24C-11.858,407.777 -11.858,616.182 37.069,821.76C43.254,847.811 65.044,867.267 91.587,870.441C158.822,878.633 226.509,884.613 294.175,888.873C290.529,891.208 288.154,893.583 288.154,896C288.154,913.695 388.444,928.01 512.164,928.01C635.884,928.01 736.174,913.715 736.174,896C736.174,893.563 733.798,891.208 730.153,888.873C797.839,884.613 865.505,878.633 932.721,870.441C959.283,867.246 981.094,847.811 987.279,821.76C1036.27,616.182 1036.27,407.777 987.341,202.24L987.32,202.24ZM925.061,806.953C649.789,840.335 374.538,840.335 99.308,806.953C52.49,610.304 52.49,413.676 99.308,217.068C374.579,183.665 649.83,183.665 925.061,217.068C971.878,413.676 971.878,610.324 925.061,806.953ZM848.2,384C874.701,384 896.205,362.496 896.205,335.995C896.205,309.494 874.701,287.99 848.2,287.99C821.699,287.99 800.195,309.494 800.195,335.995C800.195,362.496 821.699,384 848.2,384ZM848.2,320C857.006,320 864.195,327.209 864.195,335.995C864.195,344.781 856.986,351.99 848.2,351.99C839.414,351.99 832.205,344.781 832.205,335.995C832.205,327.209 839.373,320 848.2,320ZM880.189,704C888.996,704 896.184,711.127 896.184,719.995C896.184,728.801 888.975,735.99 880.189,735.99L784.179,735.99C775.311,735.99 768.184,728.781 768.184,719.995C768.184,711.127 775.311,704 784.179,704L880.189,704ZM912.2,608.01C921.006,608.01 928.195,615.137 928.195,624.005C928.195,632.812 920.986,640 912.2,640L816.189,640C807.322,640 800.195,632.791 800.195,624.005C800.195,615.137 807.322,608.01 816.189,608.01L912.2,608.01ZM912.2,512C921.006,512 928.195,519.168 928.195,527.995C928.195,536.822 920.986,543.99 912.2,543.99L816.189,543.99C807.322,543.99 800.195,536.822 800.195,527.995C800.195,519.168 807.322,512 816.189,512L912.2,512ZM432.169,377.733C440.996,377.385 448.164,384.266 448.164,393.093C448.164,401.92 440.955,409.354 432.169,409.661L312.197,417.894C303.452,418.796 295.342,426.66 294.154,435.364L288.809,496.005C288.461,504.812 280.965,512 272.241,512C263.475,512 256.655,504.791 257.106,496.005L266.875,406.856C268.349,398.152 276.705,390.205 285.43,389.222L432.189,377.733L432.169,377.733Z" style="fill-rule:nonzero;"/>
    </g>
    <g transform="matrix(0.149823,0,0,0.173916,595.085,386.19)">
        <path d="M709.448,275.968C622.817,258.15 534.897,249.119 448.164,249.119C361.431,249.119 273.531,258.15 186.88,275.968C175.677,278.262 166.523,286.392 162.918,297.308C116.777,437.494 116.777,579.645 162.918,719.831C166.502,730.706 175.657,738.836 186.88,741.151C273.531,758.948 361.431,768 448.164,768C534.856,768 622.817,758.948 709.448,741.11C720.712,738.816 729.825,730.685 733.45,719.79C779.571,579.604 779.571,437.453 733.45,297.267C729.825,286.392 720.691,278.262 709.448,275.948L709.448,275.968ZM703.017,709.816C533.135,744.694 363.213,744.694 193.352,709.816C149.156,575.631 149.156,441.487 193.352,307.282C363.233,272.364 533.156,272.364 703.017,307.282C747.213,441.467 747.213,575.611 703.017,709.816ZM987.32,202.24C981.135,176.189 959.324,156.733 932.762,153.539C793.231,136.581 651.735,128 512.164,128C372.613,128 231.117,136.581 91.587,153.498C65.024,156.733 43.233,176.148 37.069,202.24C-11.858,407.777 -11.858,616.182 37.069,821.76C43.254,847.811 65.044,867.267 91.587,870.441C158.822,878.633 226.509,884.613 294.175,888.873C290.529,891.208 288.154,893.583 288.154,896C288.154,913.695 388.444,928.01 512.164,928.01C635.884,928.01 736.174,913.715 736.174,896C736.174,893.563 733.798,891.208 730.153,888.873C797.839,884.613 865.505,878.633 932.721,870.441C959.283,867.246 981.094,847.811 987.279,821.76C1036.27,616.182 1036.27,407.777 987.341,202.24L987.32,202.24ZM925.061,806.953C649.789,840.335 374.538,840.335 99.308,806.953C52.49,610.304 52.49,413.676 99.308,217.068C374.579,183.665 649.83,183.665 925.061,217.068C971.878,413.676 971.878,610.324 925.061,806.953ZM848.2,384C874.701,384 896.205,362.496 896.205,335.995C896.205,309.494 874.701,287.99 848.2,287.99C821.699,287.99 800.195,309.494 800.195,335.995C800.195,362.496 821.699,384 848.2,384ZM848.2,320C857.006,320 864.195,327.209 864.195,335.995C864.195,344.781 856.986,351.99 848.2,351.99C839.414,351.99 832.205,344.781 832.205,335.995C832.205,327.209 839.373,320 848.2,320ZM880.189,704C888.996,704 896.184,711.127 896.184,719.995C896.184,728.801 888.975,735.99 880.189,735.99L784.179,735.99C775.311,735.99 768.184,728.781 768.184,719.995C768.184,711.127 775.311,704 784.179,704L880.189,704ZM912.2,608.01C921.006,608.01 928.195,615.137 928.195,624.005C928.195,632.812 920.986,640 912.2,640L816.189,640C807.322,640 800.195,632.791 800.195,624.005C800.195,615.137 807.322,608.01 816.189,608.01L912.2,608.01ZM912.2,512C921.006,512 928.195,519.168 928.195,527.995C928.195,536.822 920.986,543.99 912.2,543.99L816.189,543.99C807.322,543.99 800.195,536.822 800.195,527.995C800.195,519.168 807.322,512 816.189,512L912.2,512ZM432.169,377.733C440.996,377.385 448.164,384.266 448.164,393.093C448.164,401.92 440.955,409.354 432.169,409.661L312.197,417.894C303.452,418.796 295.342,426.66 294.154,435.364L288.809,496.005C288.461,504.812 280.965,512 272.241,512C263.475,512 256.655,504.791 257.106,496.005L266.875,406.856C268.349,398.152 276.705,390.205 285.43,389.222L432.189,377.733L432.169,377.733Z" style="fill-rule:nonzero;"/>
    </g>
    <g transform="matrix(0.149823,0,0,0.173916,499.39,217.418)">
        <path d="M709.448,275.968C622.817,258.15 534.897,249.119 448.164,249.119C361.431,249.119 273.531,258.15 186.88,275.968C175.677,278.262 166.523,286.392 162.918,297.308C116.777,437.494 116.777,579.645 162.918,719.831C166.502,730.706 175.657,738.836 186.88,741.151C273.531,758.948 361.431,768 448.164,768C534.856,768 622.817,758.948 709.448,741.11C720.712,738.816 729.825,730.685 733.45,719.79C779.571,579.604 779.571,437.453 733.45,297.267C729.825,286.392 720.691,278.262 709.448,275.948L709.448,275.968ZM703.017,709.816C533.135,744.694 363.213,744.694 193.352,709.816C149.156,575.631 149.156,441.487 193.352,307.282C363.233,272.364 533.156,272.364 703.017,307.282C747.213,441.467 747.213,575.611 703.017,709.816ZM987.32,202.24C981.135,176.189 959.324,156.733 932.762,153.539C793.231,136.581 651.735,128 512.164,128C372.613,128 231.117,136.581 91.587,153.498C65.024,156.733 43.233,176.148 37.069,202.24C-11.858,407.777 -11.858,616.182 37.069,821.76C43.254,847.811 65.044,867.267 91.587,870.441C158.822,878.633 226.509,884.613 294.175,888.873C290.529,891.208 288.154,893.583 288.154,896C288.154,913.695 388.444,928.01 512.164,928.01C635.884,928.01 736.174,913.715 736.174,896C736.174,893.563 733.798,891.208 730.153,888.873C797.839,884.613 865.505,878.633 932.721,870.441C959.283,867.246 981.094,847.811 987.279,821.76C1036.27,616.182 1036.27,407.777 987.341,202.24L987.32,202.24ZM925.061,806.953C649.789,840.335 374.538,840.335 99.308,806.953C52.49,610.304 52.49,413.676 99.308,217.068C374.579,183.665 649.83,183.665 925.061,217.068C971.878,413.676 971.878,610.324 925.061,806.953ZM848.2,384C874.701,384 896.205,362.496 896.205,335.995C896.205,309.494 874.701,287.99 848.2,287.99C821.699,287.99 800.195,309.494 800.195,335.995C800.195,362.496 821.699,384 848.2,384ZM848.2,320C857.006,320 864.195,327.209 864.195,335.995C864.195,344.781 856.986,351.99 848.2,351.99C839.414,351.99 832.205,344.781 832.205,335.995C832.205,327.209 839.373,320 848.2,320ZM880.189,704C888.996,704 896.184,711.127 896.184,719.995C896.184,728.801 888.975,735.99 880.189,735.99L784.179,735.99C775.311,735.99 768.184,728.781 768.184,719.995C768.184,711.127 775.311,704 784.179,704L880.189,704ZM912.2,608.01C921.006,608.01 928.195,615.137 928.195,624.005C928.195,632.812 920.986,640 912.2,640L816.189,640C807.322,640 800.195,632.791 800.195,624.005C800.195,615.137 807.322,608.01 816.189,608.01L912.2,608.01ZM912.2,512C921.006,512 928.195,519.168 928.195,527.995C928.195,536.822 920.986,543.99 912.2,543.99L816.189,543.99C807.322,543.99 800.195,536.822 800.195,527.995C800.195,519.168 807.322,512 816.189,512L912.2,512ZM432.169,377.733C440.996,377.385 448.164,384.266 448.164,393.093C448.164,401.92 440.955,409.354 432.169,409.661L312.197,417.894C303.452,418.796 295.342,426.66 294.154,435.364L288.809,496.005C288.461,504.812 280.965,512 272.241,512C263.475,512 256.655,504.791 257.106,496.005L266.875,406.856C268.349,398.152 276.705,390.205 285.43,389.222L432.189,377.733L432.169,377.733Z" style="fill-rule:nonzero;"/>
    </g>
    <g transform="matrix(0.780632,0,0,0.955265,181.689,-166.261)">
        <path d="M603.117,228.49C609.854,201.066 642.38,179.313 680.863,179.313C719.346,179.313 751.872,201.066 758.608,228.49C779.217,207.866 819.104,204.121 852.431,221.979C885.759,239.837 902.207,273.769 893.267,300.645C922.226,292.347 958.787,307.613 978.028,338.544C997.27,369.475 993.234,406.494 971.013,425.621C1000.56,431.873 1024,462.059 1024,497.775C1024,533.491 1000.56,563.678 971.013,569.93C993.234,589.057 997.27,626.076 978.028,657.007C958.787,687.937 922.226,703.203 893.267,694.906C902.207,721.782 885.759,755.714 852.431,773.572C819.104,791.43 779.217,787.684 758.608,767.061C751.872,794.485 719.346,816.238 680.863,816.238C642.38,816.238 609.854,794.485 603.117,767.061C582.509,787.684 542.622,791.43 509.294,773.572C475.967,755.714 459.518,721.782 468.459,694.906C439.5,703.203 402.939,687.937 383.697,657.007C364.456,626.076 368.491,589.057 390.713,569.93C361.164,563.678 337.726,533.491 337.726,497.775C337.726,462.059 361.164,431.873 390.713,425.621C368.491,406.494 364.456,369.475 383.697,338.544C402.939,307.613 439.5,292.347 468.459,300.645C459.518,273.769 475.967,239.837 509.294,221.979C542.622,204.121 582.509,207.866 603.117,228.49Z" style="fill:none;stroke:black;stroke-width:11.53px;"/>
    </g>
    <g transform="matrix(0.999827,-0.018598,0.018598,0.999827,15.4458,-119.314)">
        <ellipse cx="285.863" cy="284.238" rx="20.035" ry="19.14" style="fill:none;stroke:black;stroke-width:10.06px;"/>
    </g>
    <g transform="matrix(1,0,0,1,8.15558,-178.685)">
        <ellipse cx="424.223" cy="253.886" rx="31.006" ry="30.352" style="fill:none;stroke:black;stroke-width:10.06px;"/>
    </g>
    <g transform="matrix(1,0,0,1.18805,-97.6429,-239.747)">
        <ellipse cx="447.958" cy="284.238" rx="23.735" ry="19.14" style="fill:none;stroke:black;stroke-width:9.16px;"/>
    </g>
    <g transform="matrix(-0.869415,0.494083,-0.494083,-0.869415,1321.69,429.774)">
        <path d="M607.928,451.367C608.021,451.029 607.937,450.653 607.674,450.385C607.38,450.086 607.081,450.057 606.875,450.066C606.608,450.077 605.87,450.299 605.871,451.211C605.871,451.626 606.098,452.807 606.127,452.962L609.016,466.152C610.057,470.779 610.783,473.453 610.283,475.595C609.767,477.809 607.878,479.342 603.861,482.02C603.016,482.583 601.1,484.572 599.467,485.887C598.846,486.386 598.339,486.846 597.974,486.846C597.413,486.846 596.958,487.301 596.958,487.862C596.958,488.423 597.413,488.878 597.974,488.878C598.482,488.878 599.227,488.578 600.035,488.006C601.745,486.796 604.044,484.34 604.988,483.711C609.657,480.598 611.662,478.63 612.262,476.057C612.809,473.712 612.138,470.77 610.999,465.706L608.124,452.584L607.928,451.367ZM606.372,451.933L606.31,451.887L606.326,451.901L606.372,451.933ZM606.527,452.023L606.551,452.032L606.469,451.993L606.527,452.023ZM606.469,451.993L606.389,451.945L606.428,451.972L606.469,451.993Z"/>
    </g>
    <g transform="matrix(-0.869415,0.494083,-0.494083,-0.869415,1321.69,429.774)">
        <path d="M612.044,469.549C618.549,468.149 620.433,471.816 622.254,475.583C623.82,478.825 625.4,482.11 628.834,483.414C630.5,484.047 632.614,484.231 635.401,483.674C635.95,483.564 636.308,483.028 636.198,482.478C636.088,481.929 635.552,481.571 635.002,481.681C628.454,482.991 626.412,479.482 624.611,475.792C623.017,472.525 621.515,469.171 618.208,467.825C616.555,467.152 614.441,466.955 611.616,467.563C611.068,467.681 610.719,468.222 610.837,468.77C610.955,469.318 611.496,469.667 612.044,469.549Z"/>
    </g>
    <g transform="matrix(0.3039,-0.952704,0.952704,0.3039,41.7935,852.568)">
        <path d="M582.99,469.269C583.234,469.063 583.378,468.746 583.348,468.404C583.3,467.845 582.807,467.431 582.248,467.48C581.802,467.519 581.547,467.698 581.359,467.917C581.21,468.09 581.096,468.338 581.024,468.714C580.48,471.583 580.551,474.492 580.923,477.418C581.74,483.846 584.056,490.353 584.056,496.659C584.056,497.219 584.511,497.675 585.072,497.675C585.632,497.675 586.088,497.219 586.088,496.659C586.088,490.271 583.767,483.673 582.938,477.162C582.601,474.509 582.519,471.87 582.99,469.269Z"/>
    </g>
    <g transform="matrix(-0.696271,0.717779,-0.717779,-0.696271,1392.04,416.914)">
        <path d="M582.99,469.269C583.234,469.063 583.378,468.746 583.348,468.404C583.3,467.845 582.807,467.431 582.248,467.48C581.802,467.519 581.547,467.698 581.359,467.917C581.21,468.09 581.096,468.338 581.024,468.714C580.48,471.583 580.551,474.492 580.923,477.418C581.74,483.846 584.056,490.353 584.056,496.659C584.056,497.219 584.511,497.675 585.072,497.675C585.632,497.675 586.088,497.219 586.088,496.659C586.088,490.271 583.767,483.673 582.938,477.162C582.601,474.509 582.519,471.87 582.99,469.269Z"/>
    </g>
    <g transform="matrix(0.3039,-0.952704,0.952704,0.3039,-52.3872,685.185)">
        <path d="M582.99,469.269C583.234,469.063 583.378,468.746 583.348,468.404C583.3,467.845 582.807,467.431 582.248,467.48C581.802,467.519 581.547,467.698 581.359,467.917C581.21,468.09 581.096,468.338 581.024,468.714C580.48,471.583 580.551,474.492 580.923,477.418C581.74,483.846 584.056,490.353 584.056,496.659C584.056,497.219 584.511,497.675 585.072,497.675C585.632,497.675 586.088,497.219 586.088,496.659C586.088,490.271 583.767,483.673 582.938,477.162C582.601,474.509 582.519,471.87 582.99,469.269Z"/>
    </g>
    <g transform="matrix(0.3039,-0.952704,0.952704,0.3039,41.7935,852.568)">
        <path d="M582.08,484.869C582.294,484.859 582.506,484.779 582.682,484.629C583.543,483.895 583.127,483.103 583.072,483.028C583.006,482.937 582.41,482.365 581.573,482.811C580.887,483.176 578.538,484.707 577.442,484.975C576.542,485.194 575.676,485.242 574.828,485.204C572.519,485.099 570.331,484.406 568.018,484.406C567.457,484.406 567.002,484.862 567.002,485.422C567.002,485.983 567.457,486.438 568.018,486.438C570.3,486.438 572.458,487.13 574.736,487.234C575.77,487.281 576.826,487.216 577.923,486.949C578.866,486.719 581.118,485.434 582.08,484.869Z"/>
    </g>
    <g transform="matrix(-0.696271,0.717779,-0.717779,-0.696271,1392.04,416.914)">
        <path d="M582.08,484.869C582.294,484.859 582.506,484.779 582.682,484.629C583.543,483.895 583.127,483.103 583.072,483.028C583.006,482.937 582.41,482.365 581.573,482.811C580.887,483.176 578.538,484.707 577.442,484.975C576.542,485.194 575.676,485.242 574.828,485.204C572.519,485.099 570.331,484.406 568.018,484.406C567.457,484.406 567.002,484.862 567.002,485.422C567.002,485.983 567.457,486.438 568.018,486.438C570.3,486.438 572.458,487.13 574.736,487.234C575.77,487.281 576.826,487.216 577.923,486.949C578.866,486.719 581.118,485.434 582.08,484.869Z"/>
    </g>
    <g transform="matrix(0.3039,-0.952704,0.952704,0.3039,-52.3872,685.185)">
        <path d="M582.08,484.869C582.294,484.859 582.506,484.779 582.682,484.629C583.543,483.895 583.127,483.103 583.072,483.028C583.006,482.937 582.41,482.365 581.573,482.811C580.887,483.176 578.538,484.707 577.442,484.975C576.542,485.194 575.676,485.242 574.828,485.204C572.519,485.099 570.331,484.406 568.018,484.406C567.457,484.406 567.002,484.862 567.002,485.422C567.002,485.983 567.457,486.438 568.018,486.438C570.3,486.438 572.458,487.13 574.736,487.234C575.77,487.281 576.826,487.216 577.923,486.949C578.866,486.719 581.118,485.434 582.08,484.869Z"/>
    </g>
    <g transform="matrix(1,0,0,1,506.588,-229.838)">
        <text x="165.397px" y="400.303px" style="font-family:'ArialMT', 'Arial', sans-serif;font-size:50.575px;">1</text>
    </g>
    <g transform="matrix(1,0,0,1,409.021,-65.6271)">
        <text x="165.397px" y="400.303px" style="font-family:'ArialMT', 'Arial', sans-serif;font-size:50.575px;">8</text>
    </g>
    <g transform="matrix(1,0,0,1,480.254,101.496)">
        <text x="165.397px" y="400.303px" style="font-family:'ArialMT', 'Arial', sans-serif;font-size:50.575px;">12</text>
    </g>
    <g transform="matrix(1,0,0,1,674.281,16.0146)">
        <text x="165.397px" y="400.303px" style="font-family:'ArialMT', 'Arial', sans-serif;font-size:50.575px;">5</text>
    </g>
    <g transform="matrix(1,0,0,1,673.797,-144.344)">
        <text x="165.397px" y="400.303px" style="font-family:'ArialMT', 'Arial', sans-serif;font-size:50.575px;">6</text>
    </g>
</svg>
