<?xml version="1.0" encoding="UTF-8" standalone="no"?>
<!DOCTYPE svg PUBLIC "-//W3C//DTD SVG 1.1//EN" "http://www.w3.org/Graphics/SVG/1.1/DTD/svg11.dtd">
<svg width="100%" height="100%" viewBox="0 0 825 517" version="1.1" xmlns="http://www.w3.org/2000/svg" xmlns:xlink="http://www.w3.org/1999/xlink" xml:space="preserve" xmlns:serif="http://www.serif.com/" style="fill-rule:evenodd;clip-rule:evenodd;stroke-linejoin:round;stroke-miterlimit:2;">
    <g transform="matrix(0.172587,0,0,0.187884,428.89,341.961)">
        <path d="M709.448,275.968C622.817,258.15 534.897,249.119 448.164,249.119C361.431,249.119 273.531,258.15 186.88,275.968C175.677,278.262 166.523,286.392 162.918,297.308C116.777,437.494 116.777,579.645 162.918,719.831C166.502,730.706 175.657,738.836 186.88,741.151C273.531,758.948 361.431,768 448.164,768C534.856,768 622.817,758.948 709.448,741.11C720.712,738.816 729.825,730.685 733.45,719.79C779.571,579.604 779.571,437.453 733.45,297.267C729.825,286.392 720.691,278.262 709.448,275.948L709.448,275.968ZM703.017,709.816C533.135,744.694 363.213,744.694 193.352,709.816C149.156,575.631 149.156,441.487 193.352,307.282C363.233,272.364 533.156,272.364 703.017,307.282C747.213,441.467 747.213,575.611 703.017,709.816ZM987.32,202.24C981.135,176.189 959.324,156.733 932.762,153.539C793.231,136.581 651.735,128 512.164,128C372.613,128 231.117,136.581 91.587,153.498C65.024,156.733 43.233,176.148 37.069,202.24C-11.858,407.777 -11.858,616.182 37.069,821.76C43.254,847.811 65.044,867.267 91.587,870.441C158.822,878.633 226.509,884.613 294.175,888.873C290.529,891.208 288.154,893.583 288.154,896C288.154,913.695 388.444,928.01 512.164,928.01C635.884,928.01 736.174,913.715 736.174,896C736.174,893.563 733.798,891.208 730.153,888.873C797.839,884.613 865.505,878.633 932.721,870.441C959.283,867.246 981.094,847.811 987.279,821.76C1036.27,616.182 1036.27,407.777 987.341,202.24L987.32,202.24ZM925.061,806.953C649.789,840.335 374.538,840.335 99.308,806.953C52.49,610.304 52.49,413.676 99.308,217.068C374.579,183.665 649.83,183.665 925.061,217.068C971.878,413.676 971.878,610.324 925.061,806.953ZM848.2,384C874.701,384 896.205,362.496 896.205,335.995C896.205,309.494 874.701,287.99 848.2,287.99C821.699,287.99 800.195,309.494 800.195,335.995C800.195,362.496 821.699,384 848.2,384ZM848.2,320C857.006,320 864.195,327.209 864.195,335.995C864.195,344.781 856.986,351.99 848.2,351.99C839.414,351.99 832.205,344.781 832.205,335.995C832.205,327.209 839.373,320 848.2,320ZM880.189,704C888.996,704 896.184,711.127 896.184,719.995C896.184,728.801 888.975,735.99 880.189,735.99L784.179,735.99C775.311,735.99 768.184,728.781 768.184,719.995C768.184,711.127 775.311,704 784.179,704L880.189,704ZM912.2,608.01C921.006,608.01 928.195,615.137 928.195,624.005C928.195,632.812 920.986,640 912.2,640L816.189,640C807.322,640 800.195,632.791 800.195,624.005C800.195,615.137 807.322,608.01 816.189,608.01L912.2,608.01ZM912.2,512C921.006,512 928.195,519.168 928.195,527.995C928.195,536.822 920.986,543.99 912.2,543.99L816.189,543.99C807.322,543.99 800.195,536.822 800.195,527.995C800.195,519.168 807.322,512 816.189,512L912.2,512ZM432.169,377.733C440.996,377.385 448.164,384.266 448.164,393.093C448.164,401.92 440.955,409.354 432.169,409.661L312.197,417.894C303.452,418.796 295.342,426.66 294.154,435.364L288.809,496.005C288.461,504.812 280.965,512 272.241,512C263.475,512 256.655,504.791 257.106,496.005L266.875,406.856C268.349,398.152 276.705,390.205 285.43,389.222L432.189,377.733L432.169,377.733Z" style="fill-rule:nonzero;"/>
    </g>
    <g transform="matrix(0.172587,0,0,0.187884,212.78,341.961)">
        <path d="M709.448,275.968C622.817,258.15 534.897,249.119 448.164,249.119C361.431,249.119 273.531,258.15 186.88,275.968C175.677,278.262 166.523,286.392 162.918,297.308C116.777,437.494 116.777,579.645 162.918,719.831C166.502,730.706 175.657,738.836 186.88,741.151C273.531,758.948 361.431,768 448.164,768C534.856,768 622.817,758.948 709.448,741.11C720.712,738.816 729.825,730.685 733.45,719.79C779.571,579.604 779.571,437.453 733.45,297.267C729.825,286.392 720.691,278.262 709.448,275.948L709.448,275.968ZM703.017,709.816C533.135,744.694 363.213,744.694 193.352,709.816C149.156,575.631 149.156,441.487 193.352,307.282C363.233,272.364 533.156,272.364 703.017,307.282C747.213,441.467 747.213,575.611 703.017,709.816ZM987.32,202.24C981.135,176.189 959.324,156.733 932.762,153.539C793.231,136.581 651.735,128 512.164,128C372.613,128 231.117,136.581 91.587,153.498C65.024,156.733 43.233,176.148 37.069,202.24C-11.858,407.777 -11.858,616.182 37.069,821.76C43.254,847.811 65.044,867.267 91.587,870.441C158.822,878.633 226.509,884.613 294.175,888.873C290.529,891.208 288.154,893.583 288.154,896C288.154,913.695 388.444,928.01 512.164,928.01C635.884,928.01 736.174,913.715 736.174,896C736.174,893.563 733.798,891.208 730.153,888.873C797.839,884.613 865.505,878.633 932.721,870.441C959.283,867.246 981.094,847.811 987.279,821.76C1036.27,616.182 1036.27,407.777 987.341,202.24L987.32,202.24ZM925.061,806.953C649.789,840.335 374.538,840.335 99.308,806.953C52.49,610.304 52.49,413.676 99.308,217.068C374.579,183.665 649.83,183.665 925.061,217.068C971.878,413.676 971.878,610.324 925.061,806.953ZM848.2,384C874.701,384 896.205,362.496 896.205,335.995C896.205,309.494 874.701,287.99 848.2,287.99C821.699,287.99 800.195,309.494 800.195,335.995C800.195,362.496 821.699,384 848.2,384ZM848.2,320C857.006,320 864.195,327.209 864.195,335.995C864.195,344.781 856.986,351.99 848.2,351.99C839.414,351.99 832.205,344.781 832.205,335.995C832.205,327.209 839.373,320 848.2,320ZM880.189,704C888.996,704 896.184,711.127 896.184,719.995C896.184,728.801 888.975,735.99 880.189,735.99L784.179,735.99C775.311,735.99 768.184,728.781 768.184,719.995C768.184,711.127 775.311,704 784.179,704L880.189,704ZM912.2,608.01C921.006,608.01 928.195,615.137 928.195,624.005C928.195,632.812 920.986,640 912.2,640L816.189,640C807.322,640 800.195,632.791 800.195,624.005C800.195,615.137 807.322,608.01 816.189,608.01L912.2,608.01ZM912.2,512C921.006,512 928.195,519.168 928.195,527.995C928.195,536.822 920.986,543.99 912.2,543.99L816.189,543.99C807.322,543.99 800.195,536.822 800.195,527.995C800.195,519.168 807.322,512 816.189,512L912.2,512ZM432.169,377.733C440.996,377.385 448.164,384.266 448.164,393.093C448.164,401.92 440.955,409.354 432.169,409.661L312.197,417.894C303.452,418.796 295.342,426.66 294.154,435.364L288.809,496.005C288.461,504.812 280.965,512 272.241,512C263.475,512 256.655,504.791 257.106,496.005L266.875,406.856C268.349,398.152 276.705,390.205 285.43,389.222L432.189,377.733L432.169,377.733Z" style="fill-rule:nonzero;"/>
    </g>
    <g transform="matrix(0.172587,0,0,0.187884,-0.0645063,340.585)">
        <path d="M709.448,275.968C622.817,258.15 534.897,249.119 448.164,249.119C361.431,249.119 273.531,258.15 186.88,275.968C175.677,278.262 166.523,286.392 162.918,297.308C116.777,437.494 116.777,579.645 162.918,719.831C166.502,730.706 175.657,738.836 186.88,741.151C273.531,758.948 361.431,768 448.164,768C534.856,768 622.817,758.948 709.448,741.11C720.712,738.816 729.825,730.685 733.45,719.79C779.571,579.604 779.571,437.453 733.45,297.267C729.825,286.392 720.691,278.262 709.448,275.948L709.448,275.968ZM703.017,709.816C533.135,744.694 363.213,744.694 193.352,709.816C149.156,575.631 149.156,441.487 193.352,307.282C363.233,272.364 533.156,272.364 703.017,307.282C747.213,441.467 747.213,575.611 703.017,709.816ZM987.32,202.24C981.135,176.189 959.324,156.733 932.762,153.539C793.231,136.581 651.735,128 512.164,128C372.613,128 231.117,136.581 91.587,153.498C65.024,156.733 43.233,176.148 37.069,202.24C-11.858,407.777 -11.858,616.182 37.069,821.76C43.254,847.811 65.044,867.267 91.587,870.441C158.822,878.633 226.509,884.613 294.175,888.873C290.529,891.208 288.154,893.583 288.154,896C288.154,913.695 388.444,928.01 512.164,928.01C635.884,928.01 736.174,913.715 736.174,896C736.174,893.563 733.798,891.208 730.153,888.873C797.839,884.613 865.505,878.633 932.721,870.441C959.283,867.246 981.094,847.811 987.279,821.76C1036.27,616.182 1036.27,407.777 987.341,202.24L987.32,202.24ZM925.061,806.953C649.789,840.335 374.538,840.335 99.308,806.953C52.49,610.304 52.49,413.676 99.308,217.068C374.579,183.665 649.83,183.665 925.061,217.068C971.878,413.676 971.878,610.324 925.061,806.953ZM848.2,384C874.701,384 896.205,362.496 896.205,335.995C896.205,309.494 874.701,287.99 848.2,287.99C821.699,287.99 800.195,309.494 800.195,335.995C800.195,362.496 821.699,384 848.2,384ZM848.2,320C857.006,320 864.195,327.209 864.195,335.995C864.195,344.781 856.986,351.99 848.2,351.99C839.414,351.99 832.205,344.781 832.205,335.995C832.205,327.209 839.373,320 848.2,320ZM880.189,704C888.996,704 896.184,711.127 896.184,719.995C896.184,728.801 888.975,735.99 880.189,735.99L784.179,735.99C775.311,735.99 768.184,728.781 768.184,719.995C768.184,711.127 775.311,704 784.179,704L880.189,704ZM912.2,608.01C921.006,608.01 928.195,615.137 928.195,624.005C928.195,632.812 920.986,640 912.2,640L816.189,640C807.322,640 800.195,632.791 800.195,624.005C800.195,615.137 807.322,608.01 816.189,608.01L912.2,608.01ZM912.2,512C921.006,512 928.195,519.168 928.195,527.995C928.195,536.822 920.986,543.99 912.2,543.99L816.189,543.99C807.322,543.99 800.195,536.822 800.195,527.995C800.195,519.168 807.322,512 816.189,512L912.2,512ZM432.169,377.733C440.996,377.385 448.164,384.266 448.164,393.093C448.164,401.92 440.955,409.354 432.169,409.661L312.197,417.894C303.452,418.796 295.342,426.66 294.154,435.364L288.809,496.005C288.461,504.812 280.965,512 272.241,512C263.475,512 256.655,504.791 257.106,496.005L266.875,406.856C268.349,398.152 276.705,390.205 285.43,389.222L432.189,377.733L432.169,377.733Z" style="fill-rule:nonzero;"/>
    </g>
    <g transform="matrix(0.172587,0,0,0.187884,428.89,161.106)">
        <path d="M709.448,275.968C622.817,258.15 534.897,249.119 448.164,249.119C361.431,249.119 273.531,258.15 186.88,275.968C175.677,278.262 166.523,286.392 162.918,297.308C116.777,437.494 116.777,579.645 162.918,719.831C166.502,730.706 175.657,738.836 186.88,741.151C273.531,758.948 361.431,768 448.164,768C534.856,768 622.817,758.948 709.448,741.11C720.712,738.816 729.825,730.685 733.45,719.79C779.571,579.604 779.571,437.453 733.45,297.267C729.825,286.392 720.691,278.262 709.448,275.948L709.448,275.968ZM703.017,709.816C533.135,744.694 363.213,744.694 193.352,709.816C149.156,575.631 149.156,441.487 193.352,307.282C363.233,272.364 533.156,272.364 703.017,307.282C747.213,441.467 747.213,575.611 703.017,709.816ZM987.32,202.24C981.135,176.189 959.324,156.733 932.762,153.539C793.231,136.581 651.735,128 512.164,128C372.613,128 231.117,136.581 91.587,153.498C65.024,156.733 43.233,176.148 37.069,202.24C-11.858,407.777 -11.858,616.182 37.069,821.76C43.254,847.811 65.044,867.267 91.587,870.441C158.822,878.633 226.509,884.613 294.175,888.873C290.529,891.208 288.154,893.583 288.154,896C288.154,913.695 388.444,928.01 512.164,928.01C635.884,928.01 736.174,913.715 736.174,896C736.174,893.563 733.798,891.208 730.153,888.873C797.839,884.613 865.505,878.633 932.721,870.441C959.283,867.246 981.094,847.811 987.279,821.76C1036.27,616.182 1036.27,407.777 987.341,202.24L987.32,202.24ZM925.061,806.953C649.789,840.335 374.538,840.335 99.308,806.953C52.49,610.304 52.49,413.676 99.308,217.068C374.579,183.665 649.83,183.665 925.061,217.068C971.878,413.676 971.878,610.324 925.061,806.953ZM848.2,384C874.701,384 896.205,362.496 896.205,335.995C896.205,309.494 874.701,287.99 848.2,287.99C821.699,287.99 800.195,309.494 800.195,335.995C800.195,362.496 821.699,384 848.2,384ZM848.2,320C857.006,320 864.195,327.209 864.195,335.995C864.195,344.781 856.986,351.99 848.2,351.99C839.414,351.99 832.205,344.781 832.205,335.995C832.205,327.209 839.373,320 848.2,320ZM880.189,704C888.996,704 896.184,711.127 896.184,719.995C896.184,728.801 888.975,735.99 880.189,735.99L784.179,735.99C775.311,735.99 768.184,728.781 768.184,719.995C768.184,711.127 775.311,704 784.179,704L880.189,704ZM912.2,608.01C921.006,608.01 928.195,615.137 928.195,624.005C928.195,632.812 920.986,640 912.2,640L816.189,640C807.322,640 800.195,632.791 800.195,624.005C800.195,615.137 807.322,608.01 816.189,608.01L912.2,608.01ZM912.2,512C921.006,512 928.195,519.168 928.195,527.995C928.195,536.822 920.986,543.99 912.2,543.99L816.189,543.99C807.322,543.99 800.195,536.822 800.195,527.995C800.195,519.168 807.322,512 816.189,512L912.2,512ZM432.169,377.733C440.996,377.385 448.164,384.266 448.164,393.093C448.164,401.92 440.955,409.354 432.169,409.661L312.197,417.894C303.452,418.796 295.342,426.66 294.154,435.364L288.809,496.005C288.461,504.812 280.965,512 272.241,512C263.475,512 256.655,504.791 257.106,496.005L266.875,406.856C268.349,398.152 276.705,390.205 285.43,389.222L432.189,377.733L432.169,377.733Z" style="fill-rule:nonzero;"/>
    </g>
    <g transform="matrix(0.172587,0,0,0.187884,212.78,161.106)">
        <path d="M709.448,275.968C622.817,258.15 534.897,249.119 448.164,249.119C361.431,249.119 273.531,258.15 186.88,275.968C175.677,278.262 166.523,286.392 162.918,297.308C116.777,437.494 116.777,579.645 162.918,719.831C166.502,730.706 175.657,738.836 186.88,741.151C273.531,758.948 361.431,768 448.164,768C534.856,768 622.817,758.948 709.448,741.11C720.712,738.816 729.825,730.685 733.45,719.79C779.571,579.604 779.571,437.453 733.45,297.267C729.825,286.392 720.691,278.262 709.448,275.948L709.448,275.968ZM703.017,709.816C533.135,744.694 363.213,744.694 193.352,709.816C149.156,575.631 149.156,441.487 193.352,307.282C363.233,272.364 533.156,272.364 703.017,307.282C747.213,441.467 747.213,575.611 703.017,709.816ZM987.32,202.24C981.135,176.189 959.324,156.733 932.762,153.539C793.231,136.581 651.735,128 512.164,128C372.613,128 231.117,136.581 91.587,153.498C65.024,156.733 43.233,176.148 37.069,202.24C-11.858,407.777 -11.858,616.182 37.069,821.76C43.254,847.811 65.044,867.267 91.587,870.441C158.822,878.633 226.509,884.613 294.175,888.873C290.529,891.208 288.154,893.583 288.154,896C288.154,913.695 388.444,928.01 512.164,928.01C635.884,928.01 736.174,913.715 736.174,896C736.174,893.563 733.798,891.208 730.153,888.873C797.839,884.613 865.505,878.633 932.721,870.441C959.283,867.246 981.094,847.811 987.279,821.76C1036.27,616.182 1036.27,407.777 987.341,202.24L987.32,202.24ZM925.061,806.953C649.789,840.335 374.538,840.335 99.308,806.953C52.49,610.304 52.49,413.676 99.308,217.068C374.579,183.665 649.83,183.665 925.061,217.068C971.878,413.676 971.878,610.324 925.061,806.953ZM848.2,384C874.701,384 896.205,362.496 896.205,335.995C896.205,309.494 874.701,287.99 848.2,287.99C821.699,287.99 800.195,309.494 800.195,335.995C800.195,362.496 821.699,384 848.2,384ZM848.2,320C857.006,320 864.195,327.209 864.195,335.995C864.195,344.781 856.986,351.99 848.2,351.99C839.414,351.99 832.205,344.781 832.205,335.995C832.205,327.209 839.373,320 848.2,320ZM880.189,704C888.996,704 896.184,711.127 896.184,719.995C896.184,728.801 888.975,735.99 880.189,735.99L784.179,735.99C775.311,735.99 768.184,728.781 768.184,719.995C768.184,711.127 775.311,704 784.179,704L880.189,704ZM912.2,608.01C921.006,608.01 928.195,615.137 928.195,624.005C928.195,632.812 920.986,640 912.2,640L816.189,640C807.322,640 800.195,632.791 800.195,624.005C800.195,615.137 807.322,608.01 816.189,608.01L912.2,608.01ZM912.2,512C921.006,512 928.195,519.168 928.195,527.995C928.195,536.822 920.986,543.99 912.2,543.99L816.189,543.99C807.322,543.99 800.195,536.822 800.195,527.995C800.195,519.168 807.322,512 816.189,512L912.2,512ZM432.169,377.733C440.996,377.385 448.164,384.266 448.164,393.093C448.164,401.92 440.955,409.354 432.169,409.661L312.197,417.894C303.452,418.796 295.342,426.66 294.154,435.364L288.809,496.005C288.461,504.812 280.965,512 272.241,512C263.475,512 256.655,504.791 257.106,496.005L266.875,406.856C268.349,398.152 276.705,390.205 285.43,389.222L432.189,377.733L432.169,377.733Z" style="fill-rule:nonzero;"/>
    </g>
    <g transform="matrix(0.172587,0,0,0.187884,-0.0645063,159.729)">
        <path d="M709.448,275.968C622.817,258.15 534.897,249.119 448.164,249.119C361.431,249.119 273.531,258.15 186.88,275.968C175.677,278.262 166.523,286.392 162.918,297.308C116.777,437.494 116.777,579.645 162.918,719.831C166.502,730.706 175.657,738.836 186.88,741.151C273.531,758.948 361.431,768 448.164,768C534.856,768 622.817,758.948 709.448,741.11C720.712,738.816 729.825,730.685 733.45,719.79C779.571,579.604 779.571,437.453 733.45,297.267C729.825,286.392 720.691,278.262 709.448,275.948L709.448,275.968ZM703.017,709.816C533.135,744.694 363.213,744.694 193.352,709.816C149.156,575.631 149.156,441.487 193.352,307.282C363.233,272.364 533.156,272.364 703.017,307.282C747.213,441.467 747.213,575.611 703.017,709.816ZM987.32,202.24C981.135,176.189 959.324,156.733 932.762,153.539C793.231,136.581 651.735,128 512.164,128C372.613,128 231.117,136.581 91.587,153.498C65.024,156.733 43.233,176.148 37.069,202.24C-11.858,407.777 -11.858,616.182 37.069,821.76C43.254,847.811 65.044,867.267 91.587,870.441C158.822,878.633 226.509,884.613 294.175,888.873C290.529,891.208 288.154,893.583 288.154,896C288.154,913.695 388.444,928.01 512.164,928.01C635.884,928.01 736.174,913.715 736.174,896C736.174,893.563 733.798,891.208 730.153,888.873C797.839,884.613 865.505,878.633 932.721,870.441C959.283,867.246 981.094,847.811 987.279,821.76C1036.27,616.182 1036.27,407.777 987.341,202.24L987.32,202.24ZM925.061,806.953C649.789,840.335 374.538,840.335 99.308,806.953C52.49,610.304 52.49,413.676 99.308,217.068C374.579,183.665 649.83,183.665 925.061,217.068C971.878,413.676 971.878,610.324 925.061,806.953ZM848.2,384C874.701,384 896.205,362.496 896.205,335.995C896.205,309.494 874.701,287.99 848.2,287.99C821.699,287.99 800.195,309.494 800.195,335.995C800.195,362.496 821.699,384 848.2,384ZM848.2,320C857.006,320 864.195,327.209 864.195,335.995C864.195,344.781 856.986,351.99 848.2,351.99C839.414,351.99 832.205,344.781 832.205,335.995C832.205,327.209 839.373,320 848.2,320ZM880.189,704C888.996,704 896.184,711.127 896.184,719.995C896.184,728.801 888.975,735.99 880.189,735.99L784.179,735.99C775.311,735.99 768.184,728.781 768.184,719.995C768.184,711.127 775.311,704 784.179,704L880.189,704ZM912.2,608.01C921.006,608.01 928.195,615.137 928.195,624.005C928.195,632.812 920.986,640 912.2,640L816.189,640C807.322,640 800.195,632.791 800.195,624.005C800.195,615.137 807.322,608.01 816.189,608.01L912.2,608.01ZM912.2,512C921.006,512 928.195,519.168 928.195,527.995C928.195,536.822 920.986,543.99 912.2,543.99L816.189,543.99C807.322,543.99 800.195,536.822 800.195,527.995C800.195,519.168 807.322,512 816.189,512L912.2,512ZM432.169,377.733C440.996,377.385 448.164,384.266 448.164,393.093C448.164,401.92 440.955,409.354 432.169,409.661L312.197,417.894C303.452,418.796 295.342,426.66 294.154,435.364L288.809,496.005C288.461,504.812 280.965,512 272.241,512C263.475,512 256.655,504.791 257.106,496.005L266.875,406.856C268.349,398.152 276.705,390.205 285.43,389.222L432.189,377.733L432.169,377.733Z" style="fill-rule:nonzero;"/>
    </g>
    <g transform="matrix(0.172587,0,0,0.187884,428.89,-22.6723)">
        <path d="M709.448,275.968C622.817,258.15 534.897,249.119 448.164,249.119C361.431,249.119 273.531,258.15 186.88,275.968C175.677,278.262 166.523,286.392 162.918,297.308C116.777,437.494 116.777,579.645 162.918,719.831C166.502,730.706 175.657,738.836 186.88,741.151C273.531,758.948 361.431,768 448.164,768C534.856,768 622.817,758.948 709.448,741.11C720.712,738.816 729.825,730.685 733.45,719.79C779.571,579.604 779.571,437.453 733.45,297.267C729.825,286.392 720.691,278.262 709.448,275.948L709.448,275.968ZM703.017,709.816C533.135,744.694 363.213,744.694 193.352,709.816C149.156,575.631 149.156,441.487 193.352,307.282C363.233,272.364 533.156,272.364 703.017,307.282C747.213,441.467 747.213,575.611 703.017,709.816ZM987.32,202.24C981.135,176.189 959.324,156.733 932.762,153.539C793.231,136.581 651.735,128 512.164,128C372.613,128 231.117,136.581 91.587,153.498C65.024,156.733 43.233,176.148 37.069,202.24C-11.858,407.777 -11.858,616.182 37.069,821.76C43.254,847.811 65.044,867.267 91.587,870.441C158.822,878.633 226.509,884.613 294.175,888.873C290.529,891.208 288.154,893.583 288.154,896C288.154,913.695 388.444,928.01 512.164,928.01C635.884,928.01 736.174,913.715 736.174,896C736.174,893.563 733.798,891.208 730.153,888.873C797.839,884.613 865.505,878.633 932.721,870.441C959.283,867.246 981.094,847.811 987.279,821.76C1036.27,616.182 1036.27,407.777 987.341,202.24L987.32,202.24ZM925.061,806.953C649.789,840.335 374.538,840.335 99.308,806.953C52.49,610.304 52.49,413.676 99.308,217.068C374.579,183.665 649.83,183.665 925.061,217.068C971.878,413.676 971.878,610.324 925.061,806.953ZM848.2,384C874.701,384 896.205,362.496 896.205,335.995C896.205,309.494 874.701,287.99 848.2,287.99C821.699,287.99 800.195,309.494 800.195,335.995C800.195,362.496 821.699,384 848.2,384ZM848.2,320C857.006,320 864.195,327.209 864.195,335.995C864.195,344.781 856.986,351.99 848.2,351.99C839.414,351.99 832.205,344.781 832.205,335.995C832.205,327.209 839.373,320 848.2,320ZM880.189,704C888.996,704 896.184,711.127 896.184,719.995C896.184,728.801 888.975,735.99 880.189,735.99L784.179,735.99C775.311,735.99 768.184,728.781 768.184,719.995C768.184,711.127 775.311,704 784.179,704L880.189,704ZM912.2,608.01C921.006,608.01 928.195,615.137 928.195,624.005C928.195,632.812 920.986,640 912.2,640L816.189,640C807.322,640 800.195,632.791 800.195,624.005C800.195,615.137 807.322,608.01 816.189,608.01L912.2,608.01ZM912.2,512C921.006,512 928.195,519.168 928.195,527.995C928.195,536.822 920.986,543.99 912.2,543.99L816.189,543.99C807.322,543.99 800.195,536.822 800.195,527.995C800.195,519.168 807.322,512 816.189,512L912.2,512ZM432.169,377.733C440.996,377.385 448.164,384.266 448.164,393.093C448.164,401.92 440.955,409.354 432.169,409.661L312.197,417.894C303.452,418.796 295.342,426.66 294.154,435.364L288.809,496.005C288.461,504.812 280.965,512 272.241,512C263.475,512 256.655,504.791 257.106,496.005L266.875,406.856C268.349,398.152 276.705,390.205 285.43,389.222L432.189,377.733L432.169,377.733Z" style="fill-rule:nonzero;"/>
    </g>
    <g transform="matrix(0.172587,0,0,0.187884,212.78,-22.6723)">
        <path d="M709.448,275.968C622.817,258.15 534.897,249.119 448.164,249.119C361.431,249.119 273.531,258.15 186.88,275.968C175.677,278.262 166.523,286.392 162.918,297.308C116.777,437.494 116.777,579.645 162.918,719.831C166.502,730.706 175.657,738.836 186.88,741.151C273.531,758.948 361.431,768 448.164,768C534.856,768 622.817,758.948 709.448,741.11C720.712,738.816 729.825,730.685 733.45,719.79C779.571,579.604 779.571,437.453 733.45,297.267C729.825,286.392 720.691,278.262 709.448,275.948L709.448,275.968ZM703.017,709.816C533.135,744.694 363.213,744.694 193.352,709.816C149.156,575.631 149.156,441.487 193.352,307.282C363.233,272.364 533.156,272.364 703.017,307.282C747.213,441.467 747.213,575.611 703.017,709.816ZM987.32,202.24C981.135,176.189 959.324,156.733 932.762,153.539C793.231,136.581 651.735,128 512.164,128C372.613,128 231.117,136.581 91.587,153.498C65.024,156.733 43.233,176.148 37.069,202.24C-11.858,407.777 -11.858,616.182 37.069,821.76C43.254,847.811 65.044,867.267 91.587,870.441C158.822,878.633 226.509,884.613 294.175,888.873C290.529,891.208 288.154,893.583 288.154,896C288.154,913.695 388.444,928.01 512.164,928.01C635.884,928.01 736.174,913.715 736.174,896C736.174,893.563 733.798,891.208 730.153,888.873C797.839,884.613 865.505,878.633 932.721,870.441C959.283,867.246 981.094,847.811 987.279,821.76C1036.27,616.182 1036.27,407.777 987.341,202.24L987.32,202.24ZM925.061,806.953C649.789,840.335 374.538,840.335 99.308,806.953C52.49,610.304 52.49,413.676 99.308,217.068C374.579,183.665 649.83,183.665 925.061,217.068C971.878,413.676 971.878,610.324 925.061,806.953ZM848.2,384C874.701,384 896.205,362.496 896.205,335.995C896.205,309.494 874.701,287.99 848.2,287.99C821.699,287.99 800.195,309.494 800.195,335.995C800.195,362.496 821.699,384 848.2,384ZM848.2,320C857.006,320 864.195,327.209 864.195,335.995C864.195,344.781 856.986,351.99 848.2,351.99C839.414,351.99 832.205,344.781 832.205,335.995C832.205,327.209 839.373,320 848.2,320ZM880.189,704C888.996,704 896.184,711.127 896.184,719.995C896.184,728.801 888.975,735.99 880.189,735.99L784.179,735.99C775.311,735.99 768.184,728.781 768.184,719.995C768.184,711.127 775.311,704 784.179,704L880.189,704ZM912.2,608.01C921.006,608.01 928.195,615.137 928.195,624.005C928.195,632.812 920.986,640 912.2,640L816.189,640C807.322,640 800.195,632.791 800.195,624.005C800.195,615.137 807.322,608.01 816.189,608.01L912.2,608.01ZM912.2,512C921.006,512 928.195,519.168 928.195,527.995C928.195,536.822 920.986,543.99 912.2,543.99L816.189,543.99C807.322,543.99 800.195,536.822 800.195,527.995C800.195,519.168 807.322,512 816.189,512L912.2,512ZM432.169,377.733C440.996,377.385 448.164,384.266 448.164,393.093C448.164,401.92 440.955,409.354 432.169,409.661L312.197,417.894C303.452,418.796 295.342,426.66 294.154,435.364L288.809,496.005C288.461,504.812 280.965,512 272.241,512C263.475,512 256.655,504.791 257.106,496.005L266.875,406.856C268.349,398.152 276.705,390.205 285.43,389.222L432.189,377.733L432.169,377.733Z" style="fill-rule:nonzero;"/>
    </g>
    <g transform="matrix(0.172587,0,0,0.187884,-0.0645063,-24.0491)">
        <path d="M709.448,275.968C622.817,258.15 534.897,249.119 448.164,249.119C361.431,249.119 273.531,258.15 186.88,275.968C175.677,278.262 166.523,286.392 162.918,297.308C116.777,437.494 116.777,579.645 162.918,719.831C166.502,730.706 175.657,738.836 186.88,741.151C273.531,758.948 361.431,768 448.164,768C534.856,768 622.817,758.948 709.448,741.11C720.712,738.816 729.825,730.685 733.45,719.79C779.571,579.604 779.571,437.453 733.45,297.267C729.825,286.392 720.691,278.262 709.448,275.948L709.448,275.968ZM703.017,709.816C533.135,744.694 363.213,744.694 193.352,709.816C149.156,575.631 149.156,441.487 193.352,307.282C363.233,272.364 533.156,272.364 703.017,307.282C747.213,441.467 747.213,575.611 703.017,709.816ZM987.32,202.24C981.135,176.189 959.324,156.733 932.762,153.539C793.231,136.581 651.735,128 512.164,128C372.613,128 231.117,136.581 91.587,153.498C65.024,156.733 43.233,176.148 37.069,202.24C-11.858,407.777 -11.858,616.182 37.069,821.76C43.254,847.811 65.044,867.267 91.587,870.441C158.822,878.633 226.509,884.613 294.175,888.873C290.529,891.208 288.154,893.583 288.154,896C288.154,913.695 388.444,928.01 512.164,928.01C635.884,928.01 736.174,913.715 736.174,896C736.174,893.563 733.798,891.208 730.153,888.873C797.839,884.613 865.505,878.633 932.721,870.441C959.283,867.246 981.094,847.811 987.279,821.76C1036.27,616.182 1036.27,407.777 987.341,202.24L987.32,202.24ZM925.061,806.953C649.789,840.335 374.538,840.335 99.308,806.953C52.49,610.304 52.49,413.676 99.308,217.068C374.579,183.665 649.83,183.665 925.061,217.068C971.878,413.676 971.878,610.324 925.061,806.953ZM848.2,384C874.701,384 896.205,362.496 896.205,335.995C896.205,309.494 874.701,287.99 848.2,287.99C821.699,287.99 800.195,309.494 800.195,335.995C800.195,362.496 821.699,384 848.2,384ZM848.2,320C857.006,320 864.195,327.209 864.195,335.995C864.195,344.781 856.986,351.99 848.2,351.99C839.414,351.99 832.205,344.781 832.205,335.995C832.205,327.209 839.373,320 848.2,320ZM880.189,704C888.996,704 896.184,711.127 896.184,719.995C896.184,728.801 888.975,735.99 880.189,735.99L784.179,735.99C775.311,735.99 768.184,728.781 768.184,719.995C768.184,711.127 775.311,704 784.179,704L880.189,704ZM912.2,608.01C921.006,608.01 928.195,615.137 928.195,624.005C928.195,632.812 920.986,640 912.2,640L816.189,640C807.322,640 800.195,632.791 800.195,624.005C800.195,615.137 807.322,608.01 816.189,608.01L912.2,608.01ZM912.2,512C921.006,512 928.195,519.168 928.195,527.995C928.195,536.822 920.986,543.99 912.2,543.99L816.189,543.99C807.322,543.99 800.195,536.822 800.195,527.995C800.195,519.168 807.322,512 816.189,512L912.2,512ZM432.169,377.733C440.996,377.385 448.164,384.266 448.164,393.093C448.164,401.92 440.955,409.354 432.169,409.661L312.197,417.894C303.452,418.796 295.342,426.66 294.154,435.364L288.809,496.005C288.461,504.812 280.965,512 272.241,512C263.475,512 256.655,504.791 257.106,496.005L266.875,406.856C268.349,398.152 276.705,390.205 285.43,389.222L432.189,377.733L432.169,377.733Z" style="fill-rule:nonzero;"/>
    </g>
    <g transform="matrix(0.174093,0,0,0.190245,646.637,156.868)">
        <path d="M709.448,275.968C622.817,258.15 534.897,249.119 448.164,249.119C361.431,249.119 273.531,258.15 186.88,275.968C175.677,278.262 166.523,286.392 162.918,297.308C116.777,437.494 116.777,579.645 162.918,719.831C166.502,730.706 175.657,738.836 186.88,741.151C273.531,758.948 361.431,768 448.164,768C534.856,768 622.817,758.948 709.448,741.11C720.712,738.816 729.825,730.685 733.45,719.79C779.571,579.604 779.571,437.453 733.45,297.267C729.825,286.392 720.691,278.262 709.448,275.948L709.448,275.968ZM703.017,709.816C533.135,744.694 363.213,744.694 193.352,709.816C149.156,575.631 149.156,441.487 193.352,307.282C363.233,272.364 533.156,272.364 703.017,307.282C747.213,441.467 747.213,575.611 703.017,709.816ZM987.32,202.24C981.135,176.189 959.324,156.733 932.762,153.539C793.231,136.581 651.735,128 512.164,128C372.613,128 231.117,136.581 91.587,153.498C65.024,156.733 43.233,176.148 37.069,202.24C-11.858,407.777 -11.858,616.182 37.069,821.76C43.254,847.811 65.044,867.267 91.587,870.441C158.822,878.633 226.509,884.613 294.175,888.873C290.529,891.208 288.154,893.583 288.154,896C288.154,913.695 388.444,928.01 512.164,928.01C635.884,928.01 736.174,913.715 736.174,896C736.174,893.563 733.798,891.208 730.153,888.873C797.839,884.613 865.505,878.633 932.721,870.441C959.283,867.246 981.094,847.811 987.279,821.76C1036.27,616.182 1036.27,407.777 987.341,202.24L987.32,202.24ZM925.061,806.953C649.789,840.335 374.538,840.335 99.308,806.953C52.49,610.304 52.49,413.676 99.308,217.068C374.579,183.665 649.83,183.665 925.061,217.068C971.878,413.676 971.878,610.324 925.061,806.953ZM848.2,384C874.701,384 896.205,362.496 896.205,335.995C896.205,309.494 874.701,287.99 848.2,287.99C821.699,287.99 800.195,309.494 800.195,335.995C800.195,362.496 821.699,384 848.2,384ZM848.2,320C857.006,320 864.195,327.209 864.195,335.995C864.195,344.781 856.986,351.99 848.2,351.99C839.414,351.99 832.205,344.781 832.205,335.995C832.205,327.209 839.373,320 848.2,320ZM880.189,704C888.996,704 896.184,711.127 896.184,719.995C896.184,728.801 888.975,735.99 880.189,735.99L784.179,735.99C775.311,735.99 768.184,728.781 768.184,719.995C768.184,711.127 775.311,704 784.179,704L880.189,704ZM912.2,608.01C921.006,608.01 928.195,615.137 928.195,624.005C928.195,632.812 920.986,640 912.2,640L816.189,640C807.322,640 800.195,632.791 800.195,624.005C800.195,615.137 807.322,608.01 816.189,608.01L912.2,608.01ZM912.2,512C921.006,512 928.195,519.168 928.195,527.995C928.195,536.822 920.986,543.99 912.2,543.99L816.189,543.99C807.322,543.99 800.195,536.822 800.195,527.995C800.195,519.168 807.322,512 816.189,512L912.2,512ZM432.169,377.733C440.996,377.385 448.164,384.266 448.164,393.093C448.164,401.92 440.955,409.354 432.169,409.661L312.197,417.894C303.452,418.796 295.342,426.66 294.154,435.364L288.809,496.005C288.461,504.812 280.965,512 272.241,512C263.475,512 256.655,504.791 257.106,496.005L266.875,406.856C268.349,398.152 276.705,390.205 285.43,389.222L432.189,377.733L432.169,377.733Z" style="fill-rule:nonzero;"/>
    </g>
    <g transform="matrix(0.174093,0,0,0.190245,644.049,-18.8967)">
        <path d="M709.448,275.968C622.817,258.15 534.897,249.119 448.164,249.119C361.431,249.119 273.531,258.15 186.88,275.968C175.677,278.262 166.523,286.392 162.918,297.308C116.777,437.494 116.777,579.645 162.918,719.831C166.502,730.706 175.657,738.836 186.88,741.151C273.531,758.948 361.431,768 448.164,768C534.856,768 622.817,758.948 709.448,741.11C720.712,738.816 729.825,730.685 733.45,719.79C779.571,579.604 779.571,437.453 733.45,297.267C729.825,286.392 720.691,278.262 709.448,275.948L709.448,275.968ZM703.017,709.816C533.135,744.694 363.213,744.694 193.352,709.816C149.156,575.631 149.156,441.487 193.352,307.282C363.233,272.364 533.156,272.364 703.017,307.282C747.213,441.467 747.213,575.611 703.017,709.816ZM987.32,202.24C981.135,176.189 959.324,156.733 932.762,153.539C793.231,136.581 651.735,128 512.164,128C372.613,128 231.117,136.581 91.587,153.498C65.024,156.733 43.233,176.148 37.069,202.24C-11.858,407.777 -11.858,616.182 37.069,821.76C43.254,847.811 65.044,867.267 91.587,870.441C158.822,878.633 226.509,884.613 294.175,888.873C290.529,891.208 288.154,893.583 288.154,896C288.154,913.695 388.444,928.01 512.164,928.01C635.884,928.01 736.174,913.715 736.174,896C736.174,893.563 733.798,891.208 730.153,888.873C797.839,884.613 865.505,878.633 932.721,870.441C959.283,867.246 981.094,847.811 987.279,821.76C1036.27,616.182 1036.27,407.777 987.341,202.24L987.32,202.24ZM925.061,806.953C649.789,840.335 374.538,840.335 99.308,806.953C52.49,610.304 52.49,413.676 99.308,217.068C374.579,183.665 649.83,183.665 925.061,217.068C971.878,413.676 971.878,610.324 925.061,806.953ZM848.2,384C874.701,384 896.205,362.496 896.205,335.995C896.205,309.494 874.701,287.99 848.2,287.99C821.699,287.99 800.195,309.494 800.195,335.995C800.195,362.496 821.699,384 848.2,384ZM848.2,320C857.006,320 864.195,327.209 864.195,335.995C864.195,344.781 856.986,351.99 848.2,351.99C839.414,351.99 832.205,344.781 832.205,335.995C832.205,327.209 839.373,320 848.2,320ZM880.189,704C888.996,704 896.184,711.127 896.184,719.995C896.184,728.801 888.975,735.99 880.189,735.99L784.179,735.99C775.311,735.99 768.184,728.781 768.184,719.995C768.184,711.127 775.311,704 784.179,704L880.189,704ZM912.2,608.01C921.006,608.01 928.195,615.137 928.195,624.005C928.195,632.812 920.986,640 912.2,640L816.189,640C807.322,640 800.195,632.791 800.195,624.005C800.195,615.137 807.322,608.01 816.189,608.01L912.2,608.01ZM912.2,512C921.006,512 928.195,519.168 928.195,527.995C928.195,536.822 920.986,543.99 912.2,543.99L816.189,543.99C807.322,543.99 800.195,536.822 800.195,527.995C800.195,519.168 807.322,512 816.189,512L912.2,512ZM432.169,377.733C440.996,377.385 448.164,384.266 448.164,393.093C448.164,401.92 440.955,409.354 432.169,409.661L312.197,417.894C303.452,418.796 295.342,426.66 294.154,435.364L288.809,496.005C288.461,504.812 280.965,512 272.241,512C263.475,512 256.655,504.791 257.106,496.005L266.875,406.856C268.349,398.152 276.705,390.205 285.43,389.222L432.189,377.733L432.169,377.733Z" style="fill-rule:nonzero;"/>
    </g>
    <g transform="matrix(0.174093,0,0,0.190245,646.637,338.292)">
        <path d="M709.448,275.968C622.817,258.15 534.897,249.119 448.164,249.119C361.431,249.119 273.531,258.15 186.88,275.968C175.677,278.262 166.523,286.392 162.918,297.308C116.777,437.494 116.777,579.645 162.918,719.831C166.502,730.706 175.657,738.836 186.88,741.151C273.531,758.948 361.431,768 448.164,768C534.856,768 622.817,758.948 709.448,741.11C720.712,738.816 729.825,730.685 733.45,719.79C779.571,579.604 779.571,437.453 733.45,297.267C729.825,286.392 720.691,278.262 709.448,275.948L709.448,275.968ZM703.017,709.816C533.135,744.694 363.213,744.694 193.352,709.816C149.156,575.631 149.156,441.487 193.352,307.282C363.233,272.364 533.156,272.364 703.017,307.282C747.213,441.467 747.213,575.611 703.017,709.816ZM987.32,202.24C981.135,176.189 959.324,156.733 932.762,153.539C793.231,136.581 651.735,128 512.164,128C372.613,128 231.117,136.581 91.587,153.498C65.024,156.733 43.233,176.148 37.069,202.24C-11.858,407.777 -11.858,616.182 37.069,821.76C43.254,847.811 65.044,867.267 91.587,870.441C158.822,878.633 226.509,884.613 294.175,888.873C290.529,891.208 288.154,893.583 288.154,896C288.154,913.695 388.444,928.01 512.164,928.01C635.884,928.01 736.174,913.715 736.174,896C736.174,893.563 733.798,891.208 730.153,888.873C797.839,884.613 865.505,878.633 932.721,870.441C959.283,867.246 981.094,847.811 987.279,821.76C1036.27,616.182 1036.27,407.777 987.341,202.24L987.32,202.24ZM925.061,806.953C649.789,840.335 374.538,840.335 99.308,806.953C52.49,610.304 52.49,413.676 99.308,217.068C374.579,183.665 649.83,183.665 925.061,217.068C971.878,413.676 971.878,610.324 925.061,806.953ZM848.2,384C874.701,384 896.205,362.496 896.205,335.995C896.205,309.494 874.701,287.99 848.2,287.99C821.699,287.99 800.195,309.494 800.195,335.995C800.195,362.496 821.699,384 848.2,384ZM848.2,320C857.006,320 864.195,327.209 864.195,335.995C864.195,344.781 856.986,351.99 848.2,351.99C839.414,351.99 832.205,344.781 832.205,335.995C832.205,327.209 839.373,320 848.2,320ZM880.189,704C888.996,704 896.184,711.127 896.184,719.995C896.184,728.801 888.975,735.99 880.189,735.99L784.179,735.99C775.311,735.99 768.184,728.781 768.184,719.995C768.184,711.127 775.311,704 784.179,704L880.189,704ZM912.2,608.01C921.006,608.01 928.195,615.137 928.195,624.005C928.195,632.812 920.986,640 912.2,640L816.189,640C807.322,640 800.195,632.791 800.195,624.005C800.195,615.137 807.322,608.01 816.189,608.01L912.2,608.01ZM912.2,512C921.006,512 928.195,519.168 928.195,527.995C928.195,536.822 920.986,543.99 912.2,543.99L816.189,543.99C807.322,543.99 800.195,536.822 800.195,527.995C800.195,519.168 807.322,512 816.189,512L912.2,512ZM432.169,377.733C440.996,377.385 448.164,384.266 448.164,393.093C448.164,401.92 440.955,409.354 432.169,409.661L312.197,417.894C303.452,418.796 295.342,426.66 294.154,435.364L288.809,496.005C288.461,504.812 280.965,512 272.241,512C263.475,512 256.655,504.791 257.106,496.005L266.875,406.856C268.349,398.152 276.705,390.205 285.43,389.222L432.189,377.733L432.169,377.733Z" style="fill-rule:nonzero;"/>
    </g>
    <g transform="matrix(0.472676,-1.22697,1.02076,0.393237,-21.6521,787.643)">
        <path d="M607.686,451.377C607.777,451.031 607.693,450.637 607.448,450.389C607.048,449.982 606.707,450.129 606.478,450.314C606.352,450.416 606.117,450.682 606.114,451.195C606.111,451.609 606.342,452.821 606.372,452.979L609.262,466.171C610.364,471.072 611.13,473.755 610.425,475.953C609.771,477.989 607.866,479.509 604.05,482.053C603.201,482.619 601.269,484.631 599.633,485.94C598.958,486.479 598.372,486.933 597.974,486.933C597.547,486.933 597.201,487.349 597.201,487.862C597.201,488.374 597.547,488.791 597.974,488.791C598.429,488.791 599.075,488.512 599.794,488.009C601.511,486.808 603.846,484.313 604.799,483.678C609.102,480.809 611.13,478.917 611.866,476.621C612.653,474.171 611.983,471.151 610.753,465.686L607.879,452.567L607.686,451.377ZM607.012,452.023C606.815,452.042 606.613,451.972 606.45,451.807C606.658,452.018 606.848,452.06 607.012,452.023Z"/>
    </g>
    <g transform="matrix(-1.0498,0.498123,-0.46893,-0.98828,1574.49,614.162)">
        <path d="M607.786,451.365C607.878,451.041 607.799,450.676 607.554,450.427C606.998,449.861 606.554,450.12 606.26,450.462C606.171,450.566 606.013,450.808 606.012,451.206C606.012,451.619 606.239,452.801 606.268,452.956L609.157,466.145C610.22,470.869 610.956,473.556 610.395,475.721C609.833,477.889 607.934,479.429 603.96,482.079C603.114,482.642 601.195,484.638 599.562,485.949C598.909,486.473 598.358,486.933 597.974,486.933C597.491,486.933 597.099,487.349 597.099,487.862C597.099,488.374 597.491,488.791 597.974,488.791C598.456,488.791 599.152,488.5 599.917,487.961C601.629,486.753 603.942,484.284 604.889,483.652C609.429,480.626 611.44,478.69 612.081,476.214C612.695,473.844 612.021,470.884 610.858,465.713L607.983,452.59L607.786,451.365ZM606.467,451.872L606.414,451.832L606.42,451.837L606.467,451.872ZM606.526,451.909L606.487,451.886L606.494,451.891L606.526,451.909Z"/>
    </g>
    <g transform="matrix(-1.0498,0.498123,-0.46893,-0.98828,1574.49,614.162)">
        <path d="M612.004,469.466C618.604,468.045 620.539,471.735 622.386,475.557C623.961,478.814 625.53,482.123 629.026,483.385C630.645,483.97 632.69,484.125 635.363,483.59C635.837,483.496 636.15,483.01 636.061,482.506C635.971,482.002 635.514,481.67 635.04,481.765C628.404,483.092 626.311,479.569 624.485,475.831C622.878,472.543 621.389,469.155 618.014,467.849C616.408,467.228 614.364,467.063 611.656,467.646C611.183,467.748 610.877,468.238 610.973,468.741C611.069,469.243 611.531,469.568 612.004,469.466Z"/>
    </g>
    <g transform="matrix(-0.957623,-0.303598,0.330583,-1.04274,1094.02,952.624)">
        <path d="M582.996,469.195C583.236,469.006 583.375,468.716 583.343,468.404C583.29,467.894 582.796,467.519 582.241,467.567C581.765,467.609 581.502,467.795 581.309,468.036C581.184,468.192 581.088,468.417 581.026,468.744C580.485,471.593 580.556,474.483 580.925,477.388C581.742,483.825 584.06,490.344 584.06,496.659C584.06,497.171 584.514,497.587 585.072,497.587C585.63,497.587 586.083,497.171 586.083,496.659C586.083,490.274 583.76,483.681 582.934,477.173C582.593,474.492 582.514,471.825 582.996,469.195Z"/>
    </g>
    <g transform="matrix(0.391434,1.09407,-1.02995,0.368494,973.101,-713.703)">
        <path d="M582.853,469.24C583.09,469.056 583.233,468.749 583.208,468.416C583.168,467.905 582.746,467.524 582.265,467.566C581.888,467.599 581.667,467.75 581.504,467.93C581.35,468.099 581.237,468.343 581.165,468.72C580.621,471.588 580.693,474.497 581.065,477.422C581.884,483.848 584.197,490.355 584.197,496.659C584.197,497.171 584.589,497.587 585.072,497.587C585.554,497.587 585.946,497.171 585.946,496.659C585.946,490.275 583.627,483.681 582.798,477.173C582.458,474.507 582.376,471.855 582.853,469.24Z"/>
    </g>
    <g transform="matrix(-0.957623,-0.303598,0.330583,-1.04274,1094.02,952.624)">
        <path d="M582.101,484.781C582.321,484.767 582.537,484.685 582.711,484.537C583.12,484.188 583.215,483.922 583.233,483.856C583.302,483.601 582.784,482.245 581.551,482.9C580.873,483.26 578.52,484.796 577.423,485.064C576.531,485.282 575.672,485.329 574.832,485.291C572.522,485.186 570.332,484.494 568.018,484.494C567.46,484.494 567.007,484.91 567.007,485.422C567.007,485.935 567.46,486.351 568.018,486.351C570.299,486.351 572.455,487.043 574.732,487.146C575.773,487.194 576.837,487.129 577.942,486.859C578.885,486.63 581.129,485.351 582.101,484.781Z"/>
    </g>
    <g transform="matrix(0.391434,1.09407,-1.02995,0.368494,973.101,-713.703)">
        <path d="M582.027,484.784C582.218,484.784 582.41,484.717 582.57,484.581C582.776,484.405 582.885,484.283 582.928,484.226C583.241,483.803 583.123,483.44 583.064,483.283C582.965,483.021 582.779,482.79 582.42,482.713C582.35,482.698 582.054,482.666 581.655,482.879C580.958,483.252 578.591,484.787 577.487,485.057C576.569,485.28 575.685,485.33 574.82,485.291C572.514,485.186 570.328,484.494 568.018,484.494C567.535,484.494 567.144,484.91 567.144,485.422C567.144,485.935 567.535,486.351 568.018,486.351C570.303,486.351 572.464,487.043 574.745,487.147C575.761,487.193 576.8,487.13 577.878,486.867C578.822,486.637 581.092,485.335 582.027,484.784Z"/>
    </g>
    <g transform="matrix(1,0,0,1,-80.8357,-305.218)">
        <text x="165.397px" y="400.303px" style="font-family:'ArialMT', 'Arial', sans-serif;font-size:50.575px;">1</text>
    </g>
    <g transform="matrix(1,0,0,1,-80.8357,60.846)">
        <text x="165.397px" y="400.303px" style="font-family:'ArialMT', 'Arial', sans-serif;font-size:50.575px;">9</text>
    </g>
    <g transform="matrix(1,0,0,1,-81.3019,-118.669)">
        <text x="165.397px" y="400.303px" style="font-family:'ArialMT', 'Arial', sans-serif;font-size:50.575px;">5</text>
    </g>
    <g transform="matrix(1,0,0,1,140.7,-305.218)">
        <text x="165.397px" y="400.303px" style="font-family:'ArialMT', 'Arial', sans-serif;font-size:50.575px;">2</text>
    </g>
    <g transform="matrix(1,0,0,1,140.7,-305.218)">
        <text x="165.397px" y="400.303px" style="font-family:'ArialMT', 'Arial', sans-serif;font-size:50.575px;">2</text>
    </g>
    <g transform="matrix(1,0,0,1,115.627,63.804)">
        <text x="165.397px" y="400.303px" style="font-family:'ArialMT', 'Arial', sans-serif;font-size:50.575px;">10</text>
    </g>
    <g transform="matrix(1,0,0,1,140.234,-118.669)">
        <text x="165.397px" y="400.303px" style="font-family:'ArialMT', 'Arial', sans-serif;font-size:50.575px;">6</text>
    </g>
    <g transform="matrix(1,0,0,1,354.298,-305.218)">
        <text x="165.397px" y="400.303px" style="font-family:'ArialMT', 'Arial', sans-serif;font-size:50.575px;">3</text>
    </g>
    <g transform="matrix(1,0,0,1,339.097,64.2567)">
        <text x="165.397px" y="400.303px" style="font-family:'ArialMT', 'Arial', sans-serif;font-size:50.575px;">1<tspan x="189.771px " y="400.303px ">1</tspan></text>
    </g>
    <g transform="matrix(1,0,0,1,353.831,-118.669)">
        <text x="165.397px" y="400.303px" style="font-family:'ArialMT', 'Arial', sans-serif;font-size:50.575px;">7</text>
    </g>
    <g transform="matrix(1,0,0,1,574.867,-298.316)">
        <text x="165.397px" y="400.303px" style="font-family:'ArialMT', 'Arial', sans-serif;font-size:50.575px;">4</text>
    </g>
    <g transform="matrix(1,0,0,1,551.61,65.452)">
        <text x="165.397px" y="400.303px" style="font-family:'ArialMT', 'Arial', sans-serif;font-size:50.575px;">12</text>
    </g>
    <g transform="matrix(1,0,0,1,574.401,-111.768)">
        <text x="165.397px" y="400.303px" style="font-family:'ArialMT', 'Arial', sans-serif;font-size:50.575px;">8</text>
    </g>
</svg>
